<svg width="162" height="45" viewBox="0 0 162 45" fill="none" xmlns="http://www.w3.org/2000/svg">
    <path d="M157.918 10H106.082C103.828 10 102 11.8015 102 14.024V40.976C102 43.1978 103.828 45 106.082 45H157.918C160.172 45 162 43.1978 162 40.976V14.024C162 11.8015 160.172 10 157.918 10ZM136.005 41.1461C136.005 41.9475 135.795 42.5766 135.374 43.0334C134.953 43.4909 134.322 43.7197 133.481 43.7197C132.64 43.7197 132.045 43.4909 131.61 43.0334C131.175 42.5766 130.958 41.9475 130.958 41.1461V23.0078L122.777 37.7148C122.487 38.2016 122.183 38.559 121.863 38.7871C121.544 39.0165 121.109 39.1302 120.558 39.1302C120.007 39.1302 119.557 39.0094 119.209 38.7656C118.861 38.5233 118.556 38.173 118.295 37.7148L110.115 23.1086V41.1461C110.115 41.9475 109.905 42.5766 109.484 43.0334C109.064 43.4909 108.433 43.7197 107.591 43.7197C106.75 43.7197 106.155 43.4909 105.72 43.0334C105.285 42.5766 105.068 41.9475 105.068 41.1461V15.368C105.068 14.5394 105.3 13.9032 105.764 13.4593C106.228 13.016 106.866 12.7944 107.678 12.7944C108.404 12.7944 108.976 12.931 109.397 13.2019C109.818 13.4743 110.202 13.9389 110.55 14.5959L120.602 32.928L130.653 14.5959C131.001 13.9389 131.378 13.4743 131.784 13.2019C132.19 12.931 132.756 12.7944 133.481 12.7944C134.293 12.7944 134.917 13.016 135.352 13.4593C135.787 13.9032 136.005 14.5394 136.005 15.368V41.1461ZM156.586 25.8336C157.341 25.8336 157.906 26.0202 158.283 26.3912C158.66 26.7637 158.849 27.307 158.849 28.0219C158.849 28.7367 158.66 29.28 158.283 29.651C157.906 30.0235 157.341 30.2086 156.586 30.2086H144.403V39.0015H157.544C158.269 39.0015 158.827 39.1881 159.219 39.5591C159.61 39.9316 159.806 40.4749 159.806 41.189C159.806 41.9032 159.61 42.4479 159.219 42.8196C158.827 43.1914 158.269 43.3765 157.544 43.3765H142.01C141.052 43.3765 140.32 43.127 139.812 42.6259C139.305 42.1262 139.051 41.4035 139.051 40.4606V16.0542C139.051 15.1106 139.305 14.3893 139.812 13.8882C140.32 13.3885 141.052 13.1376 142.01 13.1376H157.544C158.269 13.1376 158.827 13.3241 159.219 13.6952C159.61 14.0676 159.806 14.5959 159.806 15.2822C159.806 15.9684 159.61 16.5482 159.219 16.9335C158.827 17.3195 158.269 17.5133 157.544 17.5133H144.403V25.8336H156.586Z" fill="#233D3E"/>
    <path d="M70.9407 15.3782C69.2216 13.9203 66.7002 13.1907 63.3757 13.1907H54.4254C53.5157 13.1907 52.7908 13.4155 52.2514 13.8637C51.7113 14.3127 51.3704 14.9858 51.2285 15.883L47.3504 39.9877C47.1799 40.9973 47.3003 41.7828 47.7129 42.3435C48.124 42.9041 48.7566 43.1848 49.609 43.1848C50.518 43.1848 51.2357 42.96 51.7615 42.5117C52.2872 42.0635 52.6211 41.3904 52.7629 40.4925L54.255 30.9854H58.6445C59.7813 30.9854 60.6617 31.1953 61.287 31.616C61.9123 32.0367 62.4094 32.7522 62.7791 33.7618L65.5068 40.829C65.8191 41.6428 66.1952 42.2381 66.6364 42.6171C67.0762 42.9953 67.6657 43.1848 68.405 43.1848C69.1442 43.1848 69.7688 43.0441 70.195 42.7641C70.6212 42.4841 70.8698 42.0847 70.9407 41.565C71.0116 41.0468 70.9049 40.4225 70.6212 39.6929L68.5755 34.4349C68.064 33.117 67.3821 32.0862 66.5297 31.3431C66.1787 31.037 65.7869 30.7938 65.3535 30.6142C66.2897 30.4495 67.1722 30.2013 68.0003 29.8704C69.7187 29.1839 71.0689 28.1389 72.0489 26.7362C73.0295 25.3342 73.5194 23.554 73.5194 21.3941C73.5194 18.8425 72.6599 16.8367 70.9407 15.3782ZM66.6364 25.6637C65.5705 26.5475 64.0713 26.9886 62.1394 26.9886H55.3137C55.0938 26.9886 54.9254 26.7942 54.9598 26.58L56.3709 17.7975C56.4039 17.5918 56.5844 17.4398 56.7957 17.4398H62.5663C64.5276 17.4398 65.9616 17.8046 66.8714 18.5335C67.7804 19.2632 68.2352 20.3569 68.2352 21.8148C68.2352 23.4974 67.7023 24.7807 66.6371 25.6637H66.6364Z" fill="#233D3E"/>
    <path d="M3.39756 43.329C2.09817 43.329 1.16481 42.9281 0.596777 42.1271C0.0280258 41.326 -0.13386 40.204 0.109686 38.7617L5.71124 3.84612C5.91396 2.56432 6.38099 1.60279 7.11163 0.96153C7.84227 0.320981 8.85657 0 10.156 0C11.4553 0 12.378 0.400874 12.9266 1.20191C13.4746 2.00366 13.6265 3.12498 13.3837 4.56727L11.2576 17.7395C11.2233 17.9545 11.3909 18.1489 11.6115 18.1489H32.9884C33.1646 18.1489 33.3143 18.0223 33.3422 17.8512L35.6079 3.84612C35.8106 2.56432 36.2669 1.60279 36.9775 0.96153C37.6874 0.320981 38.6917 0 39.991 0C41.2904 0 42.2231 0.390269 42.7918 1.17222C43.3599 1.95346 43.5225 3.08609 43.2789 4.56727L37.6774 39.4228C37.4739 40.7053 37.0169 41.6767 36.3078 42.3378C35.5972 42.9988 34.5922 43.329 33.2935 43.329C31.9949 43.329 31.0099 42.9281 30.4627 42.1271C29.9154 41.326 29.7628 40.204 30.0057 38.7617L32.1933 24.9871C32.2277 24.7729 32.0593 24.5791 31.8394 24.5791H10.4625C10.2863 24.5791 10.1359 24.7057 10.1087 24.8775L7.7821 39.4228C7.57867 40.7053 7.12166 41.6767 6.41251 42.3378C5.70193 42.9988 4.69695 43.329 3.39827 43.329H3.39756Z" fill="#233D3E"/>
    <path d="M42.3556 43.1848C41.418 43.1848 40.7504 42.9041 40.3528 42.3434C39.9546 41.7828 39.8414 40.9973 40.0119 39.9877L43.933 15.5464C44.0748 14.6492 44.4014 13.9761 44.9136 13.5272C45.425 13.079 46.1349 12.8541 47.0446 12.8541C47.9543 12.8541 48.6004 13.1277 48.9837 13.6743C49.3669 14.2215 49.4736 15.014 49.3031 16.0512L45.3821 40.4501C45.2395 41.348 44.9272 42.0274 44.4444 42.4905C43.9609 42.9529 43.2654 43.1848 42.3556 43.1848Z" fill="#233D3E"/>
    <path d="M75.7937 42.8483C74.7708 42.8483 74.0316 42.5817 73.5775 42.0494C73.1226 41.517 72.9665 40.7598 73.109 39.7777L76.9449 15.7996C77.0867 14.9306 77.4205 14.2788 77.9463 13.8433C78.472 13.4092 79.1747 13.1914 80.0558 13.1914H95.1005C95.839 13.1914 96.407 13.3385 96.8053 13.6333C97.2029 13.9281 97.402 14.3558 97.402 14.9165C97.402 15.7303 97.1678 16.3609 96.6986 16.8099C96.2301 17.2588 95.6119 17.4829 94.8448 17.4829H82.2362C82.06 17.4829 81.9103 17.6088 81.8824 17.7806L80.6754 25.2346C80.6403 25.4495 80.8086 25.6439 81.0293 25.6439H92.2023C92.9408 25.6439 93.5024 25.791 93.8856 26.0858C94.2688 26.3806 94.4608 26.8084 94.4608 27.369C94.4608 28.1828 94.2266 28.8135 93.7574 29.2624C93.2889 29.7114 92.6708 29.9355 91.9036 29.9355H80.2327C80.0572 29.9355 79.9068 30.0613 79.8789 30.2331L78.5874 38.1495C78.5523 38.3644 78.7206 38.5589 78.9412 38.5589H91.0089C91.7474 38.5589 92.3155 38.7059 92.7137 39.0007C93.1113 39.2956 93.3104 39.7233 93.3104 40.284C93.3104 41.0977 93.0762 41.7284 92.607 42.1773C92.1385 42.6263 91.5204 42.8504 90.7532 42.8504H75.7937V42.8483Z" fill="#233D3E"/>
</svg>
