<svg width="128" height="74" viewBox="0 0 128 74" fill="none" xmlns="http://www.w3.org/2000/svg">
<g clip-path="url(#clip0_12_485)">
<path d="M118.675 0.111115H9.24436C4.48604 0.111115 0.626404 3.91422 0.626404 8.60622V65.5049C0.626404 70.1954 4.48604 74 9.24436 74H118.675C123.435 74 127.293 70.1954 127.293 65.5049V8.60622C127.293 3.91422 123.435 0.111115 118.675 0.111115ZM72.4146 65.8641C72.4146 67.5559 71.9707 68.8839 71.0827 69.8483C70.1947 70.8141 68.8627 71.2971 67.0868 71.2971C65.3108 71.2971 64.0554 70.8141 63.1368 69.8483C62.2182 68.8839 61.7589 67.5559 61.7589 65.8641V27.5719L44.4893 58.6201C43.8769 59.6478 43.2339 60.4024 42.5603 60.8838C41.8867 61.3683 40.9681 61.6082 39.8045 61.6082C38.6409 61.6082 37.6917 61.3532 36.9569 60.8385C36.222 60.3269 35.579 59.5874 35.0278 58.6201L17.7582 27.7847V65.8641C17.7582 67.5559 17.3142 68.8839 16.4262 69.8483C15.5383 70.8141 14.2063 71.2971 12.4304 71.2971C10.6544 71.2971 9.39899 70.8141 8.4804 69.8483C7.5618 68.8839 7.1025 67.5559 7.1025 65.8641V11.4435C7.1025 9.69433 7.59242 8.35117 8.57226 7.41398C9.55209 6.4783 10.8994 6.01045 12.6141 6.01045C14.1451 6.01045 15.3546 6.29871 16.2425 6.87068C17.1305 7.44567 17.9419 8.42663 18.6768 9.81356L39.8964 48.5147L61.1159 9.81356C61.8508 8.42663 62.6469 7.44567 63.5043 6.87068C64.3616 6.29871 65.5558 6.01045 67.0868 6.01045C68.8015 6.01045 70.1182 6.4783 71.0368 7.41398C71.9553 8.35117 72.4146 9.69433 72.4146 11.4435V65.8641ZM115.864 33.5377C117.456 33.5377 118.651 33.9316 119.447 34.7148C120.243 35.5011 120.641 36.6481 120.641 38.1573C120.641 39.6664 120.243 40.8134 119.447 41.5966C118.651 42.3829 117.456 42.7738 115.864 42.7738H90.1435V61.3366H117.885C119.416 61.3366 120.595 61.7305 121.422 62.5137C122.248 63.3 122.662 64.447 122.662 65.9546C122.662 67.4623 122.248 68.6123 121.422 69.397C120.595 70.1818 119.416 70.5727 117.885 70.5727H85.0913C83.0704 70.5727 81.5241 70.046 80.4524 68.9881C79.3807 67.9331 78.8448 66.4074 78.8448 64.4168V12.8923C78.8448 10.9002 79.3807 9.37741 80.4524 8.31948C81.5241 7.26457 83.0704 6.73485 85.0913 6.73485H117.885C119.416 6.73485 120.595 7.12875 121.422 7.91201C122.248 8.69828 122.662 9.81356 122.662 11.2624C122.662 12.7112 122.248 13.9351 121.422 14.7485C120.595 15.5635 119.416 15.9725 117.885 15.9725H90.1435V33.5377H115.864Z" fill="#233D3E"/>
</g>
<defs>
<clipPath id="clip0_12_485">
<rect width="126.667" height="73.8889" fill="white" transform="translate(0.626404 0.111115)"/>
</clipPath>
</defs>
</svg>
