<svg width="50" height="50" viewBox="0 0 50 50" fill="none" xmlns="http://www.w3.org/2000/svg">
<g clip-path="url(#clip0_50_1284)">
<g filter="url(#filter0_d_50_1284)">
<mask id="mask0_50_1284" style="mask-type:luminance" maskUnits="userSpaceOnUse" x="5" y="3" width="40" height="45">
<path d="M45 3.56117H5.18506V47.1267H45V3.56117Z" fill="white"/>
</mask>
<g mask="url(#mask0_50_1284)">
<path fill-rule="evenodd" clip-rule="evenodd" d="M5.24512 9.33479H5.24762C5.36515 14.9216 6.02281 21.1023 7.01556 27.2244C8.11083 33.9932 9.6137 40.7008 11.2466 46.4521L11.2516 46.4716C11.3616 46.9316 11.8168 47.2132 12.2669 47.1044L44.3248 39.2121L44.3498 39.2065C44.8025 39.1005 45.085 38.6406 44.98 38.1806C43.6972 32.5185 42.6694 26.8703 41.8792 21.2305C41.0915 15.6074 40.5439 10.0206 40.2263 4.47001C40.2263 4.42261 40.2263 4.37522 40.2163 4.32783C40.1563 3.8762 39.7712 3.54166 39.3186 3.59184C39.2761 3.59741 39.2361 3.60578 39.1936 3.61135L15.8828 7.09336C14.6625 7.25506 5.21761 7.9325 5.24762 9.33479" fill="#4E888A"/>
</g>
<path fill-rule="evenodd" clip-rule="evenodd" d="M14.4117 42.7774C14.3097 42.2711 14.596 41.7732 15.0468 41.6644L39.6339 35.771C40.0872 35.6621 40.5366 35.9831 40.6386 36.4894C40.7406 36.9956 40.4542 37.4935 40.0034 37.6023L15.4139 43.4958C14.9605 43.6047 14.5111 43.2837 14.4092 42.7775" fill="#386264"/>
<path fill-rule="evenodd" clip-rule="evenodd" d="M9.91355 16.271C9.83353 15.7608 10.1411 15.2757 10.5962 15.1865L35.4149 10.3608C35.8725 10.2715 36.3076 10.6117 36.3876 11.1218C36.4676 11.632 36.1601 12.1171 35.705 12.2063L10.8838 17.032C10.4262 17.1213 9.99107 16.7811 9.91105 16.271" fill="#386264"/>
<path d="M12.9418 11.9191L11.7765 9.42956L10.7537 9.27344L10.6162 10.4276L12.4642 12.3484L12.9418 11.9191Z" fill="#B0BEC5"/>
<mask id="mask1_50_1284" style="mask-type:luminance" maskUnits="userSpaceOnUse" x="5" y="2" width="10" height="11">
<path d="M14.3348 2H5V12.315H14.3348V2Z" fill="white"/>
</mask>
<g mask="url(#mask1_50_1284)">
<path d="M6.25529 2.59939C6.89545 2.14218 7.61063 2.01952 8.3033 2.14497C9.01598 2.27321 9.69865 2.67466 10.2388 3.24617L11.1615 4.21912C11.3816 4.44773 11.4266 4.78784 11.299 5.06105C11.249 5.20044 11.2265 5.33426 11.234 5.45971C11.2415 5.56844 11.274 5.6688 11.3341 5.75522C11.4091 5.86674 11.5291 5.94201 11.6716 5.98383C11.8567 6.03958 12.0792 6.0368 12.3093 5.97825C12.5944 5.90298 12.8819 6.00613 13.057 6.22079L13.9497 7.16587C14.2348 7.46417 14.2248 7.94089 13.9297 8.23082C13.8872 8.27264 13.8447 8.3061 13.7972 8.33676L8.88595 11.8244C8.55086 12.0641 8.08825 11.9805 7.85569 11.6376C7.82068 11.5846 7.79068 11.5316 7.77067 11.4759L7.21553 10.3106H7.21303C7.0905 10.0513 7.12551 9.75577 7.28305 9.53832C7.41308 9.34038 7.4856 9.13687 7.4981 8.95287C7.5081 8.80233 7.4756 8.66015 7.39808 8.54585C7.34056 8.46221 7.26054 8.3981 7.16302 8.35349C7.03799 8.29773 6.89045 8.26985 6.73041 8.27543C6.40533 8.28658 6.12526 8.08307 6.01523 7.79313L5.4651 6.63339C5.13001 5.91692 4.99748 5.12796 5.12251 4.40591C5.24504 3.6978 5.60763 3.05938 6.25279 2.59939" fill="#FFAC06"/>
</g>
<path d="M11.3217 4.99693C11.3142 5.01924 11.3042 5.03875 11.2966 5.06105C11.2466 5.20045 11.2266 5.33426 11.2341 5.45971C11.2416 5.56844 11.2741 5.6688 11.3342 5.75523C11.4092 5.86674 11.5292 5.94201 11.6717 5.98383C11.8593 6.03958 12.0793 6.0368 12.3094 5.97825C12.3544 5.96431 12.3994 5.95874 12.4444 5.95595L7.28565 9.55784L7.29565 9.54669C7.42319 9.34875 7.49821 9.14524 7.51071 8.95845C7.52071 8.80791 7.4882 8.66573 7.41068 8.55143C7.35317 8.46779 7.27315 8.40367 7.17563 8.35907C7.05059 8.30331 6.90306 8.27543 6.74302 8.28101C6.70301 8.2838 6.663 8.28101 6.62549 8.28101L11.3267 4.99972" fill="#F98903"/>
<path d="M39.2835 28.3701C39.0284 27.0459 38.1732 25.967 36.9479 25.2868C36.3803 24.9745 35.7326 24.7459 35.0299 24.6205C35.8576 23.5165 36.2577 22.025 36.0152 20.4945C35.5801 17.7485 33.2395 15.9169 30.7889 16.4019C28.3383 16.887 26.7054 19.502 27.1405 22.248C27.383 23.7786 28.2182 25.0247 29.336 25.744C28.7134 26.1315 28.1757 26.5943 27.7406 27.1045C26.7979 28.2112 26.3278 29.5522 26.4953 30.8931C26.5528 31.3643 26.6629 31.749 26.8129 32.064C28.5458 32.195 30.7889 32.0417 33.1995 31.565C35.6101 31.0883 37.7731 30.3718 39.361 29.5828C39.396 29.2288 39.376 28.8273 39.286 28.3646" fill="#002D2D"/>
<path d="M25.4549 31.1022C25.1998 29.778 24.3446 28.6991 23.1168 28.0189C22.5492 27.7038 21.904 27.478 21.1988 27.3526C22.0265 26.2486 22.4266 24.7571 22.1841 23.2266C21.749 20.4805 19.4084 18.6489 16.9578 19.134C14.5072 19.6191 12.8743 22.2341 13.3119 24.9801C13.5544 26.5106 14.3896 27.7568 15.5074 28.4761C14.8848 28.8636 14.3471 29.3263 13.912 29.8365C12.9693 30.9433 12.4992 32.2842 12.6667 33.6252C12.7242 34.0963 12.8342 34.4811 12.9843 34.7961C14.7172 34.9271 16.9603 34.7738 19.3709 34.2971C21.7815 33.8203 23.9445 33.1039 25.5324 32.3149C25.5699 31.9609 25.5474 31.5594 25.4574 31.0966" fill="#002D2D"/>
<mask id="path-12-inside-1_50_1284" fill="white">
<path d="M33.2447 32.6327C32.9722 31.2248 32.0644 30.0763 30.7591 29.357C30.1565 29.0224 29.4688 28.7827 28.7211 28.6461C29.6013 27.4724 30.0264 25.8889 29.7664 24.2608C29.3038 21.3447 26.8156 19.396 24.2125 19.909C21.6093 20.422 19.8714 23.207 20.334 26.1231C20.5916 27.7512 21.4793 29.0754 22.6671 29.8393C22.0044 30.2519 21.4343 30.7425 20.9717 31.2862C19.9689 32.4626 19.4713 33.8872 19.6464 35.3146C19.7089 35.8136 19.8239 36.2234 19.9839 36.5608C21.8269 36.7002 24.21 36.5357 26.7731 36.0311C29.3413 35.5237 31.6368 34.7626 33.3223 33.9235C33.3598 33.5471 33.3373 33.1206 33.2422 32.6299"/>
</mask>
<path d="M33.2447 32.6327C32.9722 31.2248 32.0644 30.0763 30.7591 29.357C30.1565 29.0224 29.4688 28.7827 28.7211 28.6461C29.6013 27.4724 30.0264 25.8889 29.7664 24.2608C29.3038 21.3447 26.8156 19.396 24.2125 19.909C21.6093 20.422 19.8714 23.207 20.334 26.1231C20.5916 27.7512 21.4793 29.0754 22.6671 29.8393C22.0044 30.2519 21.4343 30.7425 20.9717 31.2862C19.9689 32.4626 19.4713 33.8872 19.6464 35.3146C19.7089 35.8136 19.8239 36.2234 19.9839 36.5608C21.8269 36.7002 24.21 36.5357 26.7731 36.0311C29.3413 35.5237 31.6368 34.7626 33.3223 33.9235C33.3598 33.5471 33.3373 33.1206 33.2422 32.6299" fill="#002D2D"/>
<path d="M30.7591 29.357L30.2738 30.2313L30.2765 30.2328L30.7591 29.357ZM28.7211 28.6461L27.9211 28.0461L26.9513 29.3393L28.5414 29.6298L28.7211 28.6461ZM29.7664 24.2608L28.7787 24.4175L28.7789 24.4186L29.7664 24.2608ZM20.334 26.1231L21.3217 25.9668L21.3217 25.9664L20.334 26.1231ZM22.6671 29.8393L23.1957 30.6882L24.5371 29.8529L23.208 28.9982L22.6671 29.8393ZM20.9717 31.2862L21.7327 31.9349L21.7333 31.9343L20.9717 31.2862ZM19.6464 35.3146L18.6538 35.4363L18.6541 35.4389L19.6464 35.3146ZM19.9839 36.5608L19.0805 36.9894L19.3294 37.5141L19.9085 37.5579L19.9839 36.5608ZM26.7731 36.0311L26.9663 37.0122L26.967 37.0121L26.7731 36.0311ZM33.3223 33.9235L33.768 34.8187L34.2625 34.5724L34.3173 34.0226L33.3223 33.9235ZM34.2265 32.4426C33.8907 30.7082 32.7737 29.3253 31.2417 28.4812L30.2765 30.2328C31.3551 30.8272 32.0536 31.7415 32.263 32.8228L34.2265 32.4426ZM31.2445 28.4827C30.5372 28.09 29.7446 27.8165 28.9008 27.6624L28.5414 29.6298C29.193 29.7489 29.7757 29.9548 30.2738 30.2313L31.2445 28.4827ZM29.5211 29.2461C30.5648 27.8545 31.0564 25.9973 30.7539 24.1031L28.7789 24.4186C28.9965 25.7806 28.6379 27.0903 27.9211 28.0461L29.5211 29.2461ZM30.754 24.1041C30.2196 20.7355 27.2796 18.2854 24.0192 18.9279L24.4058 20.8901C26.3517 20.5067 28.3879 21.954 28.7787 24.4175L30.754 24.1041ZM24.0192 18.9279C20.7974 19.5627 18.8148 22.9292 19.3464 26.2798L21.3217 25.9664C20.928 23.4848 22.4213 21.2812 24.4058 20.8901L24.0192 18.9279ZM19.3463 26.2794C19.6462 28.1751 20.6871 29.7549 22.1262 30.6804L23.208 28.9982C22.2715 28.3959 21.537 27.3273 21.3217 25.9668L19.3463 26.2794ZM22.1386 28.9904C21.3927 29.4548 20.7429 30.012 20.2101 30.6381L21.7333 31.9343C22.1257 31.473 22.6162 31.049 23.1957 30.6882L22.1386 28.9904ZM20.2106 30.6375C19.0563 31.9918 18.4394 33.6882 18.6538 35.4363L20.6389 35.1929C20.5032 34.0862 20.8816 32.9335 21.7327 31.9349L20.2106 30.6375ZM18.6541 35.4389C18.7268 36.0195 18.8655 36.5364 19.0805 36.9894L20.8874 36.1321C20.7823 35.9105 20.6909 35.6078 20.6386 35.1903L18.6541 35.4389ZM19.9085 37.5579C21.8616 37.7056 24.3373 37.5298 26.9663 37.0122L26.58 35.0499C24.0827 35.5415 21.7922 35.6947 20.0594 35.5636L19.9085 37.5579ZM26.967 37.0121C29.6018 36.4916 31.9859 35.7059 33.768 34.8187L32.8766 33.0283C31.2878 33.8193 29.0807 34.5558 26.5793 35.05L26.967 37.0121ZM34.3173 34.0226C34.3662 33.5324 34.3338 33.007 34.224 32.4398L32.2605 32.82C32.3407 33.2342 32.3533 33.5618 32.3272 33.8243L34.3173 34.0226Z" fill="#FFFEFE" fill-opacity="0.33" mask="url(#path-12-inside-1_50_1284)"/>
</g>
</g>
<defs>
<filter id="filter0_d_50_1284" x="1.07617" y="2.09871" width="47.9238" height="53.028" filterUnits="userSpaceOnUse" color-interpolation-filters="sRGB">
<feFlood flood-opacity="0" result="BackgroundImageFix"/>
<feColorMatrix in="SourceAlpha" type="matrix" values="0 0 0 0 0 0 0 0 0 0 0 0 0 0 0 0 0 0 127 0" result="hardAlpha"/>
<feOffset dy="4"/>
<feGaussianBlur stdDeviation="2"/>
<feComposite in2="hardAlpha" operator="out"/>
<feColorMatrix type="matrix" values="0 0 0 0 0 0 0 0 0 0 0 0 0 0 0 0 0 0 0.2 0"/>
<feBlend mode="normal" in2="BackgroundImageFix" result="effect1_dropShadow_50_1284"/>
<feBlend mode="normal" in="SourceGraphic" in2="effect1_dropShadow_50_1284" result="shape"/>
</filter>
<clipPath id="clip0_50_1284">
<rect width="50" height="50" rx="10" fill="white"/>
</clipPath>
</defs>
</svg>
