<svg width="50" height="50" viewBox="0 0 50 50" fill="none" xmlns="http://www.w3.org/2000/svg">
<g clip-path="url(#clip0_50_1235)">
<g filter="url(#filter0_d_50_1235)">
<mask id="mask0_50_1235" style="mask-type:luminance" maskUnits="userSpaceOnUse" x="5" y="6" width="40" height="40">
<path d="M44.9995 6.38397H5.18457V45.0001H44.9995V6.38397Z" fill="white"/>
</mask>
<g mask="url(#mask0_50_1235)">
<path fill-rule="evenodd" clip-rule="evenodd" d="M5.24512 11.5016H5.24762C5.36515 16.4537 6.02281 21.9322 7.01556 27.3588C8.11083 33.3586 9.61371 39.3042 11.2466 44.4021L11.2516 44.4194C11.3616 44.8271 11.8168 45.0767 12.2669 44.9803L44.3249 37.9846L44.3499 37.9796C44.8025 37.8857 45.0851 37.478 44.9801 37.0703C43.6972 32.0514 42.6695 27.0449 41.8793 22.0459C41.0916 17.0616 40.5439 12.1095 40.2264 7.1895C40.2264 7.14749 40.2264 7.10548 40.2164 7.06347C40.1563 6.66315 39.7713 6.36662 39.3186 6.4111C39.2761 6.41604 39.2361 6.42345 39.1936 6.42839L15.8828 9.51482C14.6625 9.65815 5.21761 10.2586 5.24762 11.5016" fill="#4E888A"/>
</g>
<path fill-rule="evenodd" clip-rule="evenodd" d="M15.06 40.452C14.96 40.0047 15.2451 39.5648 15.6977 39.466L40.4889 34.0567C40.9415 33.9579 41.3866 34.2396 41.4866 34.6868C41.5867 35.1316 41.3016 35.574 40.849 35.6728L16.0578 41.0821C15.6052 41.1809 15.1601 40.8992 15.06 40.452Z" fill="#386264"/>
<path fill-rule="evenodd" clip-rule="evenodd" d="M9.91355 16.9085C9.83353 16.4563 10.1411 16.0263 10.5962 15.9473L35.4149 11.6698C35.8725 11.5907 36.3076 11.8922 36.3877 12.3444C36.4677 12.7966 36.1601 13.2266 35.705 13.3056L10.8838 17.5831C10.4262 17.6622 9.99107 17.3607 9.91105 16.9085" fill="#386264"/>
<path d="M12.9423 13.7923L11.777 11.5856L10.7542 11.4472L10.6167 12.4702L12.4647 14.1728L12.9423 13.7923Z" fill="#B0BEC5"/>
<mask id="mask1_50_1235" style="mask-type:luminance" maskUnits="userSpaceOnUse" x="5" y="5" width="10" height="10">
<path d="M14.3348 5H5V14.1431H14.3348V5Z" fill="white"/>
</mask>
<g mask="url(#mask1_50_1235)">
<path d="M6.25481 5.53132C6.89497 5.12606 7.61015 5.01733 8.30282 5.12853C9.0155 5.2422 9.69817 5.59804 10.2383 6.10462L11.161 6.96704C11.3811 7.16967 11.4261 7.47115 11.2986 7.71332C11.2486 7.83688 11.226 7.95549 11.2336 8.06669C11.2411 8.16306 11.2736 8.25203 11.3336 8.32863C11.4086 8.42747 11.5286 8.49419 11.6712 8.53126C11.8562 8.58068 12.0788 8.57821 12.3088 8.52632C12.5939 8.4596 12.8815 8.55103 13.0565 8.74131L13.9492 9.57902C14.2343 9.84343 14.2243 10.266 13.9292 10.523C13.8867 10.5601 13.8442 10.5897 13.7967 10.6169L8.88546 13.7083C8.55038 13.9208 8.08777 13.8466 7.85521 13.5427C7.8202 13.4957 7.79019 13.4488 7.77019 13.3994L7.21505 12.3664H7.21255C7.09002 12.1366 7.12502 11.8747 7.28256 11.6819C7.4126 11.5065 7.48511 11.3261 7.49762 11.163C7.50762 11.0296 7.47511 10.9035 7.39759 10.8022C7.34008 10.7281 7.26006 10.6713 7.16253 10.6317C7.0375 10.5823 6.88997 10.5576 6.72993 10.5625C6.40484 10.5724 6.12477 10.392 6.01475 10.135L5.46461 9.10703C5.12953 8.47195 4.99699 7.77263 5.12202 7.13261C5.24455 6.50494 5.60715 5.93906 6.25231 5.53132" fill="#FFAC06"/>
</g>
<path d="M11.3217 7.65649C11.3142 7.67626 11.3042 7.69356 11.2967 7.71333C11.2466 7.83689 11.2266 7.9555 11.2341 8.0667C11.2416 8.16307 11.2741 8.25203 11.3342 8.32864C11.4092 8.42748 11.5292 8.4942 11.6717 8.53127C11.8593 8.58069 12.0794 8.57822 12.3094 8.52633C12.3544 8.51397 12.3994 8.50903 12.4444 8.50656L7.28565 11.6992L7.29566 11.6894C7.42319 11.5139 7.49821 11.3335 7.51071 11.168C7.52071 11.0345 7.4882 10.9085 7.41068 10.8072C7.35317 10.733 7.27315 10.6762 7.17563 10.6367C7.05059 10.5872 6.90306 10.5625 6.74302 10.5675C6.70301 10.5699 6.663 10.5675 6.62549 10.5675L11.3267 7.65897" fill="#F98903"/>
<path d="M17.6465 24.106C16.0384 24.4031 14.9757 25.9416 15.2786 27.533C15.5816 29.1244 17.1314 30.1815 18.7395 29.8844C20.3476 29.5873 21.4104 28.0512 21.1074 26.4574C20.8067 24.8637 19.2546 23.8089 17.6465 24.106ZM18.6789 29.5689C17.248 29.8337 15.8659 28.8941 15.5979 27.4754C15.3299 26.0567 16.2761 24.6887 17.7071 24.4238C19.1381 24.159 20.5201 25.0986 20.7881 26.5173C21.0561 27.936 20.1099 29.304 18.6789 29.5689Z" fill="#24393A"/>
<path d="M17.5574 27.1024C17.646 27.0862 17.7043 27.001 17.688 26.9135L17.4689 25.7505C17.4526 25.6629 17.3663 25.6054 17.2778 25.6215C17.1892 25.6376 17.131 25.7228 17.1473 25.8103L17.3663 26.9734C17.3827 27.0609 17.4689 27.1185 17.5551 27.1024H17.5574Z" fill="#24393A"/>
<path d="M18.8236 26.8698C18.9121 26.8537 18.9704 26.7685 18.9541 26.681L18.735 25.5179C18.7187 25.4304 18.6325 25.3728 18.5439 25.389C18.4553 25.4051 18.3971 25.4903 18.4134 25.5778L18.6325 26.7409C18.6488 26.8284 18.735 26.886 18.8212 26.8698H18.8236Z" fill="#24393A"/>
<path d="M19.6251 26.8398C19.5342 26.8375 19.462 26.9089 19.4597 26.9964C19.4597 27.0401 19.4247 28.0811 18.4342 28.2631C17.4437 28.445 17.0312 27.4869 17.0126 27.4478C16.9776 27.3649 16.8844 27.3257 16.8005 27.3603C16.7166 27.3948 16.677 27.4892 16.7119 27.5698C16.8914 28.0005 17.495 28.7651 18.4925 28.5809C19.4923 28.3967 19.7743 27.4685 19.7836 27.0033C19.7836 26.9135 19.7137 26.8398 19.6251 26.8398Z" fill="#24393A"/>
<path d="M34.8409 21.6028L22.1463 23.9451C22.0578 23.9612 21.9995 24.0464 22.0158 24.1339L22.2699 25.472L21.4239 26.2597C21.3842 26.2965 21.3656 26.3518 21.3749 26.407C21.3842 26.4623 21.4215 26.5061 21.4728 26.5268L22.5495 26.9598L22.8036 28.2979C22.8199 28.3854 22.9061 28.443 22.9947 28.4268L35.6893 26.0846C35.7778 26.0685 35.8361 25.9833 35.8198 25.8958L35.0321 21.7295C35.0157 21.642 34.9295 21.5844 34.8433 21.6005L34.8409 21.6028ZM35.4679 25.799L23.0949 28.0837L22.8548 26.817C22.8455 26.7617 22.8082 26.718 22.7569 26.6972L21.8317 26.3241L22.5565 25.647C22.5961 25.6102 22.6148 25.5549 22.6055 25.4996L22.3654 24.233L34.7384 21.9483L35.4655 25.799H35.4679Z" fill="#24393A"/>
<path d="M23.8761 26.1098L27.6003 25.4235C27.6889 25.4073 27.7472 25.3221 27.7308 25.2346C27.7145 25.1471 27.6283 25.0895 27.5421 25.1056L23.8178 25.792C23.7293 25.8081 23.671 25.8933 23.6873 25.9808C23.7036 26.0683 23.7899 26.1259 23.8761 26.1098Z" fill="#24393A"/>
<path d="M28.4298 25.2694L30.1801 24.947C30.2686 24.9308 30.3269 24.8456 30.3106 24.7581C30.2943 24.6706 30.208 24.613 30.1218 24.6291L28.3715 24.9516C28.283 24.9677 28.2247 25.0529 28.241 25.1404C28.2573 25.2279 28.3436 25.2855 28.4298 25.2694Z" fill="#24393A"/>
<path d="M30.9239 24.8131L32.5996 24.5045C32.6882 24.4884 32.7464 24.4032 32.7301 24.3156C32.7138 24.2281 32.6276 24.1705 32.5413 24.1867L30.8657 24.4953C30.7771 24.5114 30.7188 24.5966 30.7352 24.6841C30.7515 24.7716 30.8377 24.8292 30.9263 24.8131H30.9239Z" fill="#24393A"/>
<path d="M18.8257 30.3406C17.2176 30.6377 16.1549 32.1761 16.4578 33.7675C16.7608 35.359 18.313 36.4161 19.9187 36.119C21.5268 35.8219 22.5896 34.2834 22.2866 32.692C21.9859 31.0983 20.4338 30.0435 18.8257 30.3406ZM19.8581 35.8034C18.4272 36.0683 17.0451 35.1286 16.7771 33.71C16.5091 32.2913 17.4553 30.9232 18.8863 30.6584C20.3173 30.3935 21.6993 31.3332 21.9673 32.7519C22.2353 34.1706 21.2891 35.5386 19.8581 35.8034Z" fill="#24393A"/>
<path d="M20.0023 33.102C20.0908 33.0859 20.1491 33.0007 20.1328 32.9132L19.9137 31.7501C19.8974 31.6626 19.8112 31.6051 19.7226 31.6212C19.634 31.6373 19.5758 31.7225 19.5921 31.81L19.8112 32.9731C19.8275 33.0606 19.9137 33.1182 19.9999 33.102H20.0023Z" fill="#24393A"/>
<path d="M18.7376 33.3365C18.8262 33.3204 18.8845 33.2352 18.8681 33.1477L18.6491 31.9846C18.6327 31.8971 18.5465 31.8395 18.458 31.8557C18.3694 31.8718 18.3111 31.957 18.3274 32.0445L18.5465 33.2076C18.5628 33.2951 18.6491 33.3527 18.7353 33.3365H18.7376Z" fill="#24393A"/>
<path d="M36.0187 27.837L23.3241 30.1793C23.2355 30.1954 23.1772 30.2806 23.1936 30.3681L23.4476 31.7062L22.6016 32.4938C22.562 32.5307 22.5433 32.586 22.5527 32.6412C22.562 32.6965 22.5993 32.7403 22.6505 32.761L23.7273 33.194L23.9813 34.5321C23.9976 34.6196 24.0838 34.6772 24.1724 34.661L36.867 32.3188C36.9556 32.3027 37.0138 32.2175 36.9975 32.13L36.2098 27.9637C36.1935 27.8762 36.1072 27.8186 36.021 27.8347L36.0187 27.837ZM36.6456 32.0332L24.2726 34.3179L24.0326 33.0512C24.0232 32.9959 23.986 32.9522 23.9347 32.9314L23.0094 32.5583L23.7343 31.8812C23.7739 31.8444 23.7925 31.7891 23.7832 31.7338L23.5431 30.4671L35.9161 28.1825L36.6433 32.0332H36.6456Z" fill="#24393A"/>
<path d="M20.8673 33.4011L18.0776 34.3983C17.9937 34.4283 17.9495 34.5204 17.9798 34.6056C18.0077 34.6816 18.0846 34.7231 18.1615 34.7092C18.1709 34.7092 18.1779 34.7046 18.1872 34.7023L20.9769 33.7051C21.0608 33.6752 21.1051 33.583 21.0748 33.4978C21.0445 33.4149 20.9512 33.3712 20.8673 33.4011Z" fill="#24393A"/>
<path d="M24.7457 31.9042L31.2666 30.6996C31.3552 30.6835 31.4135 30.5983 31.3972 30.5108C31.3808 30.4233 31.2946 30.3657 31.2084 30.3818L24.6874 31.5863C24.5989 31.6025 24.5406 31.6877 24.5569 31.7752C24.5733 31.8627 24.6595 31.9203 24.7457 31.9042Z" fill="#24393A"/>
<path d="M24.978 33.1342L32.3216 31.7777C32.4102 31.7616 32.4685 31.6764 32.4522 31.5889C32.4358 31.5014 32.3496 31.4438 32.261 31.4599L24.9174 32.8164C24.8289 32.8325 24.7706 32.9178 24.7869 33.0053C24.8032 33.0928 24.8895 33.1504 24.9757 33.1342H24.978Z" fill="#24393A"/>
<path d="M16.4111 17.5721C14.8031 17.8692 13.7403 19.4077 14.0433 20.9991C14.3439 22.5928 15.8961 23.6476 17.5042 23.3505C19.1123 23.0534 20.175 21.5173 19.872 19.9236C19.5714 18.3298 18.0192 17.275 16.4111 17.5721ZM17.4436 23.035C16.0126 23.2999 14.6306 22.3602 14.3626 20.9415C14.0946 19.5228 15.0408 18.1548 16.4717 17.89C17.9027 17.6251 19.2847 18.5648 19.5528 19.9835C19.8208 21.4021 18.8746 22.7702 17.4436 23.035Z" fill="#24393A"/>
<path d="M16.3231 20.5686C16.4116 20.5524 16.4699 20.4672 16.4536 20.3797L16.2345 19.2143C16.2182 19.1268 16.132 19.0693 16.0434 19.0854C15.9548 19.1015 15.8966 19.1867 15.9129 19.2742L16.132 20.4396C16.1483 20.5271 16.2345 20.5847 16.3207 20.5686H16.3231Z" fill="#24393A"/>
<path d="M17.5877 20.336C17.6763 20.3199 17.7345 20.2347 17.7182 20.1472L17.4992 18.9818C17.4828 18.8943 17.3966 18.8367 17.3081 18.8529C17.2195 18.869 17.1612 18.9542 17.1775 19.0417L17.3966 20.2071C17.4129 20.2946 17.4992 20.3522 17.5854 20.336H17.5877Z" fill="#24393A"/>
<path d="M18.4179 20.6283L15.6585 21.1373C15.6096 21.1465 15.57 21.1765 15.5443 21.2179C15.521 21.2594 15.5187 21.3124 15.5373 21.3561C15.7168 21.7868 16.3204 22.5514 17.3179 22.3672C18.3154 22.1829 18.5997 21.2548 18.609 20.7896C18.609 20.7412 18.5904 20.6951 18.5508 20.6629C18.5135 20.6306 18.4645 20.6191 18.4156 20.626L18.4179 20.6283ZM17.2596 22.0516C16.5278 22.1875 16.1107 21.6947 15.9359 21.416L18.2641 20.9853C18.2058 21.3078 17.9961 21.9158 17.262 22.0516H17.2596Z" fill="#24393A"/>
<path d="M33.6061 15.0689L20.9115 17.4111C20.8229 17.4272 20.7647 17.5124 20.781 17.5999L21.035 18.938L20.189 19.7257C20.1494 19.7625 20.1307 19.8178 20.1401 19.8731C20.1494 19.9283 20.1867 19.9721 20.2379 19.9928L21.3147 20.4258L21.5687 21.7639C21.585 21.8514 21.6712 21.909 21.7598 21.8928L34.4544 19.5506C34.543 19.5345 34.6012 19.4493 34.5849 19.3618L33.7972 15.1955C33.7809 15.108 33.6946 15.0504 33.6084 15.0665L33.6061 15.0689ZM34.233 19.265L21.86 21.5497L21.62 20.283C21.6106 20.2277 21.5734 20.184 21.5221 20.1632L20.5969 19.7901L21.3217 19.113C21.3613 19.0762 21.3799 19.0209 21.3706 18.9656L21.1306 17.699L33.5035 15.4143L34.2307 19.265H34.233Z" fill="#24393A"/>
<path d="M22.6407 19.5782L23.6475 19.3917C23.7361 19.3755 23.7944 19.2903 23.778 19.2028C23.7617 19.1153 23.6755 19.0577 23.5893 19.0738L22.5825 19.2604C22.4939 19.2765 22.4356 19.3617 22.452 19.4492C22.4683 19.5368 22.5545 19.5943 22.6407 19.5782Z" fill="#24393A"/>
<path d="M24.5566 19.2236L31.9958 17.851C32.0844 17.8348 32.1426 17.7496 32.1263 17.6621C32.11 17.5746 32.0238 17.517 31.9352 17.5331L24.496 18.9058C24.4075 18.9219 24.3492 19.0071 24.3655 19.0946C24.3818 19.1821 24.4681 19.2397 24.5543 19.2236H24.5566Z" fill="#24393A"/>
</g>
</g>
<defs>
<filter id="filter0_d_50_1235" x="1.07568" y="5.08752" width="47.9238" height="47.9126" filterUnits="userSpaceOnUse" color-interpolation-filters="sRGB">
<feFlood flood-opacity="0" result="BackgroundImageFix"/>
<feColorMatrix in="SourceAlpha" type="matrix" values="0 0 0 0 0 0 0 0 0 0 0 0 0 0 0 0 0 0 127 0" result="hardAlpha"/>
<feOffset dy="4"/>
<feGaussianBlur stdDeviation="2"/>
<feComposite in2="hardAlpha" operator="out"/>
<feColorMatrix type="matrix" values="0 0 0 0 0 0 0 0 0 0 0 0 0 0 0 0 0 0 0.2 0"/>
<feBlend mode="normal" in2="BackgroundImageFix" result="effect1_dropShadow_50_1235"/>
<feBlend mode="normal" in="SourceGraphic" in2="effect1_dropShadow_50_1235" result="shape"/>
</filter>
<clipPath id="clip0_50_1235">
<rect width="50" height="50" rx="10" fill="white"/>
</clipPath>
</defs>
</svg>
