<svg width="50" height="50" viewBox="0 0 50 50" fill="none" xmlns="http://www.w3.org/2000/svg">
<g clip-path="url(#clip0_50_1307)">
<g filter="url(#filter0_d_50_1307)">
<mask id="mask0_50_1307" style="mask-type:luminance" maskUnits="userSpaceOnUse" x="5" y="6" width="40" height="39">
<path d="M45 6.3838H5.18506V45H45V6.3838Z" fill="white"/>
</mask>
<g mask="url(#mask0_50_1307)">
<path fill-rule="evenodd" clip-rule="evenodd" d="M5.24512 11.5015H5.24762C5.36515 16.4536 6.02281 21.9321 7.01556 27.3587C8.11083 33.3585 9.61371 39.3041 11.2466 44.402L11.2516 44.4193C11.3616 44.827 11.8168 45.0766 12.2669 44.9802L44.3249 37.9845L44.3499 37.9795C44.8025 37.8856 45.0851 37.4779 44.98 37.0702C43.6972 32.0513 42.6695 27.0448 41.8793 22.0458C41.0916 17.0615 40.5439 12.1094 40.2264 7.18938C40.2264 7.14737 40.2264 7.10536 40.2164 7.06335C40.1563 6.66303 39.7712 6.36649 39.3186 6.41097C39.2761 6.41592 39.2361 6.42333 39.1936 6.42827L15.8828 9.5147C14.6625 9.65803 5.21761 10.2585 5.24762 11.5015" fill="#4E888A"/>
</g>
<path fill-rule="evenodd" clip-rule="evenodd" d="M14.6723 40.9276C14.5723 40.4803 14.8574 40.0405 15.31 39.9416L40.1012 34.5323C40.5538 34.4335 40.9989 34.7152 41.0989 35.1625C41.199 35.6073 40.9139 36.0496 40.4613 36.1485L15.6701 41.5577C15.2175 41.6566 14.7724 41.3749 14.6723 40.9276Z" fill="#386264"/>
<path fill-rule="evenodd" clip-rule="evenodd" d="M9.54343 17.8943C9.46341 17.4421 9.77099 17.0121 10.2261 16.933L35.0448 12.6555C35.5024 12.5764 35.9375 12.8779 36.0175 13.3301C36.0976 13.7823 35.79 14.2123 35.3349 14.2914L10.5137 18.5664C10.0561 18.6455 9.62095 18.344 9.54093 17.8918" fill="#386264"/>
<path d="M12.9418 13.7923L11.7765 11.5856L10.7537 11.4472L10.6162 12.4702L12.4642 14.1728L12.9418 13.7923Z" fill="#B0BEC5"/>
<mask id="mask1_50_1307" style="mask-type:luminance" maskUnits="userSpaceOnUse" x="5" y="5" width="10" height="10">
<path d="M14.3348 5H5V14.1431H14.3348V5Z" fill="white"/>
</mask>
<g mask="url(#mask1_50_1307)">
<path d="M6.2553 5.53128C6.89546 5.12601 7.61063 5.01728 8.30331 5.12848C9.01598 5.24216 9.69866 5.598 10.2388 6.10458L11.1615 6.967C11.3816 7.16963 11.4266 7.47111 11.2991 7.71328C11.249 7.83683 11.2265 7.95545 11.234 8.06665C11.2415 8.16302 11.274 8.25198 11.3341 8.32859C11.4091 8.42743 11.5291 8.49415 11.6716 8.53122C11.8567 8.58064 12.0793 8.57817 12.3093 8.52628C12.5944 8.45956 12.882 8.55099 13.057 8.74126L13.9497 9.57897C14.2348 9.84338 14.2248 10.2659 13.9297 10.5229C13.8872 10.56 13.8447 10.5897 13.7972 10.6168L8.88595 13.7082C8.55087 13.9207 8.08825 13.8466 7.8557 13.5427C7.82069 13.4957 7.79068 13.4487 7.77067 13.3993L7.21553 12.3664H7.21303C7.0905 12.1366 7.12551 11.8746 7.28305 11.6819C7.41308 11.5064 7.4856 11.3261 7.49811 11.163C7.50811 11.0295 7.4756 10.9035 7.39808 10.8022C7.34057 10.728 7.26055 10.6712 7.16302 10.6317C7.03799 10.5822 6.89045 10.5575 6.73041 10.5625C6.40533 10.5724 6.12526 10.392 6.01523 10.135L5.4651 9.10699C5.13001 8.47191 4.99748 7.77258 5.12251 7.13256C5.24504 6.5049 5.60763 5.93901 6.25279 5.53128" fill="#FFAC06"/>
</g>
<path d="M11.3217 7.65648C11.3142 7.67625 11.3042 7.69355 11.2967 7.71331C11.2466 7.83687 11.2266 7.95548 11.2341 8.06668C11.2416 8.16306 11.2741 8.25202 11.3342 8.32862C11.4092 8.42747 11.5292 8.49419 11.6717 8.53126C11.8593 8.58068 12.0794 8.57821 12.3094 8.52631C12.3544 8.51396 12.3994 8.50902 12.4444 8.50654L7.28565 11.6992L7.29566 11.6893C7.42319 11.5139 7.49821 11.3335 7.51071 11.1679C7.52071 11.0345 7.4882 10.9085 7.41068 10.8072C7.35317 10.733 7.27315 10.6762 7.17563 10.6367C7.05059 10.5872 6.90306 10.5625 6.74302 10.5675C6.70301 10.5699 6.663 10.5675 6.62549 10.5675L11.3267 7.65895" fill="#F98903"/>
<path fill-rule="evenodd" clip-rule="evenodd" d="M20.9688 19.4116L26.7628 18.1686C27.1929 18.0772 27.6005 18.3366 27.6955 18.7666L28.3407 21.7072C28.4357 22.1347 28.1731 22.54 27.743 22.6339L26.7803 22.8415C26.6103 22.8785 26.5027 23.0441 26.5402 23.2146L26.7503 24.1759C26.7903 24.3612 26.6528 24.376 26.5577 24.292L25.4225 23.269C25.3474 23.1998 25.2424 23.1726 25.1424 23.1924L21.9491 23.8769C21.5215 23.9683 21.1089 23.7064 21.0164 23.2789L20.3712 20.3382C20.2762 19.9083 20.5387 19.503 20.9688 19.4116ZM20.8338 18.8012C20.0711 18.9643 19.5885 19.7155 19.7535 20.4717L20.3987 23.4123C20.5637 24.1685 21.3239 24.6503 22.0841 24.4872L25.1174 23.8373L26.1326 24.7541C26.4002 24.9963 26.7603 25.063 27.0329 24.9296C27.3054 24.7937 27.458 24.4675 27.3904 24.1512L27.2229 23.3851L27.8781 23.2443C28.6408 23.0812 29.1259 22.33 28.9608 21.5738L28.3157 18.6332C28.1506 17.877 27.3929 17.3927 26.6303 17.5582L20.8363 18.8012H20.8338Z" fill="#002D2D"/>
<path fill-rule="evenodd" clip-rule="evenodd" d="M20.0412 25.1273C20.3413 26.4864 19.4735 27.8307 18.1032 28.1223C16.7329 28.4138 15.38 27.5514 15.0824 26.1898C14.9374 25.535 15.0624 24.853 15.4275 24.2895C15.7901 23.7286 16.3628 23.3332 17.0229 23.1924C17.6831 23.0515 18.3683 23.1751 18.9359 23.5383C19.5011 23.9016 19.9012 24.4724 20.0437 25.1273H20.0412Z" fill="#002D2D"/>
<path fill-rule="evenodd" clip-rule="evenodd" d="M35.0701 22.0878C35.3702 23.4469 34.5 24.7912 33.1321 25.0853C32.4745 25.2261 31.7868 25.1026 31.2191 24.7393C30.654 24.376 30.2539 23.8052 30.1089 23.1528C29.9638 22.5005 30.0889 21.816 30.4515 21.2525C30.814 20.6916 31.3892 20.2962 32.0469 20.1554C33.4172 19.8613 34.77 20.7262 35.0676 22.0878H35.0701Z" fill="#002D2D"/>
<path fill-rule="evenodd" clip-rule="evenodd" d="M33.4298 26.4469C34.7926 26.1553 36.1154 26.993 36.408 28.3274L37.1882 31.8809C37.3157 32.4665 36.9482 33.0299 36.358 33.156L31.4393 34.2111C31.2642 34.2482 31.1242 34.2161 31.0142 34.1123C30.7266 33.8503 30.6991 33.5365 30.7866 33.2103C30.8266 33.0596 30.9592 32.9533 31.1642 32.8916L34.415 31.8759C34.7126 31.782 34.9101 31.6288 34.9952 31.4336C35.0827 31.2359 35.0577 31.0308 35.0152 30.8405L34.5175 28.5794C34.4775 28.3373 34.2125 28.3941 34.2775 28.6313L34.6701 30.9147C34.7326 31.2779 34.5776 31.4583 34.3075 31.5423L32.3895 32.1428C32.2095 32.1996 32.1069 32.1033 32.0769 31.9624L31.5093 29.3776C31.2167 28.0432 32.0694 26.7385 33.4298 26.4469Z" fill="#002D2D"/>
<path fill-rule="evenodd" clip-rule="evenodd" d="M18.4032 29.4863C19.7636 29.1947 21.0864 30.0324 21.379 31.3669L21.6415 32.5604C21.7566 33.0818 21.0939 33.4204 20.7213 33.0571L19.346 31.7326C19.1859 31.5769 19.0334 31.7252 19.1759 31.8833L20.4562 33.2919C20.5888 33.4377 20.7463 33.576 20.9564 33.6205C21.1689 33.6625 21.404 33.5933 21.6565 33.4129L24.0071 31.7178C24.1822 31.5917 24.3422 31.5695 24.4973 31.6016C24.6523 31.6337 24.8023 31.7326 24.9149 31.8611C25.0274 31.992 25.0974 32.1527 25.1049 32.3009C25.1124 32.4492 25.0699 32.5851 24.9374 32.7013L23.447 34.0431L23.4395 34.048C23.4395 34.048 23.4245 34.0604 23.4195 34.0678L21.584 35.7185C21.1364 36.1213 20.4562 36.0892 20.0511 35.6468L17.8556 33.277C17.6981 33.0744 17.468 33.2721 17.658 33.4475L19.7886 35.8816C19.9636 36.0818 19.9161 36.2251 19.606 36.2918L17.4355 36.7588L16.4828 32.4196C16.1902 31.0851 17.0429 29.7804 18.4032 29.4888V29.4863Z" fill="#002D2D"/>
<path fill-rule="evenodd" clip-rule="evenodd" d="M23.5797 29.2787L25.8302 28.7969C26.0603 28.7475 26.2053 28.8908 26.2203 29.0909L26.5954 34.2951C26.6104 34.4928 26.5579 34.5694 26.2778 34.6287L24.0548 35.1056C23.8797 35.1427 23.8022 35.0711 23.7922 34.9203L23.7522 34.3841C23.7422 34.2408 23.7597 34.2408 23.8397 34.1691L25.1851 32.9607C25.3926 32.7729 25.4801 32.5209 25.4676 32.2836C25.4526 32.0439 25.3501 31.8191 25.1926 31.6337C25.0375 31.4484 24.825 31.3075 24.5799 31.2556C24.3324 31.2037 24.0573 31.2532 23.8097 31.4311L23.6972 31.5126C23.5872 31.5917 23.5497 31.4978 23.5447 31.4434L23.4046 29.5061C23.3971 29.3899 23.3971 29.3208 23.5872 29.2787H23.5797Z" fill="#002D2D"/>
</g>
</g>
<defs>
<filter id="filter0_d_50_1307" x="1.07617" y="5.08748" width="47.9238" height="47.9125" filterUnits="userSpaceOnUse" color-interpolation-filters="sRGB">
<feFlood flood-opacity="0" result="BackgroundImageFix"/>
<feColorMatrix in="SourceAlpha" type="matrix" values="0 0 0 0 0 0 0 0 0 0 0 0 0 0 0 0 0 0 127 0" result="hardAlpha"/>
<feOffset dy="4"/>
<feGaussianBlur stdDeviation="2"/>
<feComposite in2="hardAlpha" operator="out"/>
<feColorMatrix type="matrix" values="0 0 0 0 0 0 0 0 0 0 0 0 0 0 0 0 0 0 0.19 0"/>
<feBlend mode="normal" in2="BackgroundImageFix" result="effect1_dropShadow_50_1307"/>
<feBlend mode="normal" in="SourceGraphic" in2="effect1_dropShadow_50_1307" result="shape"/>
</filter>
<clipPath id="clip0_50_1307">
<rect width="50" height="50" rx="10" fill="white"/>
</clipPath>
</defs>
</svg>
