<svg width="54" height="54" viewBox="0 0 54 54" fill="none" xmlns="http://www.w3.org/2000/svg">
<g clip-path="url(#clip0_50_1335)">
<g filter="url(#filter0_d_50_1335)">
<g filter="url(#filter1_d_50_1335)">
<mask id="mask0_50_1335" style="mask-type:luminance" maskUnits="userSpaceOnUse" x="7" y="8" width="40" height="39">
<path d="M47 8.3838H7.18506V47H47V8.3838Z" fill="white"/>
</mask>
<g mask="url(#mask0_50_1335)">
<path fill-rule="evenodd" clip-rule="evenodd" d="M7.24512 13.5015H7.24762C7.36515 18.4536 8.02281 23.9321 9.01556 29.3587C10.1108 35.3586 11.6137 41.3041 13.2466 46.402L13.2516 46.4193C13.3616 46.827 13.8168 47.0766 14.2669 46.9802L46.3249 39.9845L46.3499 39.9795C46.8025 39.8856 47.0851 39.4779 46.98 39.0702C45.6972 34.0513 44.6695 29.0448 43.8793 24.0458C43.0916 19.0615 42.5439 14.1094 42.2264 9.18939C42.2264 9.14738 42.2264 9.10537 42.2164 9.06336C42.1563 8.66304 41.7712 8.3665 41.3186 8.41098C41.2761 8.41592 41.2361 8.42334 41.1936 8.42828L17.8828 11.5147C16.6625 11.658 7.21761 12.2585 7.24762 13.5015" fill="#4E888A"/>
</g>
<path fill-rule="evenodd" clip-rule="evenodd" d="M15.0595 38.4055C14.9595 37.9582 15.2446 37.5184 15.6972 37.4195L40.4884 32.0102C40.941 31.9114 41.3861 32.1931 41.4862 32.6404C41.5862 33.0852 41.3011 33.5275 40.8485 33.6263L16.0573 39.0356C15.6047 39.1345 15.1596 38.8528 15.0595 38.4055Z" fill="#386264"/>
<path fill-rule="evenodd" clip-rule="evenodd" d="M17.0524 26.0647L18.8903 25.6891L20.1932 30.9131C20.3632 31.5951 20.4257 32.1338 20.3857 32.5292C20.3282 33.0456 20.1006 33.4978 19.703 33.8833C19.3054 34.2713 18.7228 34.5407 17.9576 34.6963C17.0549 34.8792 16.3072 34.7952 15.7045 34.4369C15.1044 34.081 14.6918 33.4632 14.4692 32.5811L16.1622 32.0473C16.3022 32.5168 16.4597 32.8331 16.6423 33.0036C16.9174 33.2581 17.2574 33.3446 17.6625 33.2631C18.0726 33.1791 18.3377 33.0135 18.4552 32.7664C18.5728 32.5218 18.5503 32.0646 18.3827 31.3949L17.0524 26.0672V26.0647ZM32.9739 24.2682L33.449 26.1759L34.6568 25.9313C35.377 25.7855 35.8196 25.6842 35.9896 25.6298C36.2972 25.531 36.5222 25.3852 36.6598 25.1825C36.7998 24.9824 36.8348 24.7501 36.7698 24.4832C36.7048 24.2287 36.5773 24.0359 36.3822 23.9074C36.1847 23.7814 35.9296 23.732 35.6145 23.7616C35.427 23.7789 34.8993 23.8753 34.0316 24.0532L32.9739 24.2707V24.2682ZM25.2369 25.7459C24.4767 25.9016 23.9216 26.2624 23.574 26.8283C23.2264 27.3942 23.1714 28.1503 23.409 29.1017C23.6415 30.0358 24.0591 30.6931 24.6543 31.0811C25.2544 31.4641 25.9196 31.5827 26.6548 31.432C27.3875 31.2837 27.9326 30.9205 28.2852 30.3447C28.6353 29.7714 28.6928 29.0053 28.4552 28.049C28.2202 27.1051 27.8151 26.4453 27.2399 26.0721C26.6648 25.699 25.9971 25.5927 25.2369 25.7459ZM30.7858 23.2699L34.4367 22.5261C35.1594 22.3803 35.707 22.2963 36.0771 22.2814C36.4447 22.2617 36.7898 22.3111 37.1149 22.4272C37.44 22.5434 37.7276 22.7238 37.9876 22.9733C38.2452 23.2229 38.4202 23.5244 38.5077 23.8802C38.6053 24.2657 38.5778 24.6438 38.4277 25.0145C38.2777 25.3827 38.0251 25.6891 37.67 25.9313C38.2602 25.9634 38.7528 26.1265 39.1404 26.4156C39.528 26.7097 39.7806 27.0927 39.9006 27.5696C39.9956 27.9452 39.9881 28.3283 39.8856 28.7236C39.7806 29.1165 39.588 29.4526 39.3054 29.7319C39.0229 30.0111 38.6428 30.2261 38.1652 30.3768C37.8676 30.4658 37.1299 30.6363 35.9546 30.8859L32.8463 31.5185L30.7883 23.2699H30.7858ZM21.5235 29.5416C21.3134 28.7014 21.2759 27.9675 21.4135 27.3398C21.5185 26.8802 21.706 26.4428 21.9811 26.0351C22.2587 25.6298 22.5888 25.3036 22.9764 25.054C23.4915 24.7204 24.1217 24.4783 24.8643 24.3275C26.2097 24.0532 27.38 24.2114 28.3777 24.802C29.373 25.3901 30.0406 26.3563 30.3732 27.6981C30.7058 29.0325 30.5633 30.1544 29.9506 31.0712C29.3355 31.9855 28.3577 32.5786 27.0199 32.8529C25.6595 33.1296 24.4867 32.974 23.499 32.3908C22.5112 31.8027 21.8536 30.8537 21.526 29.5416H21.5235ZM36.9474 27.0285C36.6773 27.0013 36.1196 27.0729 35.2819 27.2434L33.7941 27.5474L34.3442 29.7516L36.0496 29.4032C36.7148 29.2673 37.1324 29.166 37.3024 29.0968C37.5675 28.9979 37.7626 28.8398 37.8901 28.6322C38.0201 28.4222 38.0476 28.1701 37.9751 27.8785C37.9126 27.6314 37.7926 27.4362 37.6175 27.2879C37.44 27.1421 37.2174 27.0556 36.9474 27.0285Z" fill="#1C2626"/>
<path fill-rule="evenodd" clip-rule="evenodd" d="M12.164 22.8621C12.084 22.4099 12.3916 21.9799 12.8467 21.9008L37.6654 17.6233C38.123 17.5443 38.5581 17.8457 38.6382 18.2979C38.7182 18.7502 38.4106 19.1801 37.9555 19.2592L13.1368 23.5367C12.6792 23.6158 12.2441 23.3143 12.164 22.8621Z" fill="#386264"/>
<path d="M14.9418 15.7923L13.7765 13.5856L12.7537 13.4472L12.6162 14.4702L14.4642 16.1728L14.9418 15.7923Z" fill="#B0BEC5"/>
<mask id="mask1_50_1335" style="mask-type:luminance" maskUnits="userSpaceOnUse" x="7" y="7" width="10" height="10">
<path d="M16.3348 7H7V16.1431H16.3348V7Z" fill="white"/>
</mask>
<g mask="url(#mask1_50_1335)">
<path d="M8.2553 7.53128C8.89546 7.12601 9.61063 7.01728 10.3033 7.12848C11.016 7.24216 11.6987 7.598 12.2388 8.10458L13.1615 8.967C13.3816 9.16963 13.4266 9.47111 13.2991 9.71328C13.249 9.83683 13.2265 9.95545 13.234 10.0666C13.2415 10.163 13.274 10.252 13.3341 10.3286C13.4091 10.4274 13.5291 10.4942 13.6716 10.5312C13.8567 10.5806 14.0793 10.5782 14.3093 10.5263C14.5944 10.4596 14.882 10.551 15.057 10.7413L15.9497 11.579C16.2348 11.8434 16.2248 12.2659 15.9297 12.5229C15.8872 12.56 15.8447 12.5897 15.7972 12.6168L10.886 15.7082C10.5509 15.9207 10.0883 15.8466 9.8557 15.5427C9.82069 15.4957 9.79068 15.4487 9.77067 15.3993L9.21553 14.3664H9.21303C9.0905 14.1366 9.12551 13.8746 9.28305 13.6819C9.41308 13.5064 9.4856 13.3261 9.49811 13.163C9.50811 13.0295 9.4756 12.9035 9.39808 12.8022C9.34057 12.728 9.26055 12.6712 9.16302 12.6317C9.03799 12.5822 8.89045 12.5575 8.73041 12.5625C8.40533 12.5724 8.12526 12.392 8.01523 12.135L7.4651 11.107C7.13001 10.4719 6.99748 9.77258 7.12251 9.13256C7.24504 8.5049 7.60763 7.93901 8.25279 7.53128" fill="#FFAC06"/>
</g>
<path d="M13.3217 9.65649C13.3142 9.67626 13.3042 9.69355 13.2967 9.71332C13.2466 9.83688 13.2266 9.95549 13.2341 10.0667C13.2416 10.1631 13.2741 10.252 13.3342 10.3286C13.4092 10.4275 13.5292 10.4942 13.6717 10.5313C13.8593 10.5807 14.0794 10.5782 14.3094 10.5263C14.3544 10.514 14.3994 10.509 14.4444 10.5066L9.28565 13.6992L9.29566 13.6894C9.42319 13.5139 9.49821 13.3335 9.51071 13.1679C9.52071 13.0345 9.4882 12.9085 9.41068 12.8072C9.35317 12.733 9.27315 12.6762 9.17563 12.6367C9.05059 12.5872 8.90306 12.5625 8.74302 12.5675C8.70301 12.5699 8.663 12.5675 8.62549 12.5675L13.3267 9.65896" fill="#F98903"/>
</g>
</g>
</g>
<rect x="1" y="1" width="52" height="52" rx="11" stroke="#FFAC06" stroke-opacity="0.89" stroke-width="2"/>
<defs>
<filter id="filter0_d_50_1335" x="3.07617" y="3.08748" width="47.9238" height="47.9125" filterUnits="userSpaceOnUse" color-interpolation-filters="sRGB">
<feFlood flood-opacity="0" result="BackgroundImageFix"/>
<feColorMatrix in="SourceAlpha" type="matrix" values="0 0 0 0 0 0 0 0 0 0 0 0 0 0 0 0 0 0 127 0" result="hardAlpha"/>
<feOffset/>
<feGaussianBlur stdDeviation="2"/>
<feComposite in2="hardAlpha" operator="out"/>
<feColorMatrix type="matrix" values="0 0 0 0 0 0 0 0 0 0 0 0 0 0 0 0 0 0 0.19 0"/>
<feBlend mode="normal" in2="BackgroundImageFix" result="effect1_dropShadow_50_1335"/>
<feBlend mode="normal" in="SourceGraphic" in2="effect1_dropShadow_50_1335" result="shape"/>
</filter>
<filter id="filter1_d_50_1335" x="3.07617" y="7.08748" width="47.9238" height="47.9125" filterUnits="userSpaceOnUse" color-interpolation-filters="sRGB">
<feFlood flood-opacity="0" result="BackgroundImageFix"/>
<feColorMatrix in="SourceAlpha" type="matrix" values="0 0 0 0 0 0 0 0 0 0 0 0 0 0 0 0 0 0 127 0" result="hardAlpha"/>
<feOffset dy="4"/>
<feGaussianBlur stdDeviation="2"/>
<feComposite in2="hardAlpha" operator="out"/>
<feColorMatrix type="matrix" values="0 0 0 0 0 0 0 0 0 0 0 0 0 0 0 0 0 0 0.25 0"/>
<feBlend mode="normal" in2="BackgroundImageFix" result="effect1_dropShadow_50_1335"/>
<feBlend mode="normal" in="SourceGraphic" in2="effect1_dropShadow_50_1335" result="shape"/>
</filter>
<clipPath id="clip0_50_1335">
<rect x="2" y="2" width="50" height="50" rx="10" fill="white"/>
</clipPath>
</defs>
</svg>
