<svg width="48" height="49" viewBox="0 0 48 49" fill="none" xmlns="http://www.w3.org/2000/svg">
<g filter="url(#filter0_d_50_1336)">
<g filter="url(#filter1_d_50_1336)">
<mask id="mask0_50_1336" style="mask-type:luminance" maskUnits="userSpaceOnUse" x="4" y="5" width="40" height="39">
<path d="M44 5.3838H4.18506V44H44V5.3838Z" fill="white"/>
</mask>
<g mask="url(#mask0_50_1336)">
<path fill-rule="evenodd" clip-rule="evenodd" d="M4.24512 10.5015H4.24762C4.36515 15.4536 5.02281 20.9321 6.01556 26.3587C7.11083 32.3586 8.61371 38.3041 10.2466 43.402L10.2516 43.4193C10.3616 43.827 10.8168 44.0766 11.2669 43.9802L43.3249 36.9845L43.3499 36.9795C43.8025 36.8856 44.0851 36.4779 43.98 36.0702C42.6972 31.0513 41.6695 26.0448 40.8793 21.0458C40.0916 16.0615 39.5439 11.1094 39.2264 6.18939C39.2264 6.14738 39.2264 6.10537 39.2164 6.06336C39.1563 5.66304 38.7712 5.3665 38.3186 5.41098C38.2761 5.41592 38.2361 5.42334 38.1936 5.42828L14.8828 8.51471C13.6625 8.65803 4.21761 9.25852 4.24762 10.5015" fill="#4E888A"/>
</g>
<path fill-rule="evenodd" clip-rule="evenodd" d="M12.0595 35.4055C11.9595 34.9582 12.2446 34.5184 12.6972 34.4195L37.4884 29.0102C37.941 28.9114 38.3861 29.1931 38.4862 29.6404C38.5862 30.0852 38.3011 30.5275 37.8485 30.6263L13.0573 36.0356C12.6047 36.1345 12.1596 35.8528 12.0595 35.4055Z" fill="#386264"/>
<path fill-rule="evenodd" clip-rule="evenodd" d="M14.0524 23.0647L15.8903 22.6891L17.1932 27.9131C17.3632 28.5951 17.4257 29.1338 17.3857 29.5292C17.3282 30.0456 17.1006 30.4978 16.703 30.8833C16.3054 31.2713 15.7228 31.5407 14.9576 31.6963C14.0549 31.8792 13.3072 31.7952 12.7045 31.4369C12.1044 31.081 11.6918 30.4632 11.4692 29.5811L13.1622 29.0473C13.3022 29.5168 13.4597 29.8331 13.6423 30.0036C13.9174 30.2581 14.2574 30.3446 14.6625 30.2631C15.0726 30.1791 15.3377 30.0135 15.4552 29.7664C15.5728 29.5218 15.5503 29.0646 15.3827 28.3949L14.0524 23.0672V23.0647ZM29.9739 21.2682L30.449 23.1759L31.6568 22.9313C32.377 22.7855 32.8196 22.6842 32.9896 22.6298C33.2972 22.531 33.5222 22.3852 33.6598 22.1825C33.7998 21.9824 33.8348 21.7501 33.7698 21.4832C33.7048 21.2287 33.5773 21.0359 33.3822 20.9074C33.1847 20.7814 32.9296 20.732 32.6145 20.7616C32.427 20.7789 31.8993 20.8753 31.0316 21.0532L29.9739 21.2707V21.2682ZM22.2369 22.7459C21.4767 22.9016 20.9216 23.2624 20.574 23.8283C20.2264 24.3942 20.1714 25.1503 20.409 26.1017C20.6415 27.0358 21.0591 27.6931 21.6543 28.0811C22.2544 28.4641 22.9196 28.5827 23.6548 28.432C24.3875 28.2837 24.9326 27.9205 25.2852 27.3447C25.6353 26.7714 25.6928 26.0053 25.4552 25.049C25.2202 24.1051 24.8151 23.4453 24.2399 23.0721C23.6648 22.699 22.9971 22.5927 22.2369 22.7459ZM27.7858 20.2699L31.4367 19.5261C32.1594 19.3803 32.707 19.2963 33.0771 19.2814C33.4447 19.2617 33.7898 19.3111 34.1149 19.4272C34.44 19.5434 34.7276 19.7238 34.9876 19.9733C35.2452 20.2229 35.4202 20.5244 35.5077 20.8802C35.6053 21.2657 35.5778 21.6438 35.4277 22.0145C35.2777 22.3827 35.0251 22.6891 34.67 22.9313C35.2602 22.9634 35.7528 23.1265 36.1404 23.4156C36.528 23.7097 36.7806 24.0927 36.9006 24.5696C36.9956 24.9452 36.9881 25.3283 36.8856 25.7236C36.7806 26.1165 36.588 26.4526 36.3054 26.7319C36.0229 27.0111 35.6428 27.2261 35.1652 27.3768C34.8676 27.4658 34.1299 27.6363 32.9546 27.8859L29.8463 28.5185L27.7883 20.2699H27.7858ZM18.5235 26.5416C18.3134 25.7014 18.2759 24.9675 18.4135 24.3398C18.5185 23.8802 18.706 23.4428 18.9811 23.0351C19.2587 22.6298 19.5888 22.3036 19.9764 22.054C20.4915 21.7204 21.1217 21.4783 21.8643 21.3275C23.2097 21.0532 24.38 21.2114 25.3777 21.802C26.373 22.3901 27.0406 23.3563 27.3732 24.6981C27.7058 26.0325 27.5633 27.1544 26.9506 28.0712C26.3355 28.9855 25.3577 29.5786 24.0199 29.8529C22.6595 30.1296 21.4867 29.974 20.499 29.3908C19.5112 28.8027 18.8536 27.8537 18.526 26.5416H18.5235ZM33.9474 24.0285C33.6773 24.0013 33.1196 24.0729 32.2819 24.2434L30.7941 24.5474L31.3442 26.7516L33.0496 26.4032C33.7148 26.2673 34.1324 26.166 34.3024 26.0968C34.5675 25.9979 34.7626 25.8398 34.8901 25.6322C35.0201 25.4222 35.0476 25.1701 34.9751 24.8785C34.9126 24.6314 34.7926 24.4362 34.6175 24.2879C34.44 24.1421 34.2174 24.0556 33.9474 24.0285Z" fill="#1C2626"/>
<path fill-rule="evenodd" clip-rule="evenodd" d="M9.16403 19.8621C9.08401 19.4099 9.39159 18.9799 9.84671 18.9008L34.6654 14.6233C35.123 14.5443 35.5581 14.8457 35.6382 15.2979C35.7182 15.7502 35.4106 16.1801 34.9555 16.2592L10.1368 20.5367C9.67916 20.6158 9.24405 20.3143 9.16403 19.8621Z" fill="#386264"/>
<path d="M11.9418 12.7923L10.7765 10.5856L9.75375 10.4472L9.61621 11.4702L11.4642 13.1728L11.9418 12.7923Z" fill="#B0BEC5"/>
<mask id="mask1_50_1336" style="mask-type:luminance" maskUnits="userSpaceOnUse" x="4" y="4" width="10" height="10">
<path d="M13.3348 4H4V13.1431H13.3348V4Z" fill="white"/>
</mask>
<g mask="url(#mask1_50_1336)">
<path d="M5.2553 4.53128C5.89546 4.12601 6.61063 4.01728 7.30331 4.12848C8.01598 4.24216 8.69866 4.598 9.23879 5.10458L10.1615 5.967C10.3816 6.16963 10.4266 6.47111 10.2991 6.71328C10.249 6.83683 10.2265 6.95545 10.234 7.06665C10.2415 7.16302 10.274 7.25198 10.3341 7.32859C10.4091 7.42743 10.5291 7.49415 10.6716 7.53122C10.8567 7.58064 11.0793 7.57817 11.3093 7.52628C11.5944 7.45956 11.882 7.55099 12.057 7.74126L12.9497 8.57897C13.2348 8.84338 13.2248 9.26594 12.9297 9.52294C12.8872 9.56001 12.8447 9.58966 12.7972 9.61684L7.88595 12.7082C7.55087 12.9207 7.08825 12.8466 6.8557 12.5427C6.82069 12.4957 6.79068 12.4487 6.77067 12.3993L6.21553 11.3664H6.21303C6.0905 11.1366 6.12551 10.8746 6.28305 10.6819C6.41308 10.5064 6.4856 10.3261 6.49811 10.163C6.50811 10.0295 6.4756 9.90349 6.39808 9.80218C6.34057 9.72804 6.26055 9.67121 6.16302 9.63167C6.03799 9.58225 5.89045 9.55754 5.73041 9.56248C5.40533 9.57236 5.12526 9.39197 5.01523 9.13497L4.4651 8.10699C4.13001 7.47191 3.99748 6.77258 4.12251 6.13256C4.24504 5.5049 4.60763 4.93901 5.25279 4.53128" fill="#FFAC06"/>
</g>
<path d="M10.3217 6.65649C10.3142 6.67626 10.3042 6.69355 10.2967 6.71332C10.2466 6.83688 10.2266 6.95549 10.2341 7.06669C10.2416 7.16307 10.2741 7.25203 10.3342 7.32863C10.4092 7.42748 10.5292 7.4942 10.6717 7.53126C10.8593 7.58069 11.0794 7.57821 11.3094 7.52632C11.3544 7.51397 11.3994 7.50902 11.4444 7.50655L6.28565 10.6992L6.29566 10.6894C6.42319 10.5139 6.49821 10.3335 6.51071 10.1679C6.52071 10.0345 6.4882 9.90848 6.41068 9.80717C6.35317 9.73303 6.27315 9.6762 6.17563 9.63666C6.05059 9.58724 5.90306 9.56252 5.74302 9.56747C5.70301 9.56994 5.663 9.56747 5.62549 9.56747L10.3267 6.65896" fill="#F98903"/>
</g>
</g>
<defs>
<filter id="filter0_d_50_1336" x="0.0761719" y="0.0874786" width="47.9238" height="47.9125" filterUnits="userSpaceOnUse" color-interpolation-filters="sRGB">
<feFlood flood-opacity="0" result="BackgroundImageFix"/>
<feColorMatrix in="SourceAlpha" type="matrix" values="0 0 0 0 0 0 0 0 0 0 0 0 0 0 0 0 0 0 127 0" result="hardAlpha"/>
<feOffset/>
<feGaussianBlur stdDeviation="2"/>
<feComposite in2="hardAlpha" operator="out"/>
<feColorMatrix type="matrix" values="0 0 0 0 0 0 0 0 0 0 0 0 0 0 0 0 0 0 0.19 0"/>
<feBlend mode="normal" in2="BackgroundImageFix" result="effect1_dropShadow_50_1336"/>
<feBlend mode="normal" in="SourceGraphic" in2="effect1_dropShadow_50_1336" result="shape"/>
</filter>
<filter id="filter1_d_50_1336" x="0.0761719" y="4.08748" width="47.9238" height="47.9125" filterUnits="userSpaceOnUse" color-interpolation-filters="sRGB">
<feFlood flood-opacity="0" result="BackgroundImageFix"/>
<feColorMatrix in="SourceAlpha" type="matrix" values="0 0 0 0 0 0 0 0 0 0 0 0 0 0 0 0 0 0 127 0" result="hardAlpha"/>
<feOffset dy="4"/>
<feGaussianBlur stdDeviation="2"/>
<feComposite in2="hardAlpha" operator="out"/>
<feColorMatrix type="matrix" values="0 0 0 0 0 0 0 0 0 0 0 0 0 0 0 0 0 0 0.25 0"/>
<feBlend mode="normal" in2="BackgroundImageFix" result="effect1_dropShadow_50_1336"/>
<feBlend mode="normal" in="SourceGraphic" in2="effect1_dropShadow_50_1336" result="shape"/>
</filter>
</defs>
</svg>
