<svg width="64" height="78" viewBox="0 0 64 78" fill="none" xmlns="http://www.w3.org/2000/svg">
<path d="M18.9474 10.7249C18.8615 10.9362 18.7515 10.9123 18.7515 10.9123C18.7808 10.8714 18.806 10.8255 18.8262 10.7787C18.8666 10.7607 18.907 10.7428 18.9474 10.7249Z" fill="white"/>
<path d="M14.125 66.46C12.7696 65.5489 11.488 64.5351 10.2913 63.4307C11.2578 64.1573 12.8131 65.4004 14.125 66.46Z" fill="white"/>
<path d="M63.736 39.9276C63.736 39.9665 63.736 40.0044 63.736 40.0433C63.6865 54.2669 54.3587 66.2984 41.5012 70.3794C41.4982 70.3794 41.4962 70.3794 41.4942 70.3814C41.2023 70.4741 40.9074 70.5628 40.6115 70.6466C40.566 70.6595 40.5216 70.6725 40.4762 70.6854C40.5226 73.6998 40.4994 76.2357 40.3237 76.9624C40.3055 77.0382 40.2853 77.095 40.2631 77.1299C40.2611 77.1319 40.26 77.1329 40.26 77.1339C40.252 77.1468 40.2429 77.1568 40.2338 77.1628C40.2156 77.098 40.1974 77.0342 40.1843 76.9843C40.1691 76.9335 40.1601 76.8986 40.159 76.8956C39.9894 77.0152 39.7975 77.1737 39.5844 77.2924C39.3541 77.4209 39.1178 77.5525 38.8704 77.6363C38.0887 77.8157 37.004 77.9722 35.6537 77.9961C35.6315 77.9971 35.6103 77.9971 35.5881 77.9971H35.584C34.259 78.019 32.6835 77.9144 30.8889 77.5844C30.8777 77.5824 30.8666 77.5804 30.8555 77.5784C30.3445 77.4847 29.8163 77.3721 29.2709 77.2385C29.2689 77.2385 29.2679 77.2385 29.2669 77.2375C29.1114 77.1997 28.9548 77.1598 28.7963 77.1189C28.7953 77.1189 28.7942 77.1189 28.7942 77.1179C28.6983 77.093 28.6014 77.0671 28.5044 77.0402C27.9661 76.8936 27.4116 76.7272 26.8431 76.5388C26.841 76.5388 26.84 76.5378 26.838 76.5368C26.833 76.5358 26.8279 76.5338 26.8229 76.5318L26.7996 76.5238C26.733 76.5009 26.5926 76.452 26.3957 76.3813C25.9361 76.2178 25.1686 75.9387 24.3081 75.5978C23.9173 75.4433 23.5083 75.2758 23.0992 75.1013C21.7136 74.5102 20.3391 73.8344 19.7634 73.2782C19.7624 73.2782 19.7614 73.2782 19.7604 73.2762C19.6554 73.1735 19.5776 73.0758 19.5311 72.9831C19.522 72.9642 19.514 72.9452 19.5059 72.9263C19.5059 72.9263 19.5483 72.7608 19.5695 72.4897C19.6038 72.075 19.5897 71.4151 19.3039 70.7233C19.2362 70.5559 19.1514 70.3874 19.0474 70.2189L19.0464 70.2169C18.6101 69.5122 17.8405 68.8304 16.5033 68.3928H16.5023C16.4953 68.3858 16.4498 68.3489 16.3731 68.2861C16.0509 68.0219 15.1642 67.2983 14.126 66.4599C13.9169 66.2905 13.7008 66.117 13.4826 65.9416C13.2796 65.7781 13.0746 65.6136 12.8696 65.4502C12.8444 65.4292 12.8191 65.4093 12.7939 65.3884C12.6555 65.2787 12.5181 65.1691 12.3818 65.0604C12.2364 64.9448 12.0919 64.8301 11.9495 64.7175C11.8789 64.6617 11.8082 64.6059 11.7385 64.551C11.4597 64.3307 11.1911 64.1204 10.9416 63.928C10.8881 63.8862 10.8366 63.8463 10.7851 63.8064C10.776 63.7994 10.7669 63.7934 10.7588 63.7865C10.6962 63.7376 10.6336 63.6908 10.574 63.6439C10.5589 63.633 10.5447 63.621 10.5296 63.61C10.4468 63.5472 10.368 63.4874 10.2922 63.4306C10.065 63.2213 9.8408 63.0089 9.61963 62.7926C9.57721 62.7518 9.5358 62.7109 9.4944 62.669C5.88489 59.1024 3.1207 54.6775 1.53005 49.7264C0.605961 46.8585 0.077765 43.8122 0.00807948 40.6533C0.00504967 40.5516 0.00403974 40.449 0.0030298 40.3473C0.00100993 40.2406 0.00100993 40.134 0.00100993 40.0273C0 39.9944 0 39.9605 0 39.9276C0 39.4791 0.00908941 39.0315 0.0282782 38.5879C0.0282782 38.574 0.0282782 38.56 0.0282782 38.546C0.0666557 37.6419 0.142401 36.7488 0.254504 35.8666C0.261573 35.8118 0.268643 35.7579 0.275712 35.7041C0.498908 34.0085 0.854405 32.3558 1.33311 30.7559C2.26528 27.6339 3.66202 24.7122 5.44153 22.0716C5.51323 21.965 5.58494 21.8593 5.65866 21.7546C5.71421 21.6739 5.76976 21.5932 5.82732 21.5134C5.85863 21.4676 5.89095 21.4227 5.92327 21.3779C5.98891 21.2851 6.05557 21.1934 6.12222 21.1007C6.13131 21.0888 6.1404 21.0758 6.14949 21.0639C6.73727 20.2594 7.36242 19.4839 8.02191 18.7393C8.08857 18.6635 8.15623 18.5888 8.2239 18.514C8.29762 18.4313 8.37337 18.3495 8.44911 18.2678C9.41966 17.2251 10.4639 16.2532 11.5809 15.3551C13.3534 13.9296 15.2217 12.6298 17.3295 11.7057C17.7738 11.5104 18.2101 11.2911 18.6232 11.0379C18.6434 11.0249 18.6636 11.0099 18.6828 10.991C18.6919 10.983 18.701 10.9731 18.7101 10.9631C18.7161 10.9571 18.7222 10.9501 18.7282 10.9422C18.7353 10.9342 18.7414 10.9262 18.7474 10.9172C18.7484 10.9153 18.7494 10.9143 18.7505 10.9123C18.7505 10.9123 18.8605 10.9362 18.9464 10.7249C18.9827 10.6371 19.0151 10.5076 19.0322 10.3182C19.0504 10.1417 19.0554 9.91345 19.0413 9.6164V9.60842C19.0231 9.25655 18.9777 8.80798 18.8908 8.23979C18.8908 8.23979 18.8969 8.21986 18.9009 8.18796C18.9151 8.07631 18.8949 7.81016 18.4313 7.71646L19.7927 3.10917L21.2127 1.71761L22.8861 0.949067L24.3849 0.397827H26.9703L28.9528 0.847392L29.6436 1.23914C29.6436 1.23914 31.3332 1.60497 31.6413 1.42953C31.6413 1.42953 32.4038 1.54317 32.6249 1.92096C32.8461 2.29776 33.8005 3.6026 33.8005 3.6026L34.4761 5.75871L34.563 6.10561L34.7912 7.01171L34.9468 7.63273L34.9882 8.14111C35.073 8.15008 35.1589 8.15905 35.2437 8.16802C35.2457 8.26073 35.2467 8.35343 35.2487 8.44613C35.2548 8.76312 35.3578 8.88274 35.6871 8.89072C38.5189 8.96249 41.277 9.48781 43.8948 10.5245C45.6026 11.1993 47.2468 12.0606 48.8445 12.9677C49.3777 13.2707 49.8948 13.5967 50.3968 13.9416C53.6932 16.307 56.522 19.2865 58.7146 22.7136C58.753 22.7734 58.7903 22.8332 58.8277 22.894C61.9363 27.8243 63.735 33.6656 63.735 39.9276H63.736Z" fill="#233D3E"/>
<path d="M9.61864 62.7927C9.83982 63.009 10.064 63.2214 10.2913 63.4307C9.92667 63.1566 9.64591 62.9562 9.49341 62.8655L9.61864 62.7927Z" fill="white"/>
<path d="M16.5013 68.3918H16.5023L16.3852 68.3539C16.4226 68.3668 16.4619 68.3798 16.5013 68.3918Z" fill="white"/>
<path d="M26.7997 76.5243L26.8233 76.5324C26.7895 76.5212 26.7567 76.51 26.7239 76.4999L26.7997 76.5243Z" fill="white"/>
<path d="M14.7019 58.1674C14.7352 57.9721 14.7958 57.7807 14.8453 57.5883C14.7979 57.5813 14.7514 57.5753 14.7039 57.5684C14.6534 57.7677 14.5898 57.9651 14.5555 58.1674C14.4919 58.5413 14.4414 58.917 14.3939 59.2938C14.2676 60.2996 13.7879 61.3124 14.4858 62.3142C14.5434 62.3331 14.604 62.3501 14.6686 62.366C13.9182 61.3473 14.4121 60.3166 14.5403 59.2938C14.5878 58.917 14.6383 58.5413 14.7019 58.1674ZM15.626 62.1587C15.526 61.445 15.4523 60.7183 15.8219 60.0345C15.7987 59.9896 15.7765 59.9448 15.7543 59.8989C15.2968 60.6216 15.3725 61.3971 15.4796 62.1587C15.4988 62.2963 15.7967 62.4677 15.9785 62.4847C15.9977 62.4867 16.0199 62.4807 16.0431 62.4687C15.8644 62.4209 15.6422 62.2773 15.626 62.1587ZM14.9998 49.4822C14.9524 49.4762 14.9049 49.4702 14.8574 49.4642C14.8585 49.4732 14.8605 49.4822 14.8615 49.4911C15.2927 49.9626 15.724 50.4351 16.0825 50.8269C16.0987 50.79 16.1138 50.7531 16.1279 50.7162C15.7886 50.3444 15.3947 49.9128 14.9998 49.4822ZM15.8987 52.976C15.7947 53.0129 15.6957 53.0647 15.5957 53.1156C15.6078 53.1335 15.621 53.1524 15.6331 53.1714C15.7704 53.1046 15.9027 53.0259 16.0451 52.976C16.1077 52.9541 16.1744 52.9441 16.2421 52.9371C16.2421 52.9312 16.2421 52.9262 16.2431 52.9202C16.1279 52.9371 16.0068 52.9381 15.8987 52.976ZM16.4986 68.333C16.4552 68.316 16.4127 68.3011 16.3724 68.2861C16.135 68.1994 15.9482 68.1396 15.8007 68.03C14.4242 67.0022 13.0547 65.9645 11.6984 64.9109C11.3207 64.6169 11.0348 64.2819 10.8258 63.9111C10.8026 63.8702 10.7793 63.8284 10.7581 63.7865C10.4693 63.2223 10.343 62.5813 10.3239 61.8896C10.2491 59.3198 10.1249 56.75 10.0592 54.1802C10.032 53.1196 10.0825 52.056 10.1411 50.9963C10.1643 50.5926 10.0522 50.3923 9.65629 50.2667C8.29489 49.833 7.72125 48.8631 8.06059 47.4337C8.39286 46.0322 8.81299 44.6516 9.21797 43.268C9.55731 42.1057 9.93705 40.9554 10.2855 39.7951C10.4067 39.3884 10.1633 39.1063 9.89463 38.8322C9.73809 38.6717 9.62801 38.4673 9.49672 38.2829C9.52297 38.257 9.54923 38.2311 9.57549 38.2062C9.54519 38.1892 9.51388 38.1713 9.48359 38.1533C9.43915 38.1962 9.39471 38.2391 9.35028 38.2829C9.48157 38.4673 9.59165 38.6717 9.74819 38.8322C10.0168 39.1063 10.2602 39.3884 10.139 39.7951C9.79162 40.9554 9.41188 42.1057 9.07153 43.268C8.66655 44.6516 8.24642 46.0322 7.91415 47.4337C7.57481 48.8631 8.14845 49.833 9.50984 50.2667C9.90574 50.3923 10.0178 50.5926 9.99461 50.9963C9.93604 52.056 9.88554 53.1196 9.91281 54.1802C9.97845 56.75 10.1027 59.3198 10.1774 61.8896C10.1946 62.5106 10.2976 63.0897 10.5289 63.6101C10.538 63.632 10.5481 63.6529 10.5571 63.6729C10.7723 64.1384 11.0944 64.555 11.5519 64.9109C12.9083 65.9645 14.2777 67.0022 15.6543 68.03C15.8553 68.1795 16.1279 68.2363 16.5016 68.3918H16.5026C16.5016 68.3729 16.4996 68.3529 16.4986 68.333ZM16.7349 45.8966C16.641 46.1717 16.5461 46.4459 16.4592 46.6991C16.2098 46.7619 15.9542 46.8256 15.6977 46.8894C15.7038 46.9004 15.7098 46.9104 15.7159 46.9213C16.0158 46.8466 16.3148 46.7718 16.6056 46.6991C16.6885 46.4568 16.7794 46.1947 16.8692 45.9315C16.8248 45.9205 16.7794 45.9086 16.7349 45.8966ZM16.8632 59.2929C16.8369 59.6627 16.8097 60.0544 16.7794 60.4781C16.8339 60.4701 16.8824 60.4681 16.9258 60.4711C16.949 60.1481 16.9702 59.8441 16.9904 59.554C16.948 59.4663 16.9056 59.3796 16.8632 59.2929ZM16.9581 60.4741C17.2308 60.513 17.2631 60.7841 17.2692 61.0612C17.2803 61.5397 17.2722 62.0181 17.2722 62.4318C17.3146 61.9514 17.3631 61.427 17.4065 60.8957V60.8937C17.3813 60.6415 17.2944 60.4362 16.9581 60.4741ZM17.9559 39.2329C17.451 37.5164 16.9056 35.8088 16.4744 34.0744C15.9825 32.0977 16.2683 30.1559 17.0015 28.2709C17.049 28.1493 17.0975 28.0287 17.1662 27.8572C17.0732 27.9479 16.9763 28.0685 16.8793 28.2111C16.8702 28.231 16.8632 28.2509 16.8551 28.2709C16.1219 30.1559 15.8361 32.0977 16.3279 34.0744C16.7592 35.8088 17.3045 37.5164 17.8095 39.2329C17.8711 39.4412 17.9943 39.6306 18.1407 39.9366C18.163 39.8639 18.1811 39.8061 18.1973 39.7572C18.0913 39.5499 18.0044 39.3974 17.9559 39.2329ZM17.7731 59.4444C17.7156 59.3218 17.6651 59.1712 17.6853 59.0446C17.6954 58.9858 17.7964 58.9021 17.8802 58.8732C17.8529 58.8692 17.8246 58.8662 17.7974 58.8632C17.7146 58.8533 17.5509 58.9689 17.5388 59.0446C17.5186 59.1712 17.5691 59.3218 17.6267 59.4444C17.7539 59.7115 17.9034 59.9677 18.0448 60.2289C18.0347 60.2348 18.0236 60.2408 18.0135 60.2478C18.0297 60.2667 18.0468 60.2857 18.063 60.3046C18.1054 60.2787 18.1478 60.2538 18.1912 60.2289C18.0499 59.9677 17.9004 59.7115 17.7731 59.4444ZM18.4831 43.1594C18.1761 45.8348 17.8883 48.5761 17.5408 51.3103C17.2015 53.9758 16.1067 56.3881 14.8888 58.7576C14.8776 58.8732 14.8665 58.9898 14.8554 59.1054C16.1441 56.6234 17.3318 54.1064 17.6873 51.3103C18.0004 48.8382 18.267 46.3601 18.5417 43.9299C18.5447 43.7864 18.5488 43.6438 18.5528 43.5003C18.5568 43.3607 18.4962 43.2212 18.4831 43.1594ZM19.6829 22.2521C18.9638 22.5232 18.2327 22.7834 17.556 23.1393C16.4713 23.7094 15.5149 24.4581 15.0907 25.6522C14.6363 26.9282 14.1939 28.2151 13.8617 29.5259C13.1274 32.4216 12.469 35.3363 11.767 38.2401C11.7115 38.4733 11.5843 38.7036 11.4368 38.895C11.4105 38.9279 11.355 38.9458 11.2893 38.9528C11.4075 38.9618 11.5388 38.9518 11.5832 38.895C11.7307 38.7036 11.8569 38.4733 11.9135 38.2401C12.6154 35.3363 13.2739 32.4216 14.0081 29.5259C14.3404 28.2151 14.7827 26.9282 15.2372 25.6522C15.6614 24.4581 16.6178 23.7094 17.7024 23.1393C18.3791 22.7834 19.1103 22.5232 19.8294 22.2521C20.0616 22.1644 20.2424 22.1105 20.3889 22.0966C20.2192 22.0747 20 22.1325 19.6829 22.2521ZM20.4666 9.33134C19.891 9.00638 20.0404 8.41327 19.9627 7.95075C19.8889 7.50816 20.0152 7.03168 20.0717 6.5552C20.0283 6.5253 19.9839 6.4934 19.9364 6.4605C19.8859 6.96788 19.7375 7.47825 19.8162 7.95075C19.895 8.41327 19.7445 9.00638 20.3202 9.33134C20.3848 9.36722 20.3596 9.73505 20.2596 9.84968C20.1424 9.98425 20.0687 10.1248 20.0243 10.2693C19.8859 10.7119 20.0162 11.1904 19.9687 11.643C19.9637 11.6938 20.0667 11.7556 20.1202 11.8124C20.1445 11.7895 20.1687 11.7676 20.1919 11.7446C20.1495 11.7097 20.1121 11.6739 20.1152 11.643C20.1647 11.1675 20.0192 10.6631 20.1939 10.2016C20.2394 10.0809 20.3071 9.96332 20.406 9.84968C20.506 9.73505 20.5313 9.36722 20.4666 9.33134ZM19.7092 56.6662C19.3708 56.119 18.9477 55.5638 19.0355 54.854C19.0487 54.7454 19.1547 54.5709 19.2365 54.56C19.6284 54.5051 20.0253 54.4732 20.4212 54.4653C20.405 54.4633 20.3878 54.4633 20.3707 54.4633C19.9425 54.4683 19.5143 54.5011 19.0901 54.56C19.0083 54.5709 18.9022 54.7454 18.8891 54.854C18.8012 55.5638 19.2244 56.119 19.5627 56.6662C19.7294 56.9364 20.2101 57.06 20.6434 57.047C20.2525 57.0301 19.8566 56.9055 19.7092 56.6662ZM19.2951 12.6876C19.2517 12.7086 19.2082 12.7295 19.1648 12.7494C19.8112 15.3342 20.9373 17.6468 22.1461 19.9305C21.9038 20.0122 21.6169 20.098 21.3392 20.2056C20.1202 20.6761 18.9133 21.1765 17.6853 21.6231C15.7704 22.3199 14.3656 23.5499 13.6162 25.428C13.2931 26.2394 13.1042 27.1066 12.8861 27.9559C12.5053 29.4342 12.1266 30.9134 11.7893 32.4007C11.456 33.871 11.1894 35.3553 10.8642 36.8266C10.7359 37.4067 10.5369 37.9719 10.3572 38.577C10.3976 38.5999 10.439 38.6238 10.4814 38.6488C10.6672 38.0168 10.8773 37.4296 11.0106 36.8266C11.3358 35.3553 11.6024 33.871 11.9357 32.4007C12.273 30.9134 12.6518 29.4342 13.0325 27.9559C13.2506 27.1066 13.4385 26.2394 13.7627 25.428C14.5121 23.5499 15.9169 22.3199 17.8317 21.6231C19.0588 21.1765 20.2667 20.6761 21.4857 20.2056C21.7634 20.098 22.0502 20.0122 22.2926 19.9305C21.0736 17.6289 19.9394 15.2973 19.2951 12.6876ZM21.7725 6.03486C21.3877 6.29304 21.0251 6.53726 20.5989 6.82235C20.6252 6.84029 20.6494 6.85724 20.6706 6.87219C21.0938 6.5881 21.4543 6.34687 21.828 6.09567C21.8088 6.07573 21.7906 6.0558 21.7725 6.03486ZM22.4653 23.858C21.9835 23.2459 21.517 22.6219 21.0665 21.9879C20.8837 21.7308 20.916 21.4975 21.2463 21.342C21.3756 21.2812 21.4513 21.1008 21.5806 21.0539C21.6846 21.015 21.8078 20.9782 21.924 20.9672C21.7725 20.9453 21.5836 20.9991 21.4341 21.0539C21.3049 21.1008 21.2291 21.2812 21.0999 21.342C20.7696 21.4975 20.7373 21.7308 20.9201 21.9879C21.3705 22.6219 21.8371 23.2459 22.3188 23.858C22.3603 23.9118 22.5178 23.9367 22.6188 23.9188C22.5511 23.9098 22.4895 23.8889 22.4653 23.858ZM22.4673 24.5029C22.131 24.6873 21.8422 24.9545 21.4927 25.2425H21.4917C21.4907 25.2824 21.4887 25.3233 21.4857 25.3661C21.9068 25.0332 22.229 24.7132 22.6137 24.5029C22.6754 24.469 22.7541 24.4501 22.839 24.4431C22.7006 24.4331 22.5622 24.4501 22.4673 24.5029ZM22.738 19.0164C22.6713 19.3125 22.6067 19.6026 22.541 19.8936C22.5431 19.9006 22.5441 19.9086 22.5461 19.9156C22.5925 19.9126 22.638 19.9096 22.6844 19.9066C22.746 19.6354 22.8066 19.3643 22.8682 19.0882C22.8268 19.0643 22.7834 19.0413 22.738 19.0164ZM20.9342 43.4046C21.5604 43.2889 22.1785 43.1145 22.8097 43.0447C22.8188 43.0437 22.8279 43.0427 22.8369 43.0417C22.7784 43.0367 22.7198 43.0387 22.6632 43.0447C22.032 43.1145 21.4139 43.2889 20.7878 43.4046C20.4636 43.4644 20.3788 43.6488 20.4262 43.9409C20.6585 45.3803 20.8474 46.8276 21.1322 48.2561C21.3948 49.5729 21.7634 50.8677 22.0744 52.1746C22.1603 52.5344 22.3461 52.671 22.6289 52.6381C22.4269 52.6132 22.2906 52.4686 22.2209 52.1746C21.9098 50.8677 21.5412 49.5729 21.2786 48.2561C20.9938 46.8276 20.805 45.3803 20.5717 43.9409C20.5252 43.6488 20.61 43.4644 20.9342 43.4046ZM22.6158 41.8057C22.5138 41.4757 22.4956 41.1179 22.3774 40.7959C22.339 40.6912 22.0128 40.5656 21.9482 40.6145C21.9462 40.6165 21.9442 40.6175 21.9421 40.6195C22.0593 40.6504 22.2057 40.7281 22.231 40.7959C22.3491 41.1179 22.3673 41.4757 22.4693 41.8057C22.5037 41.9183 22.6905 42.0818 22.7763 42.0658C22.8016 42.0609 22.8258 42.0559 22.8511 42.0509C22.7592 42.01 22.642 41.8924 22.6158 41.8057ZM19.4951 41.1388C19.5738 41.1229 19.6526 41.1109 19.7324 41.1019C20.7656 40.6783 21.8007 40.2536 22.9238 39.7931V39.7333C21.7109 40.2307 20.603 40.6843 19.4951 41.1388ZM22.8117 1.36876C22.7885 1.33985 22.6986 1.33686 22.6481 1.3568C22.6552 1.35979 22.6612 1.36377 22.6653 1.36876C22.7814 1.5113 22.8874 1.53323 22.9793 1.50133C22.9258 1.4824 22.8703 1.44053 22.8117 1.36876ZM23.6701 20.9762C23.4914 20.9084 23.3328 20.8496 23.1773 20.7828C22.7622 20.6014 22.334 20.4249 21.8937 20.4459C22.2825 20.4648 22.6622 20.6223 23.0308 20.7828C23.2278 20.8675 23.4308 20.9393 23.6732 21.034C23.6722 21.014 23.6711 20.9951 23.6701 20.9762ZM23.7499 62.1687C23.2864 62.0032 22.8178 61.8377 22.3906 61.6015C22.2512 61.5247 22.1381 61.1988 22.1916 61.0472C22.237 60.9147 22.5178 60.807 22.7077 60.7901C22.6612 60.7861 22.6158 60.7851 22.5703 60.7891C22.3805 60.804 22.0916 60.9127 22.0452 61.0472C21.9916 61.1988 22.1047 61.5247 22.2441 61.6015C22.6713 61.8377 23.1399 62.0032 23.6035 62.1687C23.7025 62.2036 23.8146 62.2036 23.9277 62.2006C23.8661 62.1976 23.8055 62.1886 23.7499 62.1687ZM22.1179 67.4598C22.1441 67.5066 22.1674 67.5505 22.1876 67.5914C22.8703 68.009 23.4793 68.3808 24.0883 68.7526C24.1095 68.7357 24.1317 68.7197 24.1539 68.7028C23.5085 68.3091 22.8582 67.9123 22.1179 67.4598ZM24.165 59.2081C23.7479 59.1643 23.3369 59.0735 22.9218 59.0187C22.841 59.0078 22.7551 59.0038 22.6713 59.0088C22.7067 59.0107 22.741 59.0137 22.7753 59.0187C23.1904 59.0735 23.6015 59.1643 24.0186 59.2081C24.1004 59.2161 24.1751 59.2191 24.2438 59.2141C24.2185 59.2131 24.1923 59.2111 24.165 59.2081ZM23.9024 53.1445C23.957 53.1076 24.0125 53.0717 24.067 53.0358C24.1286 52.7477 24.2892 52.6211 24.5144 52.6012C24.1832 52.5743 23.9529 52.7119 23.9024 53.1445ZM24.4993 57.3122C24.5518 57.2992 24.6003 57.2902 24.6457 57.2863C24.567 57.2743 24.469 57.2843 24.3529 57.3122C23.5116 57.5155 22.6703 57.7169 21.7816 57.9312C21.7816 58.1465 21.7785 58.3897 21.7826 58.633C21.7876 58.9659 21.928 59.1064 22.1966 59.0706C22.0229 59.0426 21.9331 58.8991 21.929 58.633C21.925 58.3897 21.928 58.1465 21.928 57.9312C22.8167 57.7169 23.658 57.5155 24.4993 57.3122ZM24.6972 61.0682C24.6972 61.0682 24.6972 61.0622 24.6983 61.0592C24.7003 61.0273 24.7033 60.9954 24.7073 60.9645C24.7104 60.9346 24.7154 60.9047 24.7215 60.8758C24.7235 60.8618 24.7265 60.8479 24.7296 60.8349C24.7336 60.811 24.7386 60.7891 24.7447 60.7661C24.7487 60.7512 24.7528 60.7362 24.7568 60.7213C24.7619 60.6994 24.7689 60.6774 24.776 60.6565V60.3285C24.7477 60.3126 24.7195 60.2966 24.6912 60.2797C24.673 60.3116 24.6518 60.3445 24.6296 60.3764V61.9833C24.6791 61.9773 24.7275 61.9713 24.776 61.9643V61.6593C24.7679 61.6653 24.7609 61.6713 24.7528 61.6772C24.7427 61.6364 24.7346 61.5955 24.7265 61.5546C24.7195 61.5138 24.7134 61.4739 24.7084 61.433C24.7073 61.426 24.7063 61.4191 24.7063 61.4121C24.7053 61.4081 24.7053 61.4051 24.7053 61.4011C24.7023 61.3792 24.7003 61.3573 24.6993 61.3353C24.6983 61.3333 24.6983 61.3323 24.6993 61.3303C24.6983 61.3194 24.6972 61.3074 24.6972 61.2974C24.6922 61.2287 24.6922 61.1609 24.6972 61.0951C24.6972 61.0851 24.6972 61.0772 24.6972 61.0682ZM24.1438 60.2318C24.1307 60.6645 23.9297 60.9097 23.5843 60.9386C24.0196 60.9715 24.2751 60.7213 24.2902 60.2318C24.2983 59.9687 24.6084 59.7145 24.8831 59.6736C24.5851 59.6208 24.1539 59.9198 24.1438 60.2318ZM24.974 0.000126815C24.4579 -0.00485727 23.9176 0.137688 23.4278 0.319109C22.7561 0.568313 22.1472 0.996945 21.4655 1.20329C20.807 1.40165 20.3485 1.76649 19.9778 2.2958C19.7799 2.57889 19.492 2.83807 19.4032 3.15207C19.1325 4.10502 18.9527 5.0839 18.7083 6.04483C18.5669 6.60205 18.3599 7.14332 18.2094 7.69855C18.1852 7.78627 18.271 7.95274 18.3559 8.00856C18.5175 8.11522 18.7154 8.16706 18.8921 8.23982C18.8921 9.04725 18.9073 9.80981 18.88 10.5714C18.878 10.6352 18.8588 10.7089 18.8265 10.7787C18.8164 10.8026 18.8053 10.8256 18.7922 10.8475C18.78 10.8704 18.7669 10.8914 18.7518 10.9123C18.7518 10.9143 18.7497 10.9153 18.7487 10.9173C18.7427 10.9262 18.7356 10.9342 18.7295 10.9422C18.7235 10.9502 18.7174 10.9571 18.7114 10.9631C18.7023 10.9731 18.6932 10.9831 18.6841 10.991C18.6649 11.01 18.6447 11.0249 18.6245 11.0379C18.2114 11.2911 17.7752 11.5104 17.3308 11.7058C15.223 12.6298 13.3547 13.9297 11.5822 15.3551C10.4652 16.2532 9.42097 17.2251 8.45042 18.2678C8.37468 18.3495 8.29893 18.4313 8.22521 18.514C8.15754 18.5888 8.08988 18.6635 8.02322 18.7393C7.42635 19.4072 6.86079 20.103 6.32552 20.8256C6.26694 20.9054 6.20837 20.9841 6.1508 21.0639C6.14171 21.0758 6.13262 21.0888 6.12353 21.1008C6.05688 21.1935 5.99022 21.2852 5.92458 21.3779C5.89226 21.4227 5.85994 21.4676 5.82863 21.5135C5.77107 21.5932 5.71552 21.6739 5.65997 21.7547C5.58625 21.8593 5.51454 21.965 5.44284 22.0717C3.69565 24.6514 2.32719 27.4256 1.43138 30.423C1.39805 30.5337 1.36573 30.6443 1.33442 30.7559C0.863794 32.3828 0.503247 34.0325 0.277022 35.7042C0.269952 35.758 0.262882 35.8118 0.255813 35.8666C0.14068 36.7538 0.0639254 37.6469 0.0295876 38.5461C0.0295876 38.56 0.0295876 38.574 0.0295876 38.5879C0.0103988 39.0684 0.00231934 39.5489 0.00231934 40.0273C0.00231934 40.134 0.00231934 40.2407 0.00433921 40.3473C0.00433921 40.449 0.00635908 40.5517 0.00938888 40.6534C0.0467565 43.0527 0.320449 45.4291 0.870863 47.7876C1.71315 51.3981 3.11292 54.7683 5.15703 57.8754C6.23867 59.5171 7.43241 61.0752 8.87258 62.4328C9.02912 62.5804 9.22908 62.683 9.4947 62.8654V62.7688C9.29978 62.6422 9.14526 62.5524 9.01902 62.4328C7.57885 61.0752 6.38511 59.5171 5.30347 57.8754C3.63 55.3315 2.38778 52.6112 1.53035 49.7264C1.33947 49.0884 1.16879 48.4415 1.01629 47.7876C0.30631 44.7413 0.0578658 41.6611 0.177038 38.5461C0.283081 35.7789 0.789058 33.0716 1.57883 30.423C2.62007 26.9371 4.30161 23.7543 6.47297 20.8256C7.98686 18.7822 9.74415 16.951 11.7297 15.3551C13.5021 13.9297 15.3705 12.6298 17.4782 11.7058C17.9226 11.5104 18.3589 11.2911 18.772 11.0379C18.8729 10.9761 18.9638 10.8355 19.0052 10.7C19.0184 10.6551 19.0265 10.6113 19.0275 10.5714C19.0305 10.4867 19.0335 10.4029 19.0345 10.3182C19.0406 10.0859 19.0426 9.85168 19.0436 9.61643V9.60845C19.0446 9.16188 19.0396 8.70833 19.0396 8.23982C18.9952 8.22188 18.9497 8.20494 18.9032 8.18799C18.7659 8.13715 18.6245 8.08831 18.5033 8.00856C18.4185 7.95274 18.3326 7.78627 18.3569 7.69855C18.5074 7.14332 18.7144 6.60205 18.8558 6.04483C19.1002 5.0839 19.28 4.10502 19.5506 3.15207C19.6395 2.83807 19.9273 2.57889 20.1253 2.2958C20.4959 1.76649 20.9544 1.40165 21.6129 1.20329C22.2936 0.996945 22.9036 0.568313 23.5752 0.319109C24.0378 0.146659 24.5478 0.010095 25.0386 0.00112363C25.0174 0.000126815 24.9952 0.000126815 24.974 0.000126815ZM25.388 24.7401C25.0315 25.2984 24.9305 25.9533 24.9002 26.5912C24.8285 28.1403 24.4225 29.5867 23.7802 30.9922C23.1298 32.4156 22.6713 33.9049 22.4118 35.449C22.3199 35.9942 22.2653 36.5465 22.1795 37.1964C22.234 37.1794 22.2845 37.1655 22.332 37.1515C22.4138 36.5205 22.4683 35.9813 22.5582 35.449C22.8178 33.9049 23.2763 32.4156 23.9267 30.9922C24.569 29.5867 24.975 28.1403 25.0467 26.5912C25.075 25.9702 25.1729 25.3333 25.5072 24.785C25.5082 24.781 25.5092 24.778 25.5102 24.774C25.4698 24.7631 25.4284 24.7511 25.388 24.7401ZM22.7258 17.6298C21.7977 16.3101 21.3574 14.8308 20.9029 13.3475C20.6494 12.5212 20.9837 11.7486 21.4998 11.0688C21.619 10.9123 21.7381 10.7558 21.8573 10.6003C21.8098 10.5504 21.7624 10.5006 21.7149 10.4518C21.6897 10.4757 21.6634 10.4996 21.6381 10.5245C21.6624 10.5495 21.6866 10.5744 21.7109 10.6003C21.5917 10.7558 21.4725 10.9123 21.3533 11.0688C20.8373 11.7486 20.503 12.5212 20.7565 13.3475C21.2109 14.8308 21.6513 16.3101 22.5794 17.6298C23.3803 18.7682 24.4983 19.2287 25.6375 19.2168C24.5488 19.1879 23.4924 18.7194 22.7258 17.6298ZM25.5729 22.1125C24.6912 21.7048 24.3983 20.9413 24.1842 20.085C24.1084 19.785 23.9095 19.5138 23.7348 19.2267C23.658 19.1819 23.5823 19.134 23.5055 19.0822C23.6934 19.4251 23.9499 19.7351 24.0378 20.085C24.2519 20.9413 24.5458 21.7048 25.4264 22.1125C25.5718 22.1793 25.688 22.2152 25.8041 22.1923C25.7334 22.1803 25.6587 22.1524 25.5729 22.1125ZM24.5639 54.225C25.0245 53.9529 25.485 53.6798 25.9455 53.4076C25.8779 53.4126 25.8112 53.4226 25.7466 53.4385C25.3032 53.7007 24.8609 53.9629 24.4175 54.225C24.4326 54.2868 24.4478 54.3496 24.4619 54.4114C24.6205 54.4114 24.7871 54.4383 24.9427 54.4284C24.8316 54.4244 24.7174 54.4114 24.6084 54.4114C24.5932 54.3496 24.5791 54.2868 24.5639 54.225ZM25.592 25.091C25.585 25.103 25.5769 25.114 25.5688 25.1249C25.5506 25.1997 25.5304 25.2824 25.5062 25.3771C25.6173 25.2425 25.688 25.1728 25.7385 25.091C25.8607 24.8917 26.0172 24.79 26.1839 24.7671C25.9637 24.7382 25.7506 24.8348 25.592 25.091ZM23.5328 5.29124C23.2248 5.41584 22.9783 5.52648 22.8561 5.88135C22.7743 6.12059 22.5774 6.32195 22.3946 6.56218C22.4219 6.59109 22.4481 6.62099 22.4754 6.6509C22.6743 6.36979 22.9107 6.1495 23.0026 5.88135C23.1248 5.52648 23.3712 5.41584 23.6792 5.29124C24.4942 4.96229 25.3325 4.87158 26.1818 4.86659C25.282 4.8626 24.3953 4.94335 23.5328 5.29124ZM26.3495 73.0599C26.1556 73.1386 26.0152 73.1975 25.889 73.2493V73.3091C26.0273 73.2523 26.1667 73.1945 26.3626 73.1147C26.3586 73.0968 26.3545 73.0778 26.3495 73.0599ZM26.8373 76.4969C26.6838 76.4551 26.5363 76.4172 26.3949 76.3813C25.994 76.2796 25.6365 76.1899 25.3042 76.0444C24.9709 75.8978 24.6387 75.7493 24.3074 75.5978C23.4348 75.1991 22.5703 74.7834 21.7129 74.3548C21.0857 74.0408 20.4848 73.67 19.9061 73.2762C19.7364 73.1606 19.6072 72.8855 19.587 72.6711C19.5809 72.6103 19.5759 72.5495 19.5688 72.4897C19.5092 71.8936 19.4213 71.3045 19.3032 70.7234C19.0921 69.6817 18.7821 68.6639 18.3508 67.6731C18.2811 67.5126 18.4225 67.2744 18.4013 67.079C18.2821 66.0004 18.1317 64.9259 18.0135 63.8473C17.9529 63.2921 17.9569 62.7309 17.8994 62.1746C17.8246 61.4639 17.7247 60.7552 17.6227 59.9667C17.5701 59.9069 17.5136 59.8411 17.45 59.7693C17.4762 59.9757 17.5025 60.176 17.5287 60.3724C17.558 60.4442 17.5812 60.5199 17.5762 60.5907C17.5742 60.6206 17.5722 60.6505 17.5691 60.6804C17.6378 61.1958 17.7014 61.6842 17.7529 62.1746C17.8105 62.7309 17.8065 63.2921 17.8671 63.8473C17.9852 64.9259 18.1357 66.0004 18.2549 67.079C18.2761 67.2744 18.1347 67.5126 18.2044 67.6731C18.2428 67.7598 18.2791 67.8475 18.3155 67.9353C18.3569 68.0349 18.3963 68.1346 18.4346 68.2353C18.4589 68.2981 18.4821 68.3609 18.5053 68.4237C18.5296 68.4855 18.5518 68.5473 18.574 68.6091C18.6063 68.7008 18.6386 68.7935 18.6689 68.8862C18.6972 68.97 18.7235 69.0527 18.7497 69.1364C18.8063 69.3168 18.8598 69.4983 18.9093 69.6817C18.9275 69.7455 18.9436 69.8093 18.9608 69.8731C18.9709 69.9119 18.981 69.9518 18.9911 69.9917C19.0093 70.0615 19.0265 70.1322 19.0426 70.203C19.0436 70.204 19.0436 70.205 19.0436 70.206C19.0446 70.21 19.0456 70.214 19.0467 70.218C19.0517 70.2389 19.0557 70.2588 19.0608 70.2798C19.078 70.3495 19.0931 70.4213 19.1083 70.4921C19.1174 70.534 19.1264 70.5768 19.1355 70.6197C19.1477 70.6765 19.1588 70.7333 19.1709 70.7901C19.2254 71.0673 19.2739 71.3464 19.3153 71.6275C19.3254 71.6953 19.3355 71.763 19.3436 71.8308C19.3537 71.8996 19.3628 71.9694 19.3719 72.0402C19.383 72.1309 19.3941 72.2226 19.4042 72.3143C19.4062 72.3292 19.4082 72.3452 19.4092 72.3611C19.4203 72.4648 19.4304 72.5675 19.4405 72.6711C19.4426 72.6911 19.4456 72.712 19.4496 72.7329C19.4527 72.7529 19.4577 72.7748 19.4628 72.7957C19.4678 72.8177 19.4749 72.8396 19.4819 72.8615C19.489 72.8825 19.4971 72.9044 19.5052 72.9263C19.5132 72.9453 19.5213 72.9642 19.5304 72.9831C19.5385 72.9991 19.5466 73.015 19.5547 73.031C19.5698 73.0589 19.587 73.0868 19.6041 73.1127C19.6153 73.1297 19.6274 73.1456 19.6395 73.1606C19.6758 73.2074 19.7162 73.2463 19.7597 73.2762C19.7607 73.2772 19.7617 73.2772 19.7627 73.2782C20.3404 73.671 20.9403 74.0418 21.5664 74.3548C22.0744 74.609 22.5855 74.8582 23.0985 75.1014C23.3126 75.2031 23.5257 75.3037 23.7408 75.4034C23.9428 75.4981 24.1468 75.5908 24.3508 75.6835C24.6195 75.8061 24.8881 75.9258 25.1588 76.0444C25.2194 76.0713 25.282 76.0962 25.3446 76.1191C25.3759 76.1311 25.4072 76.1421 25.4395 76.153C25.5234 76.1819 25.6092 76.2088 25.6981 76.2348C25.7425 76.2477 25.787 76.2607 25.8334 76.2726C25.8334 76.2736 25.8344 76.2736 25.8354 76.2736C25.9031 76.2916 25.9728 76.3105 26.0435 76.3285C26.1495 76.3564 26.2586 76.3833 26.3717 76.4122C26.4363 76.4291 26.502 76.4461 26.5687 76.463C26.6555 76.487 26.7454 76.5109 26.8373 76.5368C26.8393 76.5378 26.8403 76.5388 26.8423 76.5388C26.8403 76.5248 26.8393 76.5109 26.8373 76.4969ZM27.52 53.8582C27.4321 53.8054 27.3049 53.7914 27.1766 53.8014C27.2514 53.8084 27.32 53.8263 27.3736 53.8582C27.824 54.1283 27.9846 55.0564 27.6957 55.5059C27.2493 56.2017 26.4969 56.4419 25.7769 56.7051C25.4537 56.8237 25.4032 56.9394 25.4547 57.2813C25.5537 57.9282 25.5587 58.5911 25.5648 59.248C25.5678 59.562 25.4002 59.6746 25.184 59.6936C25.4648 59.7135 25.7142 59.6308 25.7102 59.248C25.7052 58.5911 25.6991 57.9282 25.6011 57.2813C25.5496 56.9394 25.6001 56.8237 25.9223 56.7051C26.6434 56.4419 27.3958 56.2017 27.8422 55.5059C28.131 55.0564 27.9704 54.1283 27.52 53.8582ZM27.9553 18.831C27.1463 19.3284 26.3263 19.6763 25.488 19.6982C26.4061 19.7162 27.3019 19.3334 28.1845 18.7782C28.1078 18.7951 28.032 18.8131 27.9553 18.831ZM27.8089 52.1536C26.6525 52.4228 25.5264 52.8245 24.4023 53.2113C24.166 53.292 23.9963 53.5592 23.7418 53.7894C23.9378 53.8632 24.1155 53.8861 24.2832 53.8761C24.1589 53.8692 24.0277 53.8422 23.8883 53.7894C24.1428 53.5592 24.3125 53.292 24.5478 53.2113C25.6728 52.8245 26.7989 52.4228 27.9553 52.1536C28.3199 52.0699 28.6855 52.027 29.0491 52.0221C28.637 52.0161 28.2219 52.0579 27.8089 52.1536ZM29.7449 1.62195C29.4146 1.42657 29.2207 1.26609 28.9975 1.18933C28.6451 1.06872 28.2775 0.961059 27.9088 0.924177C27.0251 0.836457 26.1344 0.816521 25.2517 0.72581C25.0426 0.704877 24.8376 0.689925 24.6417 0.694909C24.7922 0.696903 24.9467 0.709861 25.1053 0.72581C25.9879 0.816521 26.8787 0.836457 27.7624 0.924177C28.131 0.961059 28.4986 1.06872 28.8511 1.18933C29.0743 1.26609 29.2682 1.42657 29.5985 1.62195C29.8974 2.01071 29.9883 2.5759 29.5651 3.26072C29.6601 3.17998 29.7499 3.10422 29.8358 3.03245C30.1115 2.45031 30.0095 1.96685 29.7449 1.62195ZM30.7316 7.99261C30.6347 7.74141 30.6579 7.54205 30.7457 7.35963C30.7639 7.21809 30.8154 7.07255 30.9104 6.92103C30.6346 7.24799 30.4074 7.53408 30.5852 7.99261C30.5882 8.00059 30.5912 8.00757 30.5922 8.01554C30.7215 8.38037 30.5135 8.79505 30.1812 8.99142C30.1822 9.01435 30.1822 9.03827 30.1822 9.0612C30.5973 8.90969 30.8871 8.42723 30.7377 8.01056C30.7356 8.00457 30.7336 7.99859 30.7316 7.99261ZM31.4456 1.97682C31.1386 2.43934 30.8811 2.84205 30.6084 3.2348C30.3074 3.66742 29.9317 4.0482 29.8146 4.59645C29.7863 4.72803 29.5268 4.8955 29.3692 4.90048C29.0531 4.91145 28.737 4.91743 28.4209 4.91843C28.7855 4.91843 29.1511 4.91245 29.5156 4.90048C29.6732 4.8955 29.9327 4.72803 29.961 4.59645C30.0782 4.0482 30.4539 3.66742 30.7548 3.2348C31.0073 2.87096 31.2467 2.49915 31.5244 2.07849C31.4992 2.0456 31.4729 2.01171 31.4456 1.97682ZM31.7244 10.5993C31.686 10.5913 31.6476 10.5823 31.6102 10.5744C31.3305 10.7668 31.6688 11.1994 31.278 11.316C31.277 11.325 31.277 11.3329 31.276 11.3419C31.8698 11.2951 31.48 10.8246 31.7244 10.5993ZM31.9647 13.822C31.9082 13.7931 31.8365 13.7951 31.7526 13.8011C31.7769 13.8051 31.7981 13.812 31.8183 13.822C31.992 13.9097 32.1455 13.9376 32.2839 13.9217C32.1859 13.9117 32.0799 13.8798 31.9647 13.822ZM32.2 17.885C32.0607 18.1831 31.992 18.4094 31.8617 18.5928C31.0891 19.6853 29.8954 20.2644 28.8117 20.9672C28.1139 21.4207 27.3463 21.7696 26.6101 22.1634C26.2677 22.3468 26.2303 22.5521 26.4687 22.8791C26.6292 23.1024 26.7363 23.4004 26.7626 23.6746C26.8423 24.5109 27.6776 25.1409 28.4694 25.101C27.724 25.0621 26.9837 24.46 26.909 23.6746C26.8827 23.4004 26.7757 23.1024 26.6141 22.8791C26.3768 22.5521 26.4141 22.3468 26.7565 22.1634C27.4927 21.7696 28.2603 21.4207 28.9582 20.9672C30.0408 20.2644 31.2356 19.6853 32.0082 18.5928C32.1384 18.4094 32.2071 18.1831 32.3465 17.885C32.4344 17.8671 32.5151 17.8561 32.5909 17.8511C32.4768 17.8442 32.3465 17.8561 32.2 17.885ZM33.2857 4.72704C33.2544 4.51671 33.21 4.30738 33.1676 4.09804C33.1171 4.04721 33.0605 4.00733 32.9979 3.98042C33.0464 4.22962 33.1029 4.47684 33.1393 4.72704C33.1797 4.99817 33.2029 5.2723 33.2393 5.60125C33.2898 5.52948 33.3302 5.45172 33.3615 5.36998C33.3372 5.13872 33.316 4.93238 33.2857 4.72704ZM33.5039 6.63096C33.4948 7.09348 33.5029 7.56199 33.5008 8.03249C33.4978 8.98445 33.4524 9.94438 33.1494 10.8754C33.1948 10.8854 33.2403 10.8953 33.2867 10.9053C33.5978 9.96731 33.6432 8.9994 33.6473 8.04046C33.6493 7.68061 33.6453 7.32275 33.6473 6.96788C33.6049 6.85524 33.5574 6.7426 33.5039 6.63096ZM33.413 21.5384C32.2485 23.6646 30.2428 24.8478 28.2552 26.048C28.3118 26.0669 28.3613 26.0729 28.3906 26.055C30.3822 24.8518 32.3929 23.6686 33.5594 21.5384C33.7766 21.1416 33.8897 20.9443 34.0401 20.9004C33.8008 20.8466 33.6937 21.025 33.413 21.5384ZM34.2674 56.733C34.3552 56.739 34.4461 56.7579 34.5421 56.7928C34.5683 56.8018 34.6037 56.7948 34.6411 56.7769C34.5098 56.735 34.3855 56.724 34.2674 56.733ZM34.5643 6.10564C34.4956 5.991 34.4108 5.88135 34.3118 5.77469C34.2058 5.66006 34.0704 5.47963 34.0937 5.35603C34.23 4.62038 33.824 4.03325 33.5524 3.42719C33.4251 3.14409 33.0757 2.94871 32.804 2.74237C32.6676 2.63771 32.4808 2.59783 32.2617 2.50613C32.4081 2.33866 32.5081 2.22403 32.6242 2.09145C32.5222 1.99576 32.4404 1.85122 32.3293 1.8263C31.7335 1.69372 31.1315 1.58208 30.5276 1.48638C30.5094 1.48339 30.4852 1.48838 30.4589 1.49934C31.0366 1.59204 31.6123 1.6997 32.1839 1.8263C32.294 1.85122 32.3758 1.99576 32.4778 2.09145C32.3626 2.22403 32.2617 2.33866 32.1152 2.50613C32.3344 2.59783 32.5212 2.63771 32.6586 2.74237C32.9292 2.94871 33.2787 3.14409 33.4059 3.42719C33.6776 4.03325 34.0836 4.62038 33.9472 5.35603C33.925 5.47963 34.0593 5.66006 34.1654 5.77469C34.5098 6.14551 34.6774 6.54723 34.6421 7.07155C34.6188 7.41645 34.5986 7.76035 34.5795 8.10525C34.5229 9.15092 34.4825 10.1976 34.4381 11.2442C34.3754 12.7205 33.7644 13.8788 32.4869 14.6364C32.3637 15.3601 32.2425 16.0798 32.1203 16.7985C32.1809 16.8154 32.2404 16.8324 32.3 16.8483C32.3061 16.8364 32.3132 16.8254 32.3192 16.8135C32.3021 16.8085 32.2839 16.8035 32.2667 16.7985C32.3889 16.0798 32.5101 15.3601 32.6333 14.6364C33.9109 13.8788 34.5219 12.7205 34.5845 11.2442C34.6289 10.2016 34.6683 9.15889 34.7249 8.11722C34.7441 7.76833 34.7643 7.42044 34.7885 7.07155C34.7895 7.05162 34.7905 7.03168 34.7925 7.01174C34.8047 6.66485 34.7259 6.37278 34.5643 6.10564ZM34.4391 59.6108C33.4695 59.6736 32.5222 59.8092 31.6022 60.1511C30.3933 60.5997 29.1733 61.0283 27.9412 61.4101C26.9494 61.7181 25.9314 61.9414 24.9275 62.2085C24.8699 62.2235 24.8174 62.2335 24.7679 62.2384C24.8528 62.2504 24.9548 62.2404 25.0739 62.2085C26.0778 61.9414 27.0958 61.7181 28.0876 61.4101C29.3197 61.0283 30.5397 60.5997 31.7486 60.1511C32.6687 59.8092 33.616 59.6736 34.5855 59.6108C34.7986 59.5979 35.0087 59.5341 35.2551 59.4743C35.2571 59.4633 35.2591 59.4513 35.2612 59.4394C34.9481 59.5072 34.6956 59.5949 34.4391 59.6108ZM29.2702 77.2386C29.2702 77.2386 29.2672 77.2386 29.2662 77.2376C29.1652 77.2166 29.0642 77.1937 28.9632 77.1708C28.9016 77.1568 28.8461 77.1399 28.7956 77.1189C28.7945 77.1189 28.7935 77.1189 28.7935 77.118C28.5744 77.0282 28.4532 76.8717 28.4077 76.6185C28.3108 76.0643 28.2563 75.5001 28.1058 74.9598C27.9482 74.3936 27.7058 73.8494 27.4877 73.3001C27.3847 73.043 27.3049 72.8426 27.5776 72.6004C27.7301 72.4658 27.7937 72.1658 27.7806 71.9475C27.7745 71.8398 27.4948 71.7561 27.3473 71.6494C27.2211 71.5577 27.0787 71.467 26.9959 71.3414C26.8393 71.1081 26.7858 70.7513 26.5767 70.6167C25.3618 69.8342 25.1376 68.5174 24.775 67.3202C24.3478 65.9127 24.1105 64.4484 23.7944 63.008C23.7095 62.6212 23.5843 62.2006 24.2599 62.2006C24.2115 62.1986 24.163 62.2006 24.1135 62.2006H24.0973C23.4399 62.2075 23.5641 62.6242 23.6479 63.008C23.964 64.4484 24.2014 65.9127 24.6286 67.3202C24.9911 68.5174 25.2153 69.8342 26.4303 70.6167C26.6393 70.7513 26.6929 71.1081 26.8494 71.3414C26.9322 71.467 27.0746 71.5577 27.2009 71.6494C27.3483 71.7561 27.6281 71.8398 27.6341 71.9475C27.6483 72.1658 27.5836 72.4658 27.4311 72.6004C27.1585 72.8426 27.2382 73.043 27.3413 73.3001C27.5594 73.8494 27.8018 74.3936 27.9593 74.9598C28.1098 75.5001 28.1654 76.0643 28.2623 76.6185C28.2956 76.8099 28.3734 76.9465 28.5037 77.0402C28.5865 77.1 28.6895 77.1419 28.8168 77.1708C29.4944 77.3243 30.1731 77.4618 30.8548 77.5785C30.8659 77.5805 30.877 77.5825 30.8881 77.5845C32.4424 77.8486 34.0058 78.0041 35.5833 77.9971C33.4574 77.9932 31.3578 77.6981 29.2702 77.2386ZM36.4074 31.9093C35.8005 32.1744 35.1975 32.4495 34.5865 32.7027C33.1938 33.2809 31.788 33.8291 30.4024 34.4242C28.7713 35.124 27.1605 35.8676 25.5335 36.5784C23.3833 37.5184 21.2251 38.4424 19.0739 39.3814C18.9154 39.4512 18.676 39.5798 18.6659 39.6974C18.6195 40.1938 18.6457 40.6972 18.6457 41.2086C18.6952 41.1827 18.7437 41.1567 18.7922 41.1318C18.7901 40.6464 18.7679 40.1689 18.8124 39.6974C18.8225 39.5798 19.0618 39.4512 19.2204 39.3814C21.3715 38.4424 23.5298 37.5184 25.6799 36.5784C27.3069 35.8676 28.9178 35.124 30.5488 34.4242C31.9344 33.8291 33.3393 33.2809 34.733 32.7027C35.3096 32.4635 35.8782 32.2053 36.4509 31.9541C36.4357 31.9392 36.4216 31.9242 36.4074 31.9093ZM37.2679 30.7679C37.4557 30.8028 37.5466 30.9982 37.6385 31.4029C37.2679 31.5355 36.7872 31.5285 36.7336 32.1007C36.7256 32.1864 36.5811 32.2601 36.4418 32.3429C36.4478 32.3648 36.4559 32.3917 36.464 32.4236C36.6246 32.305 36.869 32.2133 36.8801 32.1007C36.9326 31.5285 37.4133 31.5355 37.785 31.4029C37.6719 30.9045 37.5598 30.724 37.2679 30.7679ZM36.5559 58.634C36.9871 58.3818 37.4285 58.1415 37.8395 57.8584C37.9193 57.8036 37.987 57.7687 38.0456 57.7518C37.9597 57.7199 37.8496 57.7508 37.6931 57.8584C37.2831 58.1415 36.8407 58.3818 36.4095 58.634C35.9355 58.9111 35.7793 59.3128 35.9408 59.8391C35.9701 59.9338 35.9873 60.0325 36.0105 60.1292C36.2893 61.2875 36.5599 62.4478 36.8498 63.6031C36.9326 63.935 37.0245 64.0527 37.1962 63.9928C37.1114 63.952 37.0518 63.8254 36.9962 63.6031C36.7064 62.4478 36.4357 61.2875 36.157 60.1292C36.1337 60.0325 36.1166 59.9338 36.0873 59.8391C35.925 59.3115 36.0812 58.9097 36.5559 58.634ZM38.6273 76.5079C38.595 76.5258 38.5616 76.5428 38.5233 76.5637C38.4798 76.6096 38.4313 76.6614 38.3768 76.7202C38.5263 76.6405 38.6162 76.5926 38.6869 76.5547C38.6667 76.5388 38.6475 76.5238 38.6273 76.5079ZM38.7747 64.3088C38.0799 64.3118 38.1021 63.93 38.195 63.4107C38.1344 63.4526 38.0799 63.4905 38.0294 63.5243C37.9567 63.9849 37.985 64.3118 38.6283 64.3088C38.3304 64.5102 38.1516 64.6308 37.9728 64.7514C37.9819 64.7714 37.991 64.7913 38.0001 64.8112C38.0445 64.8023 38.089 64.7933 38.1334 64.7833C38.1294 64.7724 38.1243 64.7624 38.1193 64.7514C38.298 64.6308 38.4768 64.5102 38.7747 64.3088ZM38.5758 64.7215C38.5303 64.7315 38.4859 64.7405 38.4414 64.7494C38.6434 65.2379 38.8414 65.7124 39.0383 66.1878C39.0848 66.1819 39.1302 66.1759 39.1777 66.1709C38.9787 65.6924 38.7798 65.214 38.5758 64.7215ZM38.9626 31.7298C38.9272 31.7079 38.8697 31.7099 38.8081 31.7258C38.8111 31.7268 38.8141 31.7278 38.8171 31.7298C39.2171 31.9761 39.5938 32.2591 40.018 32.5562C39.8766 32.6359 39.8079 32.6838 39.7321 32.7167C38.4566 33.2629 37.1821 33.8132 35.9025 34.3525C34.2502 35.0482 32.597 35.74 30.9396 36.4229C28.4734 37.4386 26.0051 38.4494 23.5318 39.4462C23.1288 39.6087 22.9743 39.7961 23.1399 40.2327C23.2197 40.443 23.1541 40.7062 23.1531 40.9464C23.2015 40.9474 23.25 40.9494 23.2995 40.9504C23.2995 40.7092 23.3651 40.444 23.2854 40.2327C23.1207 39.7961 23.2753 39.6087 23.6782 39.4462C26.1515 38.4494 28.6198 37.4386 31.0851 36.4229C32.7434 35.74 34.3967 35.0482 36.0489 34.3525C37.3285 33.8132 38.602 33.2629 39.8786 32.7167C39.9533 32.6838 40.023 32.6359 40.1644 32.5562C39.7402 32.2591 39.3635 31.9761 38.9626 31.7298ZM40.323 76.9624C40.3118 76.9236 40.3058 76.8986 40.3048 76.8957C40.2654 76.9236 40.225 76.9535 40.1836 76.9844C40.1967 77.0342 40.2149 77.098 40.2331 77.1628C40.2422 77.1528 40.2502 77.1439 40.2593 77.1339C40.2593 77.1339 40.2603 77.1319 40.2624 77.1299C40.2937 77.092 40.3189 77.0541 40.3381 77.0163C40.332 76.9963 40.327 76.9784 40.323 76.9624ZM41.7328 47.5194C40.7057 48.288 39.7645 49.1692 38.7475 49.9527C37.3719 51.0133 35.957 52.0241 34.5623 53.0607C34.3391 53.2272 34.1321 53.4146 33.919 53.595C33.9513 53.609 33.9836 53.6239 34.0149 53.6379C34.2462 53.4445 34.4674 53.2402 34.7087 53.0607C36.1034 52.0241 37.5184 51.0133 38.8939 49.9527C39.9109 49.1692 40.8522 48.288 41.8793 47.5194C42.1822 47.2922 42.5317 47.1845 42.8912 47.1696C42.4802 47.1566 42.0772 47.2623 41.7328 47.5194ZM43.4457 38.4255C43.4699 38.3318 43.5224 38.2391 43.5214 38.1454C43.5164 37.6589 43.4921 37.1715 43.4861 36.685C43.482 36.377 43.3719 36.2793 43.1407 36.3122C43.272 36.3381 43.3366 36.4518 43.3396 36.685C43.3457 37.1715 43.3699 37.6589 43.375 38.1454C43.376 38.2391 43.3235 38.3318 43.2992 38.4255C43.1467 38.9966 42.9266 39.5608 42.867 40.141C42.8155 40.6354 42.9488 41.1498 43.0003 41.6542C43.0427 41.5834 43.0831 41.5116 43.1205 41.4398C43.0609 41.0042 42.969 40.5656 43.0134 40.141C43.073 39.5608 43.2932 38.9966 43.4457 38.4255ZM43.2528 42.8234C43.5416 42.6908 43.8608 42.5413 44.1688 42.5204C44.1597 42.5194 44.1506 42.5184 44.1415 42.5184C43.7981 42.5015 43.4325 42.6739 43.1063 42.8234C43.0447 42.8513 43.1366 43.1753 43.1306 43.3607C43.1255 43.4893 43.1144 43.6528 43.0356 43.7365C42.7438 44.0475 42.4691 44.4114 42.1055 44.6087C41.2996 45.0443 40.8017 46.1129 41.1006 47.026C41.144 47.0101 41.1895 46.9961 41.2339 46.9821C40.9643 46.079 41.4591 45.0374 42.2509 44.6087C42.6145 44.4114 42.8902 44.0475 43.1821 43.7365C43.2609 43.6528 43.272 43.4893 43.277 43.3607C43.2831 43.1753 43.1912 42.8513 43.2528 42.8234ZM44.0819 38.4773C44.0749 38.0427 43.9597 37.6101 43.8022 37.1755C43.8113 37.3599 43.8204 37.5453 43.8284 37.7297C43.8921 37.9789 43.9325 38.2281 43.9355 38.4773C43.9466 39.2807 43.8547 39.4771 44.2627 39.4422C44.0254 39.4083 44.092 39.1651 44.0819 38.4773ZM45.6756 39.7781H45.5302C45.7918 40.0224 45.9624 40.1799 46.1321 40.3384C46.123 40.3513 46.1129 40.3653 46.1028 40.3782C46.1402 40.3942 46.1765 40.4101 46.2139 40.4271C46.2351 40.3972 46.2573 40.3683 46.2785 40.3384C46.1079 40.1799 45.9382 40.0224 45.6756 39.7781ZM47.5894 42.3509C46.3735 42.0758 45.1898 41.8097 43.8971 41.5196C44.1153 40.9753 44.3465 40.3962 44.595 39.7761C44.5536 39.7582 44.5122 39.7403 44.4708 39.7213C44.2142 40.3623 43.9749 40.9594 43.7507 41.5196C45.1131 41.8256 46.3543 42.1047 47.6409 42.3948C47.6238 42.3798 47.6056 42.3649 47.5894 42.3509ZM48.1813 39.518C47.5197 39.3206 46.8572 39.1272 46.1765 39.1412C46.8057 39.1541 47.4208 39.3336 48.0348 39.518C48.1005 39.5369 48.1469 39.6147 48.3267 39.7781H48.4731C48.2934 39.6147 48.2459 39.5369 48.1813 39.518ZM48.8397 43.888C48.7781 43.6468 48.6074 43.4315 48.4852 43.1613C48.4145 43.1105 48.3439 43.0597 48.2762 43.0058C48.3944 43.3527 48.6206 43.6019 48.6933 43.888C48.7468 44.1013 48.665 44.4213 48.5176 44.5798C48.5065 44.5918 48.4893 44.5998 48.4661 44.6037C48.558 44.6167 48.6347 44.6117 48.664 44.5798C48.8115 44.4213 48.8933 44.1013 48.8397 43.888ZM48.8862 50.9465C48.5347 49.9676 47.7712 49.2828 47.0764 48.585C46.3311 47.8364 45.4867 47.1725 44.4596 46.7688C43.9718 46.5774 43.4982 46.4778 43.0316 46.4867C43.4507 46.4987 43.8769 46.5974 44.3132 46.7688C45.3413 47.1725 46.1846 47.8364 46.931 48.585C47.6248 49.2828 48.3883 49.9676 48.7397 50.9465C48.7731 51.0392 49.0528 51.1309 49.1882 51.098C49.0569 51.0771 48.9094 51.0123 48.8862 50.9465ZM47.2541 41.9392C47.2976 41.9761 47.339 42.011 47.3773 42.0449C49.2589 42.8105 50.5061 44.1721 51.5676 45.772C51.5817 45.7162 51.5938 45.6624 51.6049 45.6095C50.5172 44.0056 49.2215 42.659 47.2541 41.9392ZM52.1856 45.3882C52.1059 45.0005 52.0614 44.5948 52.0786 44.201C52.118 43.3059 51.9624 42.4636 51.616 41.6322C50.8232 39.7313 50.0941 37.8054 49.2892 35.9105C48.5479 34.1681 47.7854 32.4316 46.9512 30.731C46.225 29.2498 45.2333 27.928 44.1142 26.7039C42.8438 25.3143 41.3692 24.163 39.7523 23.2041C38.2566 22.3159 36.7124 21.5055 35.1945 20.6542C34.5532 20.2933 34.1452 19.8009 34.02 19.0274C33.923 18.4333 33.6089 17.8731 33.3857 17.2929C33.3382 17.2849 33.2878 17.278 33.2342 17.27C33.2211 17.268 33.2049 17.284 33.2312 17.271C33.4544 17.8591 33.7755 18.4253 33.8735 19.0274C33.9987 19.8009 34.4068 20.2933 35.0481 20.6542C36.566 21.5055 38.1102 22.3159 39.6059 23.2041C41.2228 24.163 42.6973 25.3143 43.9678 26.7039C45.0868 27.928 46.0786 29.2498 46.8047 30.731C47.6389 32.4316 48.4024 34.1681 49.1427 35.9105C49.9476 37.8054 50.6768 39.7313 51.4696 41.6322C51.816 42.4636 51.9725 43.3059 51.9322 44.201C51.915 44.5948 51.9594 45.0005 52.0392 45.3882C52.326 46.7808 52.3624 48.1714 51.8675 49.5131C51.4656 50.6026 50.7808 51.5117 49.5942 51.8855C47.4662 52.5554 45.3181 53.1664 43.2003 53.8672C42.5135 54.0934 41.8884 54.5101 41.2551 54.875C41.141 54.9397 41.0501 55.1889 41.0794 55.3255C41.2279 56.0352 41.1885 56.103 40.4381 56.1648C40.3795 56.1698 40.323 56.1997 40.1129 56.2675C40.5754 56.438 40.9067 56.5606 41.239 56.6832C41.2319 56.731 41.2248 56.7779 41.2178 56.8247C41.0137 56.8586 40.8097 56.8965 40.6047 56.9254C40.3068 56.9673 40.0058 56.9932 39.7099 57.043C39.4383 57.0899 39.313 57.2384 39.3504 57.5365C39.4544 58.3748 39.5746 59.2141 39.618 60.0574C39.7443 62.4597 39.9069 64.8631 39.923 67.2664C39.9432 70.2379 39.8271 73.2094 39.7786 76.1809C39.7635 77.0741 39.7786 77.0801 38.9101 77.3203C38.698 77.3791 38.4778 77.406 38.1768 77.4549C38.1698 77.4648 38.1627 77.4738 38.1556 77.4838C38.5455 77.415 38.807 77.3891 39.0565 77.3203C39.925 77.0801 39.9099 77.0741 39.925 76.1809C39.9735 73.2094 40.0897 70.2379 40.0695 67.2664C40.0533 64.8631 39.8907 62.4597 39.7645 60.0574C39.721 59.2141 39.6008 58.3748 39.4968 57.5365C39.4595 57.2384 39.5847 57.0899 39.8564 57.043C40.1523 56.9932 40.4532 56.9673 40.7512 56.9254C40.9562 56.8965 41.1602 56.8586 41.3642 56.8247C41.3713 56.7779 41.3783 56.731 41.3854 56.6832C41.0531 56.5606 40.7219 56.438 40.2593 56.2675C40.4694 56.1997 40.526 56.1698 40.5845 56.1648C41.3349 56.103 41.3733 56.0352 41.2258 55.3255C41.1965 55.1889 41.2874 54.9397 41.4016 54.875C42.0348 54.5101 42.6599 54.0934 43.3467 53.8672C45.4645 53.1664 47.6117 52.5554 49.7406 51.8855C50.9273 51.5117 51.612 50.6026 52.014 49.5131C52.5088 48.1714 52.4715 46.7808 52.1856 45.3882ZM62.0174 37.1954C61.8295 34.9057 61.3548 32.6589 60.5903 30.4968C59.9621 28.7165 59.2542 26.9451 58.3755 25.2754C57.614 23.8291 56.6193 22.4903 55.6315 21.1735C53.3602 18.1482 50.495 15.7638 47.2117 13.8689C45.2302 12.7255 43.1437 11.7855 40.9077 11.2512C39.5918 10.9372 38.2344 10.7917 36.8922 10.5903C36.8165 10.5794 36.7397 10.5774 36.6629 10.5813C36.6912 10.5833 36.7185 10.5863 36.7458 10.5903C38.088 10.7917 39.4463 10.9372 40.7623 11.2512C42.9973 11.7855 45.0838 12.7255 47.0653 13.8689C50.3486 15.7638 53.2138 18.1482 55.4851 21.1735C56.4728 22.4903 57.4676 23.8291 58.2291 25.2754C59.1077 26.9451 59.8157 28.7165 60.4439 30.4968C61.2084 32.6589 61.6831 34.9057 61.8709 37.1954C62.0477 39.3485 62.0264 41.4987 61.7942 43.6538C61.5164 46.2295 60.8862 48.7236 59.9945 51.1399C59.0623 53.6668 57.7827 56.0293 56.1587 58.2113C54.4428 60.5179 52.4452 62.5255 50.1244 64.2351C48.6256 65.3395 47.0491 66.3154 45.3575 67.1019C44.4314 67.5335 43.4941 67.9502 42.5377 68.3111C41.9661 68.5264 41.3571 68.645 40.7592 68.7975C40.7603 68.8095 40.7603 68.8224 40.7613 68.8344C41.4056 68.6639 42.0661 68.5433 42.6842 68.3111C43.6406 67.9502 44.5768 67.5335 45.5039 67.1019C47.1956 66.3154 48.7721 65.3395 50.2708 64.2351C52.5916 62.5255 54.5893 60.5179 56.3052 58.2113C57.9291 56.0293 59.2087 53.6668 60.1409 51.1399C61.0327 48.7236 61.6629 46.2295 61.9406 43.6538C62.1729 41.4987 62.1941 39.3485 62.0174 37.1954Z" fill="white"/>
<path d="M63.2182 34.5149C62.69 31.5853 61.8598 28.7484 60.558 26.044C60.0349 24.9575 59.4592 23.9068 58.829 22.894C58.7916 22.8332 58.7543 22.7734 58.7159 22.7136C57.6565 21.034 56.4415 19.461 55.0559 18.0027C53.6299 16.5024 52.1008 15.1109 50.3981 13.9416C49.8961 13.5967 49.379 13.2708 48.8458 12.9677C47.2481 12.0606 45.6039 11.1994 43.8961 10.5245C41.2784 9.48784 38.5202 8.96252 35.6884 8.89075C35.3591 8.88277 35.2561 8.76315 35.2501 8.44617C35.248 8.35346 35.247 8.26076 35.245 8.16805C35.2319 7.56298 35.2107 6.95692 35.1289 6.36082C35.0955 6.11461 34.8158 5.90528 34.6673 5.66803C34.5724 5.51751 34.432 5.33709 34.4502 5.18557C34.5825 4.04123 34.0351 3.22085 33.2302 2.49317C33.0282 2.31075 32.9161 2.03463 32.7313 1.82929C32.5697 1.65185 32.3839 1.42558 32.1728 1.37773C31.7688 1.28503 31.3386 1.30197 30.9195 1.27805C30.3307 1.24316 29.7944 1.17338 29.3157 0.713848C29.0198 0.428759 28.5138 0.279236 28.0815 0.224411C27.0736 0.0968181 26.0546 0.0130854 25.0386 0.00112363C25.0174 0.000126815 24.9952 0.000126815 24.974 0.000126815C24.4579 -0.00485727 23.9176 0.137688 23.4278 0.319109C22.7562 0.568313 22.1472 0.996945 21.4655 1.20329C20.807 1.40165 20.3485 1.76649 19.9778 2.2958C19.7799 2.57889 19.492 2.83807 19.4032 3.15207C19.1325 4.10502 18.9527 5.0839 18.7083 6.04483C18.5669 6.60205 18.3599 7.14332 18.2094 7.69855C18.1852 7.78627 18.271 7.95274 18.3559 8.00856C18.5175 8.11522 18.7154 8.16706 18.8921 8.23982C18.8921 9.04725 18.9073 9.80981 18.88 10.5714C18.878 10.6352 18.8588 10.7089 18.8265 10.7787C18.8164 10.8026 18.8053 10.8256 18.7922 10.8475C18.78 10.8704 18.7669 10.8914 18.7518 10.9123C18.7518 10.9143 18.7497 10.9153 18.7487 10.9173C18.7427 10.9262 18.7356 10.9342 18.7295 10.9422C18.7235 10.9502 18.7174 10.9571 18.7114 10.9631C18.7023 10.9731 18.6932 10.9831 18.6841 10.991C18.6649 11.01 18.6447 11.0249 18.6245 11.0379C18.2114 11.2911 17.7752 11.5104 17.3308 11.7058C15.223 12.6298 13.3547 13.9297 11.5822 15.3551C10.4652 16.2532 9.42097 17.2251 8.45042 18.2678C8.37468 18.3495 8.29893 18.4313 8.22521 18.514C8.15754 18.5888 8.08988 18.6635 8.02322 18.7393C7.42635 19.4072 6.86079 20.103 6.32552 20.8256C6.26695 20.9054 6.20837 20.9841 6.1508 21.0639C6.14171 21.0758 6.13262 21.0888 6.12353 21.1008C6.05688 21.1935 5.99022 21.2852 5.92458 21.3779C5.89226 21.4227 5.85994 21.4676 5.82863 21.5135C5.77107 21.5932 5.71552 21.6739 5.65997 21.7547C5.58625 21.8593 5.51454 21.965 5.44284 22.0717C3.69565 24.6514 2.32719 27.4256 1.43138 30.423C1.39805 30.5337 1.36573 30.6443 1.33442 30.7559C0.863794 32.3828 0.503247 34.0325 0.277022 35.7042C0.269952 35.758 0.262883 35.8118 0.255813 35.8666C0.14068 36.7538 0.0639254 37.6469 0.0295876 38.5461C0.0295876 38.56 0.0295876 38.574 0.0295876 38.5879C0.0103988 39.0684 0.00231934 39.5489 0.00231934 40.0273C0.00231934 40.134 0.00231934 40.2407 0.00433921 40.3473C0.00433921 40.449 0.00635908 40.5517 0.00938888 40.6534C0.0467565 43.0527 0.320449 45.4291 0.870863 47.7876C1.71315 51.3981 3.11292 54.7683 5.15703 57.8754C6.23867 59.5171 7.43241 61.0752 8.87258 62.4328C9.02912 62.5804 9.22908 62.683 9.4947 62.8654V62.6691C9.49672 61.9803 9.50076 61.3912 9.48662 60.802C9.48359 60.6884 9.38764 60.5668 9.3119 60.4661C8.22622 59.0137 7.05873 57.6152 6.06698 56.103C4.59651 53.8602 3.64212 51.3711 2.89376 48.8113C2.10702 46.1189 1.71719 43.3597 1.67881 40.5616C1.64447 38.0517 1.94139 35.5726 2.50999 33.1174C2.96446 31.1517 3.58456 29.2418 4.41674 27.4116C5.44385 25.1528 6.72243 23.0356 8.29692 21.0868C9.67649 19.3793 11.1833 17.8033 12.9345 16.4815C14.2515 15.4867 15.6543 14.5975 17.0551 13.7173C17.7085 13.3066 18.4468 13.0275 19.1497 12.6876C19.1547 12.7086 19.1598 12.7285 19.1658 12.7494C19.8122 15.3342 20.9383 17.6468 22.1472 19.9305C21.9048 20.0122 21.618 20.098 21.3402 20.2056C20.1212 20.6761 18.9144 21.1765 17.6863 21.6231C15.7714 22.3199 14.3666 23.5499 13.6173 25.428C13.2941 26.2394 13.1052 27.1066 12.8871 27.9559C12.5063 29.4342 12.1276 30.9134 11.7903 32.4007C11.457 33.871 11.1904 35.3553 10.8652 36.8266C10.7369 37.4067 10.538 37.9719 10.3582 38.577C10.3501 38.6009 10.343 38.6248 10.336 38.6488C10.0411 38.4763 9.80576 38.3387 9.5765 38.2062C9.5462 38.1892 9.5149 38.1713 9.4846 38.1533C9.44016 38.1962 9.39572 38.2391 9.35129 38.2829C9.48258 38.4673 9.59266 38.6717 9.7492 38.8322C10.0178 39.1063 10.2612 39.3884 10.14 39.7951C9.79263 40.9554 9.41289 42.1057 9.07255 43.268C8.66756 44.6516 8.24743 46.0322 7.91516 47.4337C7.57582 48.8631 8.14946 49.833 9.51086 50.2667C9.90675 50.3923 10.0189 50.5926 9.99563 50.9963C9.93705 52.056 9.88655 53.1196 9.91382 54.1802C9.97947 56.75 10.1037 59.3198 10.1784 61.8896C10.1956 62.5106 10.2986 63.0897 10.5299 63.6101C10.539 63.632 10.5491 63.6529 10.5582 63.6729C10.7733 64.1384 11.0954 64.555 11.5529 64.9109C12.9093 65.9645 14.2788 67.0022 15.6553 68.03C15.8563 68.1795 16.129 68.2363 16.5026 68.3918H16.5036C16.5026 68.3729 16.5006 68.3529 16.4996 68.333C16.4713 67.8705 16.4542 67.5166 16.4239 67.1637C16.3693 66.5307 16.3148 65.8968 16.2441 65.2648C16.2168 65.0216 16.1734 64.7704 16.0805 64.5461C15.9785 64.2979 15.8118 64.0756 15.6553 63.8114C15.8421 63.7616 15.9815 63.7247 16.1552 63.6788C15.933 63.3808 15.7805 63.011 15.5018 62.8385C14.8908 62.4587 14.5403 61.9773 14.708 61.2805C14.9322 60.3525 15.2079 59.4344 15.5291 58.5343C15.621 58.2771 15.9209 58.0628 16.1704 57.8943C16.543 57.6441 16.8662 57.4188 16.8753 56.8975C16.8814 56.5237 16.9854 56.1399 17.1086 55.7821C17.7529 53.905 18.1852 51.9762 18.3316 50.0095C18.4821 47.9879 18.4912 45.9574 18.5427 43.9299C18.5457 43.7864 18.5498 43.6438 18.5538 43.5003C18.5579 43.3607 18.4973 43.2212 18.4841 43.1594C18.1771 45.8348 17.8893 48.5761 17.5419 51.3103C17.2025 53.9758 16.1077 56.3881 14.8898 58.7576C14.8302 58.8732 14.7706 58.9898 14.71 59.1054C14.7585 58.6001 14.8059 58.0947 14.8534 57.5893C14.8514 57.5893 14.8484 57.5883 14.8463 57.5883C14.7989 57.5813 14.7524 57.5753 14.705 57.5684C14.6545 57.7677 14.5908 57.9651 14.5565 58.1674C14.4929 58.5413 14.4424 58.917 14.3949 59.2938C14.2687 60.2996 13.7889 61.3124 14.4868 62.3142C14.4979 62.3312 14.51 62.3491 14.5232 62.366C13.7657 62.1836 13.494 61.7839 13.6395 61.0841C13.7597 60.501 13.9697 59.9308 14.0414 59.3437C14.308 57.1487 15.222 55.1889 16.2219 53.2541C16.2673 53.1684 16.2411 53.0448 16.2431 52.9371C16.2431 52.9312 16.2431 52.9262 16.2441 52.9202C16.129 52.9371 16.0078 52.9381 15.8997 52.976C15.7957 53.0129 15.6967 53.0647 15.5967 53.1156C15.5604 53.1345 15.524 53.1534 15.4877 53.1714C15.4584 53.1265 15.4281 53.0827 15.3988 53.0388C15.4796 52.9471 15.5422 52.8135 15.6432 52.7717C16.132 52.5743 15.9734 52.339 15.7674 52.0061C15.319 51.2804 14.8332 50.5956 14.1576 50.0563C14.1454 50.0464 14.1656 49.9975 14.1788 49.9168C14.405 49.8769 14.8059 50.0234 14.712 49.4642C14.7595 49.4702 14.807 49.4762 14.8544 49.4822C14.8575 49.4852 14.8595 49.4881 14.8625 49.4911C15.2937 49.9626 15.725 50.4351 16.0835 50.8269C16.0997 50.79 16.1148 50.7531 16.129 50.7162C16.7602 49.1971 17.0631 47.5992 16.8995 45.9395C16.8894 45.9365 16.8804 45.9345 16.8703 45.9315C16.8258 45.9205 16.7804 45.9086 16.7359 45.8966C16.642 46.1717 16.5471 46.4459 16.4602 46.6991C16.2108 46.7619 15.9552 46.8256 15.6987 46.8894C15.6563 46.9004 15.6139 46.9104 15.5715 46.9213C15.5432 46.8755 15.5159 46.8286 15.4887 46.7828C15.6139 46.6512 15.7452 46.5236 15.8633 46.3851C16.3481 45.8169 17.0076 45.3414 16.9157 44.4642C16.8278 43.6249 16.7743 42.7816 16.6491 41.9472C16.3764 40.129 16.0431 38.3188 15.7795 36.4986C15.5038 34.5957 15.2362 32.6898 15.6462 30.7639C15.8391 29.8568 16.4925 28.3706 17.0207 27.8572C16.9632 28.0007 16.9197 28.1084 16.8804 28.2111C16.8713 28.231 16.8642 28.2509 16.8561 28.2709C16.1229 30.1559 15.8371 32.0977 16.3289 34.0744C16.7602 35.8088 17.3055 37.5164 17.8105 39.2329C17.8721 39.4412 17.9953 39.6306 18.1418 39.9366C18.164 39.8639 18.1822 39.8061 18.1983 39.7572C18.2306 39.6595 18.2498 39.6007 18.2609 39.5399C18.4003 38.7743 18.4962 37.9998 18.6821 37.2452C18.9871 36.0072 19.2991 34.7671 19.7011 33.558C20.0505 32.5054 20.4505 31.4547 20.9655 30.4738C21.7917 28.8989 22.736 27.3857 23.6207 25.8396C23.7368 25.6363 24.0367 25.4459 23.7368 25.1498C23.5419 24.9565 23.4177 24.6644 23.1924 24.5378C23.0985 24.486 22.9692 24.4521 22.84 24.4431C22.7016 24.4331 22.5633 24.4501 22.4683 24.5029C22.132 24.6873 21.8432 24.9545 21.4937 25.2425H21.4927C21.4432 25.2834 21.3927 25.3253 21.3402 25.3661C21.3624 25.092 21.3281 24.8787 21.4018 24.7122C21.6523 24.154 21.4857 23.6805 21.1756 23.214C21.0928 23.0904 21.0352 22.9499 20.9797 22.8123C20.7908 22.3448 20.6514 22.1275 20.3899 22.0966C20.2202 22.0747 20.001 22.1325 19.6839 22.2521C18.9649 22.5232 18.2337 22.7834 17.557 23.1393C16.4723 23.7094 15.5159 24.4581 15.0918 25.6522C14.6373 26.9282 14.1949 28.2151 13.8627 29.5259C13.1284 32.4216 12.47 35.3363 11.7681 38.2401C11.7125 38.4733 11.5853 38.7036 11.4378 38.895C11.4116 38.9279 11.356 38.9458 11.2904 38.9528H11.2883C11.2055 38.9608 11.1096 38.9528 11.0369 38.9388C10.9894 38.9299 10.9298 38.7474 10.95 38.6627C11.2096 37.621 11.5045 36.5883 11.7479 35.5427C12.4104 32.6997 13.0163 29.8439 13.7132 27.0089C14.306 24.6006 15.6765 22.8163 18.1842 22.0637C18.9669 21.8284 19.7869 21.6899 20.4454 21.1496C20.7272 20.9193 21.0069 20.6442 21.3372 20.5256C21.524 20.4588 21.7088 20.4369 21.8906 20.4459H21.8947C22.2835 20.4648 22.6632 20.6223 23.0319 20.7828C23.2288 20.8675 23.4318 20.9393 23.6742 21.034C23.6732 21.014 23.6722 20.9951 23.6712 20.9762C23.6075 19.6055 23.7045 19.5457 22.8693 19.0882C22.8279 19.0643 22.7844 19.0413 22.739 19.0164C22.6723 19.3125 22.6077 19.6026 22.542 19.8936C22.541 19.8976 22.54 19.9026 22.539 19.9066C22.4926 19.9096 22.4471 19.9126 22.4007 19.9156C22.3431 19.6554 22.2461 19.3962 22.236 19.134C22.2057 18.3954 21.9583 17.7564 21.4432 17.2182C21.3332 17.1025 21.1766 16.9999 21.1302 16.8623C20.6272 15.3651 20.1414 13.8639 19.6567 12.3617C19.6284 12.2729 19.6597 12.1663 19.6557 12.0686C19.6486 11.8633 19.6567 11.6549 19.6233 11.4526C19.5718 11.1376 19.4961 10.8256 19.4375 10.5126C19.4062 10.3461 19.3799 10.1796 19.3638 10.0122C19.3153 9.50279 19.3597 8.98544 19.3325 8.47308C19.3234 8.28767 19.2224 8.10824 19.1689 7.92483C19.1062 7.70752 18.9558 7.4653 19.0053 7.2749C19.287 6.20133 19.7364 5.15866 19.9031 4.07113C20.1404 2.5151 21.32 1.97183 22.4915 1.36078C22.5309 1.34085 22.6107 1.33786 22.6491 1.3568C22.6562 1.35979 22.6622 1.36377 22.6663 1.36876C22.7824 1.5113 22.8885 1.53323 22.9804 1.50133C23.0824 1.46545 23.1672 1.36278 23.2328 1.28203C23.6227 0.798578 24.1054 0.686934 24.6356 0.694909C24.6377 0.693912 24.6407 0.693912 24.6427 0.694909C24.7932 0.696903 24.9477 0.709861 25.1063 0.72581C25.989 0.816521 26.8797 0.836457 27.7634 0.924177C28.132 0.961059 28.4997 1.06872 28.8521 1.18933C29.0753 1.26609 29.2692 1.42657 29.5995 1.62195C29.8984 2.01071 29.9893 2.5759 29.5661 3.26072C29.6611 3.17998 29.751 3.10422 29.8368 3.03245C30.1438 2.77228 30.4004 2.55597 30.6781 2.32172C30.5306 2.25991 30.3822 2.24396 30.3327 2.16621C30.2327 2.01171 30.1691 1.8263 30.1317 1.64488C30.1236 1.607 30.3054 1.47342 30.3832 1.48638C30.4084 1.49037 30.4347 1.49436 30.4599 1.49934C31.0376 1.59204 31.6133 1.6997 32.1849 1.8263C32.295 1.85122 32.3768 1.99576 32.4788 2.09145C32.3637 2.22403 32.2627 2.33866 32.1162 2.50613C32.3354 2.59783 32.5222 2.63771 32.6596 2.74237C32.9302 2.94871 33.2797 3.14409 33.4069 3.42719C33.6786 4.03325 34.0846 4.62038 33.9483 5.35603C33.926 5.47963 34.0604 5.66006 34.1664 5.77469C34.5108 6.14551 34.6784 6.54723 34.6431 7.07155C34.6199 7.41645 34.5997 7.76035 34.5805 8.10525C34.5239 9.15092 34.4835 10.1976 34.4391 11.2442C34.3765 12.7205 33.7654 13.8788 32.4879 14.6364C32.3647 15.3601 32.2435 16.0798 32.1213 16.7985C32.1819 16.8154 32.2415 16.8324 32.301 16.8483C32.3071 16.8364 32.3142 16.8254 32.3202 16.8135C32.4626 16.5563 32.6081 16.2991 32.7454 16.0379C32.9141 15.718 33.0231 15.3511 33.2484 15.077C34.122 14.0134 34.7471 12.8521 34.9764 11.4835C35.0572 10.999 35.3147 10.5823 35.9419 10.6132H35.953C35.9944 10.6152 36.0368 10.6152 36.0792 10.6132H36.0883C36.2782 10.6043 36.4701 10.5704 36.6559 10.5813H36.664C36.6922 10.5833 36.7195 10.5863 36.7468 10.5903C38.089 10.7917 39.4473 10.9372 40.7633 11.2512C42.9983 11.7855 45.0848 12.7255 47.0663 13.8689C50.3496 15.7638 53.2148 18.1482 55.4861 21.1735C56.4738 22.4903 57.4686 23.8291 58.2301 25.2754C59.1088 26.9451 59.8167 28.7165 60.4449 30.4968C61.2094 32.6589 61.6841 34.9057 61.8719 37.1954C62.0487 39.3485 62.0275 41.4987 61.7952 43.6538C61.5174 46.2295 60.8872 48.7236 59.9955 51.1399C59.0633 53.6668 57.7837 56.0293 56.1597 58.2113C54.4439 60.5179 52.4462 62.5255 50.1254 64.2351C48.6266 65.3395 47.0501 66.3154 45.3585 67.1019C44.4324 67.5335 43.4952 67.9502 42.5388 68.3111C41.9671 68.5264 41.3581 68.645 40.7603 68.7975C40.7118 68.8095 40.6643 68.8214 40.6158 68.8344C40.426 65.0096 40.2401 61.2616 40.0503 57.4487H40.1967C40.4694 57.4477 40.7502 57.4457 41.0299 57.4487H41.0865C41.7237 57.4438 41.8671 57.2274 41.6712 56.5895C41.3693 55.6096 41.4309 55.3614 42.3903 54.9816C43.886 54.3895 45.41 53.8622 46.936 53.3468C47.6824 53.0946 48.462 52.9431 49.2205 52.7258C50.1213 52.4686 50.9343 52.0569 51.5474 51.3293C52.4119 50.3035 52.727 49.0874 52.829 47.7886C52.9199 46.6313 52.4937 45.4889 52.7512 44.3256C52.7946 44.1293 52.6896 43.904 52.6745 43.6907C52.6654 43.5621 52.7098 43.4295 52.7058 43.2999C52.6987 43.0427 52.7441 42.7576 52.6462 42.5363C52.2947 41.7419 51.8352 40.9923 51.5191 40.1858C50.2365 36.9093 48.9609 33.6318 47.3511 30.4908C46.12 28.0875 44.4657 26.0241 42.3337 24.3524C40.1563 22.6438 37.7254 21.3241 35.2612 20.076C34.529 19.7062 34.2088 19.2297 34.232 18.4452C34.2613 17.4743 34.2482 17.4225 33.3867 17.2929C33.3393 17.2849 33.2888 17.278 33.2352 17.27C33.2221 17.268 33.2059 17.284 33.2322 17.271C33.4554 17.8591 33.7766 18.4253 33.8745 19.0274C33.9998 19.8009 34.4078 20.2933 35.0491 20.6542C36.567 21.5055 38.1112 22.3159 39.6069 23.2041C41.2238 24.163 42.6983 25.3143 43.9688 26.7039C45.0878 27.928 46.0796 29.2498 46.8057 30.731C47.6399 32.4316 48.4035 34.1681 49.1437 35.9105C49.9487 37.8054 50.6778 39.7313 51.4706 41.6322C51.817 42.4636 51.9736 43.3059 51.9332 44.201C51.916 44.5948 51.9604 45.0005 52.0402 45.3882C52.327 46.7808 52.3634 48.1714 51.8685 49.5131C51.4666 50.6026 50.7818 51.5117 49.5952 51.8855C47.4672 52.5554 45.3191 53.1664 43.2013 53.8672C42.5145 54.0934 41.8894 54.5101 41.2561 54.875C41.142 54.9397 41.0511 55.1889 41.0804 55.3255C41.2289 56.0352 41.1895 56.103 40.4391 56.1648C40.3805 56.1698 40.324 56.1997 40.1139 56.2675C40.5765 56.438 40.9077 56.5606 41.24 56.6832C41.2329 56.731 41.2258 56.7779 41.2188 56.8247C41.0148 56.8586 40.8108 56.8965 40.6057 56.9254C40.3078 56.9673 40.0069 56.9932 39.7109 57.043C39.4393 57.0899 39.314 57.2384 39.3514 57.5365C39.4554 58.3748 39.5756 59.2141 39.619 60.0574C39.7453 62.4597 39.9079 64.8631 39.924 67.2664C39.9442 70.2379 39.8281 73.2094 39.7796 76.1809C39.7645 77.0741 39.7796 77.0801 38.9111 77.3203C38.699 77.3791 38.4788 77.406 38.1779 77.4549C38.1253 77.4638 38.0688 77.4738 38.0102 77.4838C38.3102 77.0841 38.5051 76.8239 38.7 76.5637C38.696 76.5607 38.6919 76.5577 38.6879 76.5547C38.6677 76.5388 38.6485 76.5238 38.6283 76.5079C38.596 76.5258 38.5626 76.5428 38.5243 76.5637C38.4556 76.6006 38.3687 76.6465 38.2314 76.7202C38.4364 76.5019 38.5445 76.3863 38.6899 76.2318C38.5222 76.1849 38.4101 76.154 38.189 76.0932C38.5758 75.9327 38.8616 75.8131 39.1474 75.6945C39.1423 75.6387 39.1363 75.5838 39.1312 75.528C38.8373 75.4931 38.5435 75.4582 38.193 75.4174C38.493 75.2938 38.7616 75.1841 39.0434 75.0675C38.8909 75.0306 38.7555 74.9977 38.4697 74.9269C38.7838 74.7774 38.9515 74.6977 39.1191 74.6179C39.1171 74.593 39.1151 74.5671 39.1131 74.5412H38.3445C38.3344 74.5053 38.3243 74.4684 38.3142 74.4315C38.5919 74.287 38.8697 74.1424 39.1726 73.9849C39.1676 73.8773 39.1464 73.7288 39.1565 73.5822C39.1868 73.1097 39.2777 72.6213 38.6354 72.4459C38.5525 72.4229 38.4899 72.3322 38.3233 72.1957H39.1716C39.1262 71.7202 38.9353 71.4181 38.3425 71.4152C38.6051 71.3015 38.7424 71.2417 38.9444 71.154C38.7646 71.0384 38.6586 70.9706 38.5334 70.8908C38.6626 70.821 38.7646 70.7672 38.8434 70.7254C38.6434 70.5908 38.4748 70.4761 38.2374 70.3167C38.5354 70.1312 38.6253 70.0336 38.7283 70.0176C39.112 69.9588 39.1989 69.7156 39.2201 69.3806C39.2393 69.0766 39.2757 68.8284 38.9242 68.636C38.5435 68.4267 37.9476 68.331 38.1455 67.6282C38.1768 67.5186 37.9153 67.3252 37.783 67.1747C37.3043 66.6284 36.7821 66.1131 36.3519 65.5309C35.3248 64.1424 34.9036 62.5674 35.043 60.8549C35.0784 60.4123 35.1753 59.9757 35.2561 59.4743C35.2581 59.4633 35.2602 59.4513 35.2622 59.4394C34.9491 59.5072 34.6966 59.5949 34.4401 59.6108C33.4706 59.6736 32.5232 59.8092 31.6032 60.1511C30.3943 60.5997 29.1743 61.0283 27.9422 61.4101C26.9504 61.7181 25.9324 61.9414 24.9285 62.2085C24.871 62.2235 24.8184 62.2335 24.769 62.2384C24.4478 62.2733 24.2902 62.0989 24.2852 61.7351C24.2801 61.3872 24.2812 61.0373 24.3226 60.6924C24.3397 60.5488 24.468 60.4173 24.5458 60.2797C24.574 60.2966 24.6023 60.3126 24.6306 60.3285V61.9833C24.6801 61.9773 24.7286 61.9713 24.777 61.9643C25.489 61.8537 26.0415 61.5417 26.4879 60.9436C26.7989 60.5259 27.2635 60.192 27.718 59.9109C28.4067 59.4852 29.142 59.1294 29.8661 58.7595C30.9195 58.2223 31.9627 57.6621 33.0444 57.1876C33.4312 57.0181 33.8028 56.7001 34.2664 56.733C34.2664 56.733 34.2664 56.732 34.2684 56.733C34.3563 56.739 34.4472 56.7579 34.5431 56.7928C34.5694 56.8018 34.6047 56.7948 34.6421 56.7769C34.7087 56.748 34.7855 56.6892 34.838 56.6433C34.9703 56.5267 35.0551 56.3373 35.2026 56.2645C36.1166 55.812 37.0205 55.3295 37.9678 54.9577C39.918 54.1931 41.9035 53.5163 43.8547 52.7557C44.9788 52.3171 46.0755 51.8048 47.1643 51.2854C47.8076 50.9794 47.85 50.6604 47.3733 50.1251C47.0299 49.7393 46.634 49.3994 46.2998 49.0067C45.5938 48.1773 44.6677 47.6829 43.6689 47.3211C43.4154 47.2294 43.1528 47.1755 42.8922 47.1696C42.4812 47.1566 42.0782 47.2623 41.7338 47.5194C40.7067 48.288 39.7655 49.1692 38.7485 49.9527C37.3729 51.0133 35.958 52.0241 34.5633 53.0607C34.3401 53.2272 34.1331 53.4146 33.92 53.595C33.9038 53.609 33.8866 53.6239 33.8695 53.6379C33.0555 53.2751 32.195 52.8624 31.3123 52.5045C30.5791 52.2075 29.8176 52.032 29.0501 52.0221C28.638 52.0161 28.2229 52.0579 27.8099 52.1536C26.6535 52.4228 25.5274 52.8245 24.4034 53.2113C24.167 53.292 23.9974 53.5592 23.7429 53.7894C23.9388 53.8632 24.1165 53.8861 24.2842 53.8761C24.8467 53.8432 25.281 53.4425 25.8001 53.4076C25.7829 53.4176 25.7647 53.4286 25.7476 53.4385C25.3042 53.7007 24.8619 53.9629 24.4185 54.225C24.4337 54.2868 24.4488 54.3496 24.4629 54.4114C24.6215 54.4114 24.7881 54.4383 24.9437 54.4284C24.9972 54.4244 25.0497 54.4164 25.1002 54.4025C25.6627 54.237 26.2071 54.0137 26.7696 53.8472C26.8898 53.8123 27.0433 53.7894 27.1766 53.8014H27.1776C27.2524 53.8084 27.3211 53.8263 27.3746 53.8582C27.825 54.1283 27.9856 55.0564 27.6968 55.5059C27.2504 56.2017 26.498 56.4419 25.7779 56.7051C25.4547 56.8237 25.4042 56.9394 25.4557 57.2813C25.5547 57.9282 25.5597 58.5911 25.5658 59.248C25.5688 59.562 25.4012 59.6746 25.185 59.6936C25.0911 59.7015 24.9871 59.6916 24.8851 59.6736H24.8841C24.5862 59.6208 24.1549 59.9198 24.1448 60.2318C24.1317 60.6645 23.9307 60.9097 23.5853 60.9386H23.5843C23.4873 60.9466 23.3793 60.9376 23.2611 60.9117C23.0783 60.8718 22.8915 60.806 22.7097 60.7901H22.7087C22.6622 60.7861 22.6168 60.7851 22.5713 60.7891C22.3815 60.804 22.0926 60.9127 22.0462 61.0472C21.9926 61.1988 22.1058 61.5247 22.2451 61.6015C22.6723 61.8377 23.1409 62.0032 23.6045 62.1687C23.7035 62.2036 23.8156 62.2036 23.9287 62.2006C23.9852 62.2006 24.0428 62.1986 24.0984 62.2006C23.4409 62.2075 23.5651 62.6242 23.6489 63.008C23.965 64.4484 24.2024 65.9127 24.6296 67.3202C24.9921 68.5174 25.2164 69.8342 26.4313 70.6167C26.6404 70.7513 26.6939 71.1081 26.8504 71.3414C26.9332 71.467 27.0756 71.5577 27.2019 71.6494C27.3493 71.7561 27.6291 71.8398 27.6351 71.9475C27.6493 72.1658 27.5847 72.4658 27.4321 72.6004C27.1595 72.8426 27.2393 73.043 27.3423 73.3001C27.5604 73.8494 27.8028 74.3936 27.9603 74.9598C28.1108 75.5001 28.1664 76.0643 28.2633 76.6185C28.2967 76.8099 28.3744 76.9465 28.5047 77.0402C28.5875 77.1 28.6905 77.1419 28.8178 77.1708C29.4954 77.3243 30.1741 77.4618 30.8558 77.5785C30.8669 77.5805 30.878 77.5825 30.8892 77.5845C32.4434 77.8486 34.0068 78.0041 35.5843 77.9971H35.5884C35.6106 77.9971 35.6318 77.9971 35.654 77.9961C36.2903 77.9922 36.9296 77.9613 37.5709 77.8995C37.9779 77.8616 38.3849 77.7778 38.7778 77.6652C38.8091 77.6562 38.8404 77.6463 38.8707 77.6363C39.1181 77.5526 39.3544 77.421 39.5847 77.2924C39.7978 77.1738 39.9897 77.0153 40.1594 76.8957C40.1604 76.8986 40.1694 76.9335 40.1846 76.9844C40.1977 77.0342 40.2159 77.098 40.2341 77.1628C40.2432 77.1528 40.2513 77.1439 40.2603 77.1339C40.2603 77.1339 40.2614 77.1319 40.2634 77.1299C40.2947 77.092 40.3199 77.0541 40.3391 77.0163C40.3957 76.9146 40.4159 76.8109 40.4219 76.7083C40.4522 76.1451 40.4896 75.5809 40.4936 75.0177C40.5047 73.7218 40.5088 72.4259 40.4906 71.1311C40.4876 70.9147 40.5058 70.7543 40.6118 70.6466C40.6845 70.5728 40.7966 70.524 40.9713 70.4971C41.1481 70.4702 41.3218 70.4293 41.4945 70.3814C41.4965 70.3805 41.4985 70.3805 41.5016 70.3795C41.7934 70.2967 42.0823 70.194 42.3731 70.1063C45.8544 69.0577 48.971 67.3192 51.8332 65.1312C53.6854 63.7167 55.3558 62.0969 56.7677 60.2528C57.8282 58.8682 58.8805 57.4507 59.7107 55.9276C60.9529 53.6499 61.9376 51.2475 62.5809 48.7196C63.1243 46.5904 63.507 44.4363 63.6636 42.2503C63.7161 41.5136 63.7403 40.778 63.7363 40.0433C63.7292 38.1912 63.5504 36.3461 63.2192 34.5149H63.2182ZM15.7906 53.5731C15.5422 53.7765 15.2948 53.9788 14.9958 54.222C15.019 53.7834 15.1291 53.6857 15.7906 53.5731ZM11.6196 44.1053C12.07 44.1432 12.5195 44.1811 12.9689 44.219C12.9658 44.2668 12.9618 44.3137 12.9588 44.3615C12.5083 44.3306 12.0579 44.2997 11.6075 44.2688C11.6115 44.215 11.6156 44.1602 11.6196 44.1053ZM11.7105 39.7632C13.1022 40.4909 14.51 41.1986 15.3018 42.5802C14.1222 41.6552 12.9164 40.7092 11.7105 39.7632ZM11.0005 39.5658C11.05 39.7453 11.1671 39.9356 11.1389 40.1021C10.7581 42.3539 10.3501 44.6017 9.96533 46.8526C9.88453 47.3211 9.81687 47.8025 9.83202 48.275C9.85322 48.8921 10.0007 48.9818 10.6329 48.8761C10.9955 48.8153 11.3489 48.6897 11.7125 48.6379C12.2377 48.5641 12.774 48.5601 13.2941 48.4674C13.587 48.4146 13.8637 48.2541 14.1374 48.1215C14.307 48.0388 14.4585 47.9192 14.6181 47.8165C14.6565 47.8584 14.6949 47.8992 14.7332 47.9411C14.6605 48.0747 14.5888 48.2082 14.503 48.3667H14.9463C13.9687 49.0276 13.2708 50.2138 11.8418 49.8879C12.2569 49.6516 12.7174 49.3905 13.1769 49.1303C13.1375 49.0645 13.0981 48.9987 13.0577 48.9329C12.572 49.2399 12.0852 49.545 11.6014 49.857C11.5085 49.9178 11.4419 50.0513 11.3459 50.0723C10.7581 50.1979 10.7349 50.5827 10.75 51.085C10.8177 53.3219 10.845 55.5598 10.8803 57.7976C10.8924 58.5393 10.8823 59.2819 10.7894 60.0444C10.7601 59.9986 10.7046 59.9527 10.7036 59.9059C10.6309 57.3869 10.5541 54.868 10.4986 52.348C10.4875 51.8187 10.5521 51.2884 10.5925 50.7591C10.6157 50.4451 10.5208 50.2966 10.1693 50.2278C9.03013 50.0075 8.47769 49.3526 8.52011 48.1963C8.54738 47.4756 8.64837 46.7399 8.83925 46.0441C9.35836 44.1592 9.94109 42.2911 10.5067 40.4191C10.5915 40.138 10.7238 39.8708 10.8339 39.5967C10.8894 39.5868 10.945 39.5758 11.0005 39.5658ZM24.9144 60.3475C24.9346 60.3126 24.9558 60.2787 24.979 60.2458C24.9962 60.2199 25.0144 60.196 25.0336 60.171C25.0548 60.1431 25.077 60.1162 25.1002 60.0903C25.1063 60.0833 25.1113 60.0773 25.1174 60.0714C25.1204 60.0674 25.1244 60.0634 25.1285 60.0594C25.1436 60.0425 25.1598 60.0255 25.177 60.0086C25.185 59.9996 25.1941 59.9916 25.2022 59.9846C25.2133 59.9727 25.2244 59.9627 25.2366 59.9527C25.2386 59.9498 25.2396 59.9488 25.2416 59.9478H25.2426C25.2628 59.9298 25.283 59.9119 25.3042 59.8939C25.3133 59.886 25.3214 59.879 25.3305 59.873C25.3456 59.861 25.3608 59.8481 25.3779 59.8371C25.4032 59.8172 25.4294 59.7982 25.4557 59.7803C25.488 59.7584 25.5224 59.7364 25.5577 59.7165C25.6011 59.6906 25.6516 59.6706 25.6829 59.6348C25.8688 59.4294 26.0162 59.0925 26.2374 59.0357C27.0262 58.8373 27.8381 58.7346 28.6421 58.5951C28.6633 58.632 28.6845 58.6688 28.7067 58.7057C27.3948 59.6916 26.0829 60.6774 24.776 61.6593C24.7679 61.6653 24.7609 61.6713 24.7528 61.6772C24.7427 61.6364 24.7346 61.5955 24.7265 61.5546C24.7195 61.5138 24.7134 61.4739 24.7084 61.433C24.7073 61.426 24.7063 61.4191 24.7063 61.4121C24.7053 61.4081 24.7053 61.4051 24.7053 61.4011C24.7013 61.3792 24.7003 61.3563 24.6993 61.3353C24.6983 61.3333 24.6983 61.3323 24.6993 61.3303C24.6983 61.3194 24.6972 61.3074 24.6972 61.2974C24.6922 61.2287 24.6922 61.1609 24.6972 61.0951C24.6972 61.0851 24.6972 61.0772 24.6972 61.0682C24.6972 61.0652 24.6972 61.0622 24.6983 61.0592C24.7003 61.0273 24.7033 60.9954 24.7073 60.9645C24.7104 60.9346 24.7154 60.9047 24.7215 60.8758C24.7235 60.8618 24.7265 60.8479 24.7296 60.8349C24.7336 60.811 24.7387 60.7891 24.7447 60.7661C24.7488 60.7512 24.7528 60.7362 24.7568 60.7213C24.7619 60.6994 24.769 60.6774 24.776 60.6565C24.778 60.6495 24.7801 60.6435 24.7821 60.6376C24.7922 60.6077 24.8033 60.5777 24.8154 60.5498C24.8164 60.5468 24.8174 60.5439 24.8184 60.5419C24.8184 60.5399 24.8205 60.5369 24.8215 60.5349C24.8235 60.5299 24.8255 60.5249 24.8285 60.5199C24.8376 60.497 24.8477 60.4741 24.8588 60.4512C24.8598 60.4482 24.8619 60.4452 24.8629 60.4432C24.878 60.4103 24.8962 60.3784 24.9144 60.3475Z" fill="white"/>
<path d="M51.6309 45.0025C51.3572 43.912 51.135 42.7995 50.7431 41.7499C50.0544 39.9008 49.2666 38.0866 48.497 36.2674C47.8497 34.7383 47.2488 33.1822 46.4792 31.7149C45.7874 30.3951 44.9936 29.1013 44.0594 27.941C43.2676 26.9561 42.2546 26.1268 41.2609 25.3233C40.3297 24.5707 39.3228 23.8969 38.2997 23.2689C37.1181 22.5432 35.8729 21.9212 34.6731 21.2224C34.3721 21.047 34.1822 20.9323 34.0398 20.9004C33.8005 20.8466 33.6934 21.025 33.4127 21.5384C32.2482 23.6646 30.2425 24.8478 28.2549 26.048C28.2509 26.051 28.2479 26.053 28.2438 26.055C28.1691 26.0998 27.961 25.9912 27.8489 25.9085C27.3945 25.5755 26.9743 25.1937 26.5017 24.8897C26.3977 24.8229 26.2906 24.7811 26.1846 24.7671H26.1835C25.9634 24.7382 25.7503 24.8349 25.5917 25.0911C25.5847 25.103 25.5766 25.114 25.5685 25.125C25.52 25.1937 25.4544 25.2615 25.3594 25.3771C25.4251 25.118 25.4655 24.9505 25.5069 24.785C25.5079 24.781 25.5089 24.7781 25.5099 24.7741C25.4695 24.7631 25.4281 24.7511 25.3877 24.7402C25.0312 25.2984 24.9302 25.9533 24.8999 26.5913C24.8282 28.1403 24.4222 29.5867 23.7799 30.9922C23.1295 32.4157 22.671 33.9049 22.4114 35.449C22.3195 35.9943 22.265 36.5465 22.1792 37.1964C22.2337 37.1795 22.2842 37.1655 22.3317 37.1516C22.5185 37.0997 22.6558 37.0678 22.7821 37.012C24.3313 36.3362 25.8755 35.6513 27.4248 34.9745C28.0691 34.6924 28.7235 34.4312 29.3669 34.1471C31.819 33.0676 34.2671 31.9801 36.7192 30.9025C36.9676 30.7929 37.1403 30.743 37.2676 30.7679C37.4554 30.8028 37.5463 30.9982 37.6382 31.4029C37.2676 31.5355 36.7869 31.5285 36.7333 32.1007C36.7252 32.1864 36.5808 32.2602 36.4415 32.3429C36.398 32.3688 36.3556 32.3957 36.3172 32.4237C36.289 32.309 36.2647 32.2681 36.2768 32.2512C36.3395 32.1585 36.4101 32.0718 36.4778 31.9831C36.4687 31.9731 36.4596 31.9641 36.4505 31.9542C36.4354 31.9392 36.4213 31.9242 36.4071 31.9093C35.8001 32.1744 35.1972 32.4496 34.5862 32.7028C33.1935 33.2809 31.7877 33.8292 30.402 34.4243C28.771 35.124 27.1602 35.8677 25.5331 36.5784C23.383 37.5184 21.2248 38.4424 19.0736 39.3814C18.915 39.4512 18.6757 39.5798 18.6656 39.6974C18.6191 40.1938 18.6454 40.6972 18.6454 41.2086C18.6949 41.1827 18.7434 41.1568 18.7918 41.1319C19.5887 40.7102 20.3017 40.3145 21.0319 39.9566C22.7134 39.1322 24.403 38.3238 26.0947 37.5204C27.3046 36.9462 28.5226 36.388 29.7375 35.8248C31.1959 35.147 32.6552 34.4701 34.1156 33.7953C35.5567 33.1294 36.9979 32.4645 38.4421 31.8056C38.5542 31.7548 38.7249 31.686 38.8077 31.7259C38.8108 31.7269 38.8138 31.7279 38.8168 31.7299C39.2168 31.9761 39.5935 32.2592 40.0176 32.5562C39.8762 32.636 39.8076 32.6838 39.7318 32.7167C38.4563 33.263 37.1817 33.8132 35.9021 34.3525C34.2499 35.0483 32.5966 35.7401 30.9393 36.4229C28.4731 37.4386 26.0048 38.4494 23.5315 39.4462C23.1285 39.6087 22.974 39.7961 23.1396 40.2327C23.2194 40.443 23.1537 40.7062 23.1527 40.9464V40.9504C23.076 40.9484 23.0002 40.9464 22.9235 40.9445V39.7333C21.7105 40.2307 20.6026 40.6843 19.4947 41.1388C19.5735 41.1229 19.6523 41.1109 19.7321 41.1019C20.439 41.0102 21.1823 41.087 21.8014 40.6145C21.8237 40.5976 21.8782 40.6015 21.9418 40.6195C22.059 40.6504 22.2054 40.7281 22.2307 40.7959C22.3488 41.1179 22.367 41.4758 22.469 41.8057C22.5033 41.9183 22.6902 42.0818 22.776 42.0659C22.8013 42.0609 22.8255 42.0559 22.8508 42.0509C23.4315 41.9373 24.0102 41.8027 24.5798 41.6422C27.8136 40.7331 31.0484 39.829 34.2741 38.895C37.1292 38.0676 39.9752 37.2074 42.8212 36.3511C42.9535 36.3112 43.0596 36.2953 43.1404 36.3122C43.2716 36.3382 43.3363 36.4518 43.3393 36.685C43.3454 37.1715 43.3696 37.6589 43.3747 38.1454C43.3757 38.2391 43.3232 38.3318 43.2989 38.4255C43.1464 38.9967 42.9262 39.5609 42.8667 40.141C42.8152 40.6354 42.9485 41.1498 43 41.6542C43.0424 41.5834 43.0828 41.5116 43.1202 41.4399C43.8372 40.0802 43.7241 38.6298 43.6554 37.1755C43.7221 37.3609 43.7827 37.5443 43.8281 37.7297C43.8917 37.9789 43.9321 38.2281 43.9352 38.4773C43.9463 39.2808 43.8544 39.4771 44.2624 39.4422C44.4391 39.4273 44.7098 39.3685 45.1229 39.2957C45.14 39.2927 45.1552 39.2857 45.1713 39.2808C45.5117 39.1731 45.846 39.1342 46.1762 39.1412C46.8054 39.1542 47.4205 39.3336 48.0345 39.518C48.1001 39.5369 48.1466 39.6147 48.3264 39.7782H45.5299C45.7914 40.0224 45.9621 40.1799 46.1318 40.3384C46.1227 40.3513 46.1126 40.3653 46.1025 40.3783C46.0914 40.3942 46.0793 40.4102 46.0671 40.4271C45.6036 40.2218 45.138 40.0174 44.5947 39.7762C44.5532 39.7582 44.5118 39.7403 44.4704 39.7214C44.2139 40.3623 43.9746 40.9594 43.7504 41.5196C45.1128 41.8256 46.354 42.1047 47.6406 42.3948C47.6234 42.3799 47.6053 42.3649 47.5891 42.351C47.4366 42.2204 47.3003 42.1038 47.1074 41.9393C47.1993 41.9732 47.2892 42.0071 47.377 42.0449C49.2585 42.8105 50.5058 44.1721 51.5672 45.772C51.5814 45.7162 51.5935 45.6624 51.6046 45.6096C51.6541 45.3873 51.6773 45.1869 51.6309 45.0025ZM40.2115 35.4889C37.6584 36.3162 35.1225 37.1954 32.5613 37.9998C30.7232 38.577 28.8568 39.0674 27.0016 39.5938C26.1987 39.821 25.3938 40.0413 24.5889 40.2646C24.5737 40.2108 24.5586 40.157 24.5434 40.1041C29.8365 37.9719 35.1306 35.8397 40.4428 33.7006C40.5741 33.9139 40.666 34.0465 40.7418 34.188C41.1811 35.0054 41.076 35.2088 40.2115 35.4889Z" fill="white"/>
<path d="M33.9076 8.0554C33.8651 7.68957 33.7833 7.32673 33.647 6.96787C33.6046 6.85523 33.5571 6.74259 33.5036 6.63095C33.4945 7.09347 33.5026 7.56198 33.5006 8.03247C33.4975 8.98444 33.4521 9.94437 33.1491 10.8754C33.1471 10.8854 33.143 10.8953 33.14 10.9053C32.6037 10.7897 32.1392 10.689 31.7241 10.5993C31.6857 10.5913 31.6473 10.5823 31.61 10.5744C31.3302 10.7667 31.6685 11.1994 31.2777 11.316C31.2363 11.329 31.1878 11.3369 31.1292 11.3419C31.1434 11.1246 31.1535 10.9342 31.1696 10.7438C31.2333 9.99621 31.4908 9.25158 31.102 8.50596C31.0161 8.34248 30.9242 8.17701 30.8545 8.00656C30.7687 7.79922 30.7152 7.5859 30.7455 7.35962C30.7636 7.21807 30.8151 7.07254 30.9101 6.92102C30.6344 7.24798 30.4071 7.53407 30.5849 7.9926C30.5879 8.00058 30.5909 8.00755 30.5919 8.01553C30.7212 8.38036 30.5132 8.79504 30.1809 8.99141C30.1355 9.01932 30.087 9.04325 30.0365 9.06119C30.0365 8.72028 30.0223 8.38136 30.0213 8.04444C30.0193 7.79822 30.0244 7.55301 30.0456 7.30978C30.1264 6.37078 30.293 5.43975 30.3728 4.50175C30.4546 3.55876 30.9333 2.89189 31.7251 2.33765C31.6675 2.26289 31.5988 2.17418 31.5241 2.07848C31.4989 2.04559 31.4726 2.0117 31.4453 1.97681C31.1383 2.43933 30.8808 2.84204 30.6081 3.23479C30.3071 3.66741 29.9314 4.04819 29.8143 4.59644C29.786 4.72802 29.5265 4.89549 29.3689 4.90047C29.0528 4.91144 28.7367 4.91742 28.4206 4.91842C27.9661 4.91941 27.5126 4.91044 27.0592 4.89051C26.7653 4.87755 26.4734 4.86658 26.1816 4.86658C25.2817 4.86259 24.395 4.94334 23.5325 5.29123C23.2245 5.41583 22.978 5.52647 22.8558 5.88134C22.774 6.12058 22.5771 6.32194 22.3943 6.56217C22.3721 6.59108 22.3499 6.62098 22.3287 6.65089C22.1448 6.44753 21.9873 6.27309 21.8277 6.09566C21.8085 6.07572 21.7904 6.05579 21.7722 6.03485C21.3874 6.29303 21.0248 6.53725 20.5986 6.82234C20.5744 6.83829 20.5491 6.85523 20.5239 6.87218C20.4219 6.80041 20.2654 6.69076 20.0715 6.55519C20.028 6.52529 19.9836 6.49339 19.9361 6.46049C19.8856 6.96787 19.7372 7.47824 19.8159 7.95074C19.8947 8.41326 19.7442 9.00637 20.3199 9.33133C20.3845 9.36721 20.3593 9.73504 20.2593 9.84967C20.1421 9.98424 20.0684 10.1248 20.024 10.2693C19.8856 10.7119 20.0159 11.1904 19.9684 11.6429C19.9634 11.6938 20.0664 11.7556 20.1199 11.8124C20.1442 11.7895 20.1684 11.7676 20.1916 11.7446C20.6623 11.302 21.1147 10.8764 21.5682 10.4518C21.5914 10.4757 21.6146 10.4996 21.6379 10.5245C21.6621 10.5494 21.6863 10.5744 21.7106 10.6003C21.5914 10.7558 21.4722 10.9123 21.3531 11.0688C20.837 11.7486 20.5027 12.5211 20.7562 13.3475C21.2107 14.8308 21.651 16.3101 22.5791 17.6298C23.38 18.7682 24.498 19.2287 25.6372 19.2168C25.8513 19.2158 26.0664 19.1968 26.2805 19.1619C26.8713 19.0672 27.4521 18.9078 28.0368 18.7782C28.0095 18.7951 27.9813 18.8131 27.954 18.831C27.145 19.3284 26.325 19.6763 25.4867 19.6982H25.4857C24.9111 19.7132 24.3273 19.5746 23.7335 19.2267C23.6567 19.1819 23.581 19.134 23.5042 19.0822C23.6921 19.4251 23.9486 19.7351 24.0365 20.085C24.2506 20.9413 24.5445 21.7048 25.4251 22.1125C25.5705 22.1793 25.6867 22.2152 25.8028 22.1923C25.8836 22.1773 25.9634 22.1335 26.0513 22.0537C26.2947 21.8324 26.5805 21.653 26.8592 21.4716C28.0913 20.6671 29.3497 19.9006 30.5526 19.0563C31.2858 18.5429 31.7584 17.8152 31.7857 16.8802C31.7958 16.5343 31.7524 16.1854 31.7827 15.8415C31.814 15.4837 32.0008 15.1139 31.9412 14.7789C31.8847 14.456 31.6019 14.1719 31.3837 13.815C31.5312 13.815 31.6554 13.7871 31.7513 13.8011C31.7756 13.805 31.7968 13.812 31.817 13.822C31.9907 13.9097 32.1442 13.9376 32.2826 13.9217C32.5866 13.8888 32.8168 13.6535 33.0198 13.4093C33.3864 12.9707 33.646 12.4723 33.5601 11.8563C33.5288 11.634 33.5702 11.3937 33.6167 11.1695C33.8348 10.1228 34.0277 9.07814 33.9065 8.0554H33.9076ZM31.0353 17.6229C30.9727 17.6209 30.9091 17.6199 30.8464 17.6179C30.8899 17.1464 30.9283 16.6729 30.9777 16.2014C31.0282 15.7299 31.0908 15.2594 31.0666 14.759C30.4869 15.7917 30.4041 17.0587 29.5648 17.9548C29.5244 17.9349 29.484 17.9159 29.4436 17.896C29.9183 16.6579 30.393 15.4199 30.8677 14.1808C30.9283 14.1908 30.9899 14.2008 31.0515 14.2117C31.7029 15.3491 31.0676 16.4855 31.0353 17.6229Z" fill="white"/>
<path d="M26.842 76.5389C26.1876 76.3514 25.6463 76.2577 25.1585 76.0444C23.9466 75.5131 22.7488 74.9459 21.5661 74.3548C20.939 74.0408 20.3381 73.67 19.7594 73.2763C19.5897 73.1606 19.4604 72.8855 19.4402 72.6712C19.2807 70.9427 18.9009 69.273 18.2041 67.6732C18.1344 67.5127 18.2758 67.2744 18.2546 67.079C18.1354 66.0005 17.9849 64.9259 17.8667 63.8474C17.8062 63.2921 17.8102 62.7309 17.7526 62.1747C17.7011 61.6843 17.6375 61.1958 17.5688 60.6805C17.5557 60.5788 17.5426 60.4761 17.5284 60.3725C17.5022 60.1761 17.4759 59.9757 17.4496 59.7694C17.5133 59.8412 17.5698 59.9069 17.6223 59.9668C17.7324 60.0933 17.8243 60.199 17.9162 60.3047C17.9486 60.2847 17.9799 60.2658 18.0132 60.2479C18.0233 60.2409 18.0344 60.2349 18.0445 60.2289C17.9031 59.9678 17.7536 59.7116 17.6264 59.4444C17.5688 59.3218 17.5183 59.1713 17.5385 59.0447C17.5506 58.9689 17.7142 58.8533 17.7971 58.8633C17.8243 58.8663 17.8526 58.8693 17.8799 58.8732H17.8809C18.8797 58.9869 19.8816 59.0905 20.8713 59.262C21.5025 59.3717 21.7116 59.9229 21.6974 60.4602C21.6803 61.139 21.8257 61.7012 22.3599 62.1428C22.3832 62.1627 22.3852 62.2245 22.4044 62.2285C23.2346 62.386 23.0649 63.1277 23.1891 63.639C23.5517 65.1343 23.8324 66.6484 24.1415 68.1566C24.1748 68.3221 24.1879 68.4915 24.2112 68.659C24.192 68.673 24.1728 68.6879 24.1536 68.7029C24.1314 68.7198 24.1092 68.7358 24.0879 68.7527C23.479 68.3809 22.87 68.0091 22.1873 67.5914C22.1166 67.5485 22.0438 67.5047 21.9711 67.4598C22.0863 67.6632 22.1357 67.8167 22.2377 67.9184C23.0144 68.6939 23.789 69.4734 24.5949 70.22C24.8666 70.4712 25.2322 70.6227 25.5423 70.8371C25.6271 70.8949 25.6917 71.0085 25.723 71.1092C25.822 71.4242 25.9149 71.7432 25.9785 72.0661C26.0018 72.1838 25.9493 72.3223 25.9058 72.4419C25.8786 72.5147 25.7644 72.5665 25.7574 72.6353C25.7352 72.8586 25.7442 73.0839 25.7422 73.3092C25.7897 73.2902 25.8382 73.2703 25.8887 73.2494C26.0149 73.1975 26.1553 73.1387 26.3492 73.06C26.3542 73.0779 26.3583 73.0968 26.3623 73.1148C26.6209 74.1415 26.6875 75.242 26.837 76.497C26.839 76.5109 26.84 76.5249 26.842 76.5389Z" fill="white"/>
<path d="M49.2 51.095C49.2 51.095 49.1919 51.097 49.1878 51.098C49.0525 51.1309 48.7728 51.0392 48.7394 50.9465C48.388 49.9676 47.6245 49.2828 46.9306 48.585C46.1843 47.8364 45.341 47.1725 44.3129 46.7688C43.8766 46.5973 43.4504 46.4987 43.0313 46.4867H43.0272C42.4819 46.4717 41.9466 46.6023 41.4144 46.9074C41.3588 46.9393 41.2962 46.9612 41.2336 46.9821C41.1892 46.9961 41.1437 47.01 41.1003 47.026C40.8013 46.1129 41.2992 45.0443 42.1052 44.6087C42.4688 44.4113 42.7435 44.0475 43.0353 43.7365C43.1141 43.6527 43.1252 43.4893 43.1303 43.3607C43.1363 43.1753 43.0444 42.8513 43.106 42.8234C43.4322 42.6739 43.7978 42.5014 44.1412 42.5184C44.1503 42.5184 44.1594 42.5194 44.1685 42.5204C44.6532 42.5493 45.1441 42.6878 45.6056 42.8503C46.3883 43.1244 47.1508 43.4584 47.7689 43.7056C47.8143 44.0515 47.7689 44.3336 47.885 44.4323C48.0173 44.5449 48.3304 44.6346 48.4657 44.6037C48.489 44.5997 48.5061 44.5917 48.5172 44.5798C48.6647 44.4213 48.7465 44.1013 48.693 43.888C48.6203 43.6019 48.394 43.3527 48.2759 43.0058C48.3435 43.0596 48.4142 43.1105 48.4849 43.1613C48.7303 43.3397 48.9818 43.5122 49.1828 43.7305C50.0867 44.7104 50.9734 45.7022 51.3491 47.031C51.7985 48.6179 50.7876 50.5826 49.2 51.095Z" fill="white"/>
<path d="M25.1898 51.6224C24.8171 49.9068 24.4374 48.1933 24.0677 46.4778C23.8556 45.4929 23.6718 44.5011 23.4466 43.5182C23.3739 43.2023 23.1063 43.0617 22.8366 43.0418C22.778 43.0368 22.7195 43.0388 22.6629 43.0448C22.0317 43.1145 21.4136 43.289 20.7875 43.4046C20.4633 43.4644 20.3784 43.6488 20.4259 43.9409C20.6582 45.3803 20.8471 46.8277 21.1319 48.2561C21.3944 49.5729 21.7631 50.8678 22.0741 52.1746C22.16 52.5345 22.3458 52.671 22.6286 52.6381C22.6993 52.6312 22.775 52.6122 22.8578 52.5843C23.2053 52.4657 23.5567 52.362 23.9051 52.2454C24.3172 52.1078 24.7262 51.9643 25.1918 51.8048C25.1918 51.752 25.2029 51.6842 25.1898 51.6224ZM23.3416 51.1957C22.6548 51.5287 22.5246 51.4529 22.3246 50.5887C22.6599 50.6515 22.981 50.6973 23.2941 50.7771C23.4012 50.804 23.486 50.9136 23.582 50.9854C23.5022 51.0562 23.4345 51.1509 23.3416 51.1957Z" fill="white"/>
<path d="M30.7737 23.6158C30.2536 24.0793 29.7001 24.5169 29.1154 24.8957C28.9174 25.0253 28.6963 25.0901 28.4731 25.101H28.469C27.6772 25.1409 26.842 24.5109 26.7622 23.6746C26.736 23.4005 26.6289 23.1024 26.4683 22.8791C26.23 22.5522 26.2674 22.3468 26.6097 22.1634C27.346 21.7697 28.1135 21.4208 28.8114 20.9672C29.8951 20.2645 31.0888 19.6853 31.8614 18.5928C31.9917 18.4094 32.0604 18.1831 32.1997 17.8851C32.3462 17.8562 32.4764 17.8442 32.5906 17.8512C33.038 17.8781 33.246 18.1891 33.2925 18.8261C33.447 20.9433 32.2139 22.3349 30.7737 23.6158Z" fill="white"/>
<path d="M39.1814 66.1699C39.1814 66.1699 39.1784 66.1699 39.1774 66.1709C39.1299 66.1759 39.0845 66.1819 39.038 66.1879C38.8411 65.7124 38.6431 65.2379 38.4411 64.7495C38.4371 64.7405 38.433 64.7305 38.429 64.7216C38.326 64.7435 38.229 64.7634 38.1331 64.7834C38.0887 64.7933 38.0442 64.8023 37.9998 64.8113C37.9907 64.7913 37.9816 64.7714 37.9725 64.7515C38.1513 64.6308 38.33 64.5102 38.628 64.3089C37.9846 64.3119 37.9564 63.9849 38.0291 63.5244C38.0351 63.4875 38.0412 63.4496 38.0483 63.4107C37.7897 63.5912 37.6281 63.6898 37.4837 63.8075C37.3666 63.9032 37.2726 63.966 37.1959 63.9929C37.0242 64.0527 36.9323 63.9351 36.8495 63.6031C36.5596 62.4478 36.289 61.2875 36.0102 60.1292C35.987 60.0325 35.9698 59.9338 35.9405 59.8391C35.7789 59.3115 35.9351 58.9098 36.4091 58.634C36.8404 58.3818 37.2827 58.1416 37.6928 57.8585C37.8493 57.7508 37.9594 57.7199 38.0452 57.7518C38.1422 57.7857 38.2078 57.8983 38.2755 58.0648C38.6189 58.9131 38.8512 59.7684 38.8865 60.6994C38.9431 62.2215 39.1148 63.7387 39.2228 65.2588C39.245 65.5599 39.1966 65.8659 39.1814 66.1699Z" fill="white"/>
<path d="M21.7389 55.9126C21.7126 56.2147 21.7277 56.7021 21.1793 56.9423C21.0339 57.0061 20.844 57.041 20.6431 57.047C20.2098 57.06 19.7291 56.9364 19.5624 56.6662C19.2241 56.119 18.801 55.5637 18.8888 54.854C18.9019 54.7454 19.008 54.5709 19.0898 54.56C19.514 54.5011 19.9422 54.4682 20.3704 54.4633C20.3876 54.4633 20.4047 54.4633 20.4209 54.4653C20.5956 54.4772 20.7703 54.557 20.9481 54.5889C21.3894 54.6666 21.6995 55.1172 21.7389 55.9126Z" fill="white"/>
<path d="M24.2202 22.1644C24.1132 22.3916 24.0809 22.5511 23.9849 22.6498C23.5668 23.0764 23.1376 23.4941 22.6902 23.8908C22.675 23.9048 22.6488 23.9138 22.6185 23.9188C22.5175 23.9367 22.3599 23.9118 22.3185 23.8579C21.8368 23.2459 21.3702 22.6219 20.9198 21.9879C20.737 21.7307 20.7693 21.4975 21.0995 21.342C21.2288 21.2812 21.3046 21.1007 21.4338 21.0539C21.5833 20.9991 21.7722 20.9452 21.9237 20.9672C21.954 20.9702 21.9832 20.9771 22.0095 20.9881C22.5943 21.2184 23.1639 21.4905 23.7274 21.7716C23.9102 21.8633 24.0546 22.0298 24.2202 22.1644Z" fill="white"/>
<path d="M24.8696 58.5691C24.806 58.9858 24.6101 59.1902 24.2465 59.2141H24.2435C24.1748 59.2191 24.1001 59.2161 24.0182 59.2081C23.6011 59.1642 23.1901 59.0735 22.775 59.0187C22.7407 59.0137 22.7063 59.0107 22.671 59.0087C22.5589 59.0017 22.4428 59.0097 22.3387 59.0396C22.2882 59.0546 22.2408 59.0655 22.1963 59.0705C21.9277 59.1064 21.7873 58.9659 21.7823 58.6329C21.7782 58.3897 21.7812 58.1465 21.7812 57.9312C22.67 57.7168 23.5113 57.5155 24.3525 57.3121C24.4687 57.2842 24.5666 57.2743 24.6454 57.2862H24.6474C24.8333 57.3151 24.912 57.4637 24.8777 57.7647C24.8464 58.0299 24.909 58.307 24.8696 58.5691Z" fill="white"/>
<path d="M16.3357 62.0989C16.3064 62.2285 16.1559 62.4149 16.0428 62.4687C16.0196 62.4807 15.9974 62.4867 15.9782 62.4847C15.7964 62.4677 15.4985 62.2963 15.4793 62.1587C15.3722 61.3971 15.2965 60.6216 15.754 59.8989C15.7762 59.9448 15.7984 59.9896 15.8216 60.0345C16.1509 60.6934 16.5044 61.3383 16.3357 62.0989Z" fill="white"/>
<path d="M17.4295 60.5907C17.4224 60.6914 17.4143 60.7931 17.4062 60.8937V60.8957C17.3628 61.427 17.3143 61.9514 17.2719 62.4318C17.2719 62.0181 17.28 61.5397 17.2689 61.0612C17.2628 60.7841 17.2305 60.5129 16.9578 60.4741C16.9477 60.4721 16.9366 60.4711 16.9255 60.4711C16.8821 60.4681 16.8336 60.4701 16.7791 60.4781C16.8094 60.0544 16.8366 59.6627 16.8629 59.2928C16.9053 59.3796 16.9477 59.4663 16.9901 59.554C17.1123 59.8022 17.2355 60.0544 17.3547 60.3096C17.3951 60.3973 17.4365 60.499 17.4295 60.5907Z" fill="white"/>
<path d="M33.3612 5.37003C33.3299 5.45177 33.2895 5.52952 33.239 5.60129C33.2026 5.27234 33.1794 4.99822 33.139 4.72709C33.1027 4.47688 33.0461 4.22967 32.9976 3.98047C33.0602 4.00738 33.1168 4.04726 33.1673 4.09809C33.44 4.36524 33.5359 4.92246 33.3612 5.37003Z" fill="white"/>
<path d="M24.6838 52.6262C24.4778 52.7627 24.2727 52.8983 24.0667 53.0359C24.0122 53.0718 23.9566 53.1076 23.9021 53.1445C23.9526 52.7119 24.1829 52.5743 24.5141 52.6013C24.5676 52.6052 24.6252 52.6142 24.6838 52.6262Z" fill="white"/>
</svg>
