<svg width="313" height="78" viewBox="0 0 313 78" fill="none" xmlns="http://www.w3.org/2000/svg">
<path d="M29.9474 10.7249C29.8615 10.9362 29.7515 10.9123 29.7515 10.9123C29.7808 10.8714 29.806 10.8255 29.8262 10.7787C29.8666 10.7607 29.907 10.7428 29.9474 10.7249Z" fill="white"/>
<path d="M25.125 66.46C23.7696 65.5489 22.488 64.5351 21.2913 63.4307C22.2578 64.1573 23.8131 65.4004 25.125 66.46Z" fill="white"/>
<path d="M74.736 39.9276C74.736 39.9665 74.736 40.0044 74.736 40.0433C74.6865 54.2669 65.3587 66.2984 52.5012 70.3794C52.4982 70.3794 52.4962 70.3794 52.4942 70.3814C52.2023 70.4741 51.9074 70.5628 51.6115 70.6466C51.566 70.6595 51.5216 70.6725 51.4762 70.6854C51.5226 73.6998 51.4994 76.2357 51.3237 76.9624C51.3055 77.0382 51.2853 77.095 51.2631 77.1299C51.2611 77.1319 51.26 77.1329 51.26 77.1339C51.252 77.1468 51.2429 77.1568 51.2338 77.1628C51.2156 77.098 51.1974 77.0342 51.1843 76.9843C51.1691 76.9335 51.1601 76.8986 51.159 76.8956C50.9894 77.0152 50.7975 77.1737 50.5844 77.2924C50.3541 77.4209 50.1178 77.5525 49.8704 77.6363C49.0887 77.8157 48.004 77.9722 46.6537 77.9961C46.6315 77.9971 46.6103 77.9971 46.5881 77.9971H46.584C45.259 78.019 43.6835 77.9144 41.8889 77.5844C41.8777 77.5824 41.8666 77.5804 41.8555 77.5784C41.3445 77.4847 40.8163 77.3721 40.2709 77.2385C40.2689 77.2385 40.2679 77.2385 40.2669 77.2375C40.1114 77.1997 39.9548 77.1598 39.7963 77.1189C39.7953 77.1189 39.7942 77.1189 39.7942 77.1179C39.6983 77.093 39.6014 77.0671 39.5044 77.0402C38.9661 76.8936 38.4116 76.7272 37.8431 76.5388C37.841 76.5388 37.84 76.5378 37.838 76.5368C37.833 76.5358 37.8279 76.5338 37.8229 76.5318L37.7996 76.5238C37.733 76.5009 37.5926 76.452 37.3957 76.3813C36.9361 76.2178 36.1686 75.9387 35.3081 75.5978C34.9173 75.4433 34.5083 75.2758 34.0992 75.1013C32.7136 74.5102 31.3391 73.8344 30.7634 73.2782C30.7624 73.2782 30.7614 73.2782 30.7604 73.2762C30.6554 73.1735 30.5776 73.0758 30.5311 72.9831C30.522 72.9642 30.514 72.9452 30.5059 72.9263C30.5059 72.9263 30.5483 72.7608 30.5695 72.4897C30.6038 72.075 30.5897 71.4151 30.3039 70.7233C30.2362 70.5559 30.1514 70.3874 30.0474 70.2189L30.0464 70.2169C29.6101 69.5122 28.8405 68.8304 27.5033 68.3928H27.5023C27.4953 68.3858 27.4498 68.3489 27.3731 68.2861C27.0509 68.0219 26.1642 67.2983 25.126 66.4599C24.9169 66.2905 24.7008 66.117 24.4826 65.9416C24.2796 65.7781 24.0746 65.6136 23.8696 65.4502C23.8444 65.4292 23.8191 65.4093 23.7939 65.3884C23.6555 65.2787 23.5181 65.1691 23.3818 65.0604C23.2364 64.9448 23.0919 64.8301 22.9495 64.7175C22.8789 64.6617 22.8082 64.6059 22.7385 64.551C22.4597 64.3307 22.1911 64.1204 21.9416 63.928C21.8881 63.8862 21.8366 63.8463 21.7851 63.8064C21.776 63.7994 21.7669 63.7934 21.7588 63.7865C21.6962 63.7376 21.6336 63.6908 21.574 63.6439C21.5589 63.633 21.5447 63.621 21.5296 63.61C21.4468 63.5472 21.368 63.4874 21.2922 63.4306C21.065 63.2213 20.8408 63.0089 20.6196 62.7926C20.5772 62.7518 20.5358 62.7109 20.4944 62.669C16.8849 59.1024 14.1207 54.6775 12.5301 49.7264C11.606 46.8585 11.0778 43.8122 11.0081 40.6533C11.005 40.5516 11.004 40.449 11.003 40.3473C11.001 40.2406 11.001 40.134 11.001 40.0273C11 39.9944 11 39.9605 11 39.9276C11 39.4791 11.0091 39.0315 11.0283 38.5879C11.0283 38.574 11.0283 38.56 11.0283 38.546C11.0667 37.6419 11.1424 36.7488 11.2545 35.8666C11.2616 35.8118 11.2686 35.7579 11.2757 35.7041C11.4989 34.0085 11.8544 32.3558 12.3331 30.7559C13.2653 27.6339 14.662 24.7122 16.4415 22.0716C16.5132 21.965 16.5849 21.8593 16.6587 21.7546C16.7142 21.6739 16.7698 21.5932 16.8273 21.5134C16.8586 21.4676 16.8909 21.4227 16.9233 21.3779C16.9889 21.2851 17.0556 21.1934 17.1222 21.1007C17.1313 21.0888 17.1404 21.0758 17.1495 21.0639C17.7373 20.2594 18.3624 19.4839 19.0219 18.7393C19.0886 18.6635 19.1562 18.5888 19.2239 18.514C19.2976 18.4313 19.3734 18.3495 19.4491 18.2678C20.4197 17.2251 21.4639 16.2532 22.5809 15.3551C24.3534 13.9296 26.2217 12.6298 28.3295 11.7057C28.7738 11.5104 29.2101 11.2911 29.6232 11.0379C29.6434 11.0249 29.6636 11.0099 29.6828 10.991C29.6919 10.983 29.701 10.9731 29.7101 10.9631C29.7161 10.9571 29.7222 10.9501 29.7282 10.9422C29.7353 10.9342 29.7414 10.9262 29.7474 10.9172C29.7484 10.9153 29.7494 10.9143 29.7505 10.9123C29.7505 10.9123 29.8605 10.9362 29.9464 10.7249C29.9827 10.6371 30.0151 10.5076 30.0322 10.3182C30.0504 10.1417 30.0554 9.91345 30.0413 9.6164V9.60842C30.0231 9.25655 29.9777 8.80798 29.8908 8.23979C29.8908 8.23979 29.8969 8.21986 29.9009 8.18796C29.9151 8.07631 29.8949 7.81016 29.4313 7.71646L30.7927 3.10917L32.2127 1.71761L33.8861 0.949067L35.3849 0.397827H37.9703L39.9528 0.847392L40.6436 1.23914C40.6436 1.23914 42.3332 1.60497 42.6413 1.42953C42.6413 1.42953 43.4038 1.54317 43.6249 1.92096C43.8461 2.29776 44.8005 3.6026 44.8005 3.6026L45.4761 5.75871L45.563 6.10561L45.7912 7.01171L45.9468 7.63273L45.9882 8.14111C46.073 8.15008 46.1589 8.15905 46.2437 8.16802C46.2457 8.26073 46.2467 8.35343 46.2487 8.44613C46.2548 8.76312 46.3578 8.88274 46.6871 8.89072C49.5189 8.96249 52.277 9.48781 54.8948 10.5245C56.6026 11.1993 58.2468 12.0606 59.8445 12.9677C60.3777 13.2707 60.8948 13.5967 61.3968 13.9416C64.6932 16.307 67.522 19.2865 69.7146 22.7136C69.753 22.7734 69.7903 22.8332 69.8277 22.894C72.9363 27.8243 74.735 33.6656 74.735 39.9276H74.736Z" fill="#233D3E"/>
<path d="M20.6186 62.7927C20.8398 63.009 21.064 63.2214 21.2913 63.4307C20.9267 63.1566 20.6459 62.9562 20.4934 62.8655L20.6186 62.7927Z" fill="white"/>
<path d="M27.5013 68.3918H27.5023L27.3852 68.3539C27.4226 68.3668 27.4619 68.3798 27.5013 68.3918Z" fill="white"/>
<path d="M37.7997 76.5243L37.8233 76.5324C37.7895 76.5212 37.7567 76.51 37.7239 76.4999L37.7997 76.5243Z" fill="white"/>
<path d="M25.7019 58.1674C25.7352 57.9721 25.7958 57.7807 25.8453 57.5883C25.7979 57.5813 25.7514 57.5753 25.7039 57.5684C25.6534 57.7677 25.5898 57.9651 25.5555 58.1674C25.4919 58.5413 25.4414 58.917 25.3939 59.2938C25.2676 60.2996 24.7879 61.3124 25.4858 62.3142C25.5434 62.3331 25.604 62.3501 25.6686 62.366C24.9182 61.3473 25.4121 60.3166 25.5403 59.2938C25.5878 58.917 25.6383 58.5413 25.7019 58.1674ZM26.626 62.1587C26.526 61.445 26.4523 60.7183 26.8219 60.0345C26.7987 59.9896 26.7765 59.9448 26.7543 59.8989C26.2968 60.6216 26.3725 61.3971 26.4796 62.1587C26.4988 62.2963 26.7967 62.4677 26.9785 62.4847C26.9977 62.4867 27.0199 62.4807 27.0431 62.4687C26.8644 62.4209 26.6422 62.2773 26.626 62.1587ZM25.9998 49.4822C25.9524 49.4762 25.9049 49.4702 25.8574 49.4642C25.8585 49.4732 25.8605 49.4822 25.8615 49.4911C26.2927 49.9626 26.724 50.4351 27.0825 50.8269C27.0987 50.79 27.1138 50.7531 27.1279 50.7162C26.7886 50.3444 26.3947 49.9128 25.9998 49.4822ZM26.8987 52.976C26.7947 53.0129 26.6957 53.0647 26.5957 53.1156C26.6078 53.1335 26.621 53.1524 26.6331 53.1714C26.7704 53.1046 26.9027 53.0259 27.0451 52.976C27.1077 52.9541 27.1744 52.9441 27.2421 52.9371C27.2421 52.9312 27.2421 52.9262 27.2431 52.9202C27.1279 52.9371 27.0068 52.9381 26.8987 52.976ZM27.4986 68.333C27.4552 68.316 27.4127 68.3011 27.3724 68.2861C27.135 68.1994 26.9482 68.1396 26.8007 68.03C25.4242 67.0022 24.0547 65.9645 22.6984 64.9109C22.3207 64.6169 22.0348 64.2819 21.8258 63.9111C21.8026 63.8702 21.7793 63.8284 21.7581 63.7865C21.4693 63.2223 21.343 62.5813 21.3239 61.8896C21.2491 59.3198 21.1249 56.75 21.0592 54.1802C21.032 53.1196 21.0825 52.056 21.1411 50.9963C21.1643 50.5926 21.0522 50.3923 20.6563 50.2667C19.2949 49.833 18.7213 48.8631 19.0606 47.4337C19.3929 46.0322 19.813 44.6516 20.218 43.268C20.5573 42.1057 20.937 40.9554 21.2855 39.7951C21.4067 39.3884 21.1633 39.1063 20.8946 38.8322C20.7381 38.6717 20.628 38.4673 20.4967 38.2829C20.523 38.257 20.5492 38.2311 20.5755 38.2062C20.5452 38.1892 20.5139 38.1713 20.4836 38.1533C20.4391 38.1962 20.3947 38.2391 20.3503 38.2829C20.4816 38.4673 20.5916 38.6717 20.7482 38.8322C21.0168 39.1063 21.2602 39.3884 21.139 39.7951C20.7916 40.9554 20.4119 42.1057 20.0715 43.268C19.6665 44.6516 19.2464 46.0322 18.9141 47.4337C18.5748 48.8631 19.1485 49.833 20.5098 50.2667C20.9057 50.3923 21.0178 50.5926 20.9946 50.9963C20.936 52.056 20.8855 53.1196 20.9128 54.1802C20.9785 56.75 21.1027 59.3198 21.1774 61.8896C21.1946 62.5106 21.2976 63.0897 21.5289 63.6101C21.538 63.632 21.5481 63.6529 21.5571 63.6729C21.7723 64.1384 22.0944 64.555 22.5519 64.9109C23.9083 65.9645 25.2777 67.0022 26.6543 68.03C26.8553 68.1795 27.1279 68.2363 27.5016 68.3918H27.5026C27.5016 68.3729 27.4996 68.3529 27.4986 68.333ZM27.7349 45.8966C27.641 46.1717 27.5461 46.4459 27.4592 46.6991C27.2098 46.7619 26.9542 46.8256 26.6977 46.8894C26.7038 46.9004 26.7098 46.9104 26.7159 46.9213C27.0158 46.8466 27.3148 46.7718 27.6056 46.6991C27.6885 46.4568 27.7794 46.1947 27.8692 45.9315C27.8248 45.9205 27.7794 45.9086 27.7349 45.8966ZM27.8632 59.2929C27.8369 59.6627 27.8097 60.0544 27.7794 60.4781C27.8339 60.4701 27.8824 60.4681 27.9258 60.4711C27.949 60.1481 27.9702 59.8441 27.9904 59.554C27.948 59.4663 27.9056 59.3796 27.8632 59.2929ZM27.9581 60.4741C28.2308 60.513 28.2631 60.7841 28.2692 61.0612C28.2803 61.5397 28.2722 62.0181 28.2722 62.4318C28.3146 61.9514 28.3631 61.427 28.4065 60.8957V60.8937C28.3813 60.6415 28.2944 60.4362 27.9581 60.4741ZM28.9559 39.2329C28.451 37.5164 27.9056 35.8088 27.4744 34.0744C26.9825 32.0977 27.2683 30.1559 28.0015 28.2709C28.049 28.1493 28.0975 28.0287 28.1662 27.8572C28.0732 27.9479 27.9763 28.0685 27.8793 28.2111C27.8702 28.231 27.8632 28.2509 27.8551 28.2709C27.1219 30.1559 26.8361 32.0977 27.3279 34.0744C27.7592 35.8088 28.3045 37.5164 28.8095 39.2329C28.8711 39.4412 28.9943 39.6306 29.1407 39.9366C29.163 39.8639 29.1811 39.8061 29.1973 39.7572C29.0913 39.5499 29.0044 39.3974 28.9559 39.2329ZM28.7731 59.4444C28.7156 59.3218 28.6651 59.1712 28.6853 59.0446C28.6954 58.9858 28.7964 58.9021 28.8802 58.8732C28.8529 58.8692 28.8246 58.8662 28.7974 58.8632C28.7146 58.8533 28.5509 58.9689 28.5388 59.0446C28.5186 59.1712 28.5691 59.3218 28.6267 59.4444C28.7539 59.7115 28.9034 59.9677 29.0448 60.2289C29.0347 60.2348 29.0236 60.2408 29.0135 60.2478C29.0297 60.2667 29.0468 60.2857 29.063 60.3046C29.1054 60.2787 29.1478 60.2538 29.1912 60.2289C29.0499 59.9677 28.9004 59.7115 28.7731 59.4444ZM29.4831 43.1594C29.1761 45.8348 28.8883 48.5761 28.5408 51.3103C28.2015 53.9758 27.1067 56.3881 25.8888 58.7576C25.8776 58.8732 25.8665 58.9898 25.8554 59.1054C27.1441 56.6234 28.3318 54.1064 28.6873 51.3103C29.0004 48.8382 29.267 46.3601 29.5417 43.9299C29.5447 43.7864 29.5488 43.6438 29.5528 43.5003C29.5568 43.3607 29.4962 43.2212 29.4831 43.1594ZM30.6829 22.2521C29.9638 22.5232 29.2327 22.7834 28.556 23.1393C27.4713 23.7094 26.5149 24.4581 26.0907 25.6522C25.6363 26.9282 25.1939 28.2151 24.8617 29.5259C24.1274 32.4216 23.469 35.3363 22.767 38.2401C22.7115 38.4733 22.5843 38.7036 22.4368 38.895C22.4105 38.9279 22.355 38.9458 22.2893 38.9528C22.4075 38.9618 22.5388 38.9518 22.5832 38.895C22.7307 38.7036 22.8569 38.4733 22.9135 38.2401C23.6154 35.3363 24.2739 32.4216 25.0081 29.5259C25.3404 28.2151 25.7827 26.9282 26.2372 25.6522C26.6614 24.4581 27.6178 23.7094 28.7024 23.1393C29.3791 22.7834 30.1103 22.5232 30.8294 22.2521C31.0616 22.1644 31.2424 22.1105 31.3889 22.0966C31.2192 22.0747 31 22.1325 30.6829 22.2521ZM31.4666 9.33134C30.891 9.00638 31.0404 8.41327 30.9627 7.95075C30.8889 7.50816 31.0152 7.03168 31.0717 6.5552C31.0283 6.5253 30.9839 6.4934 30.9364 6.4605C30.8859 6.96788 30.7375 7.47825 30.8162 7.95075C30.895 8.41327 30.7445 9.00638 31.3202 9.33134C31.3848 9.36722 31.3596 9.73505 31.2596 9.84968C31.1424 9.98425 31.0687 10.1248 31.0243 10.2693C30.8859 10.7119 31.0162 11.1904 30.9687 11.643C30.9637 11.6938 31.0667 11.7556 31.1202 11.8124C31.1445 11.7895 31.1687 11.7676 31.1919 11.7446C31.1495 11.7097 31.1121 11.6739 31.1152 11.643C31.1647 11.1675 31.0192 10.6631 31.1939 10.2016C31.2394 10.0809 31.3071 9.96332 31.406 9.84968C31.506 9.73505 31.5313 9.36722 31.4666 9.33134ZM30.7092 56.6662C30.3708 56.119 29.9477 55.5638 30.0355 54.854C30.0487 54.7454 30.1547 54.5709 30.2365 54.56C30.6284 54.5051 31.0253 54.4732 31.4212 54.4653C31.405 54.4633 31.3878 54.4633 31.3707 54.4633C30.9425 54.4683 30.5143 54.5011 30.0901 54.56C30.0083 54.5709 29.9022 54.7454 29.8891 54.854C29.8012 55.5638 30.2244 56.119 30.5627 56.6662C30.7294 56.9364 31.2101 57.06 31.6434 57.047C31.2525 57.0301 30.8566 56.9055 30.7092 56.6662ZM30.2951 12.6876C30.2517 12.7086 30.2082 12.7295 30.1648 12.7494C30.8112 15.3342 31.9373 17.6468 33.1461 19.9305C32.9038 20.0122 32.6169 20.098 32.3392 20.2056C31.1202 20.6761 29.9133 21.1765 28.6853 21.6231C26.7704 22.3199 25.3656 23.5499 24.6162 25.428C24.2931 26.2394 24.1042 27.1066 23.8861 27.9559C23.5053 29.4342 23.1266 30.9134 22.7893 32.4007C22.456 33.871 22.1894 35.3553 21.8642 36.8266C21.7359 37.4067 21.5369 37.9719 21.3572 38.577C21.3976 38.5999 21.439 38.6238 21.4814 38.6488C21.6672 38.0168 21.8773 37.4296 22.0106 36.8266C22.3358 35.3553 22.6024 33.871 22.9357 32.4007C23.273 30.9134 23.6518 29.4342 24.0325 27.9559C24.2506 27.1066 24.4385 26.2394 24.7627 25.428C25.5121 23.5499 26.9169 22.3199 28.8317 21.6231C30.0588 21.1765 31.2667 20.6761 32.4857 20.2056C32.7634 20.098 33.0502 20.0122 33.2926 19.9305C32.0736 17.6289 30.9394 15.2973 30.2951 12.6876ZM32.7725 6.03486C32.3877 6.29304 32.0251 6.53726 31.5989 6.82235C31.6252 6.84029 31.6494 6.85724 31.6706 6.87219C32.0938 6.5881 32.4543 6.34687 32.828 6.09567C32.8088 6.07573 32.7906 6.0558 32.7725 6.03486ZM33.4653 23.858C32.9835 23.2459 32.517 22.6219 32.0665 21.9879C31.8837 21.7308 31.916 21.4975 32.2463 21.342C32.3756 21.2812 32.4513 21.1008 32.5806 21.0539C32.6846 21.015 32.8078 20.9782 32.924 20.9672C32.7725 20.9453 32.5836 20.9991 32.4341 21.0539C32.3049 21.1008 32.2291 21.2812 32.0999 21.342C31.7696 21.4975 31.7373 21.7308 31.9201 21.9879C32.3705 22.6219 32.8371 23.2459 33.3188 23.858C33.3603 23.9118 33.5178 23.9367 33.6188 23.9188C33.5511 23.9098 33.4895 23.8889 33.4653 23.858ZM33.4673 24.5029C33.131 24.6873 32.8422 24.9545 32.4927 25.2425H32.4917C32.4907 25.2824 32.4887 25.3233 32.4857 25.3661C32.9068 25.0332 33.229 24.7132 33.6137 24.5029C33.6754 24.469 33.7541 24.4501 33.839 24.4431C33.7006 24.4331 33.5622 24.4501 33.4673 24.5029ZM33.738 19.0164C33.6713 19.3125 33.6067 19.6026 33.541 19.8936C33.5431 19.9006 33.5441 19.9086 33.5461 19.9156C33.5925 19.9126 33.638 19.9096 33.6844 19.9066C33.746 19.6354 33.8066 19.3643 33.8682 19.0882C33.8268 19.0643 33.7834 19.0413 33.738 19.0164ZM31.9342 43.4046C32.5604 43.2889 33.1785 43.1145 33.8097 43.0447C33.8188 43.0437 33.8279 43.0427 33.8369 43.0417C33.7784 43.0367 33.7198 43.0387 33.6632 43.0447C33.032 43.1145 32.4139 43.2889 31.7878 43.4046C31.4636 43.4644 31.3788 43.6488 31.4262 43.9409C31.6585 45.3803 31.8474 46.8276 32.1322 48.2561C32.3948 49.5729 32.7634 50.8677 33.0744 52.1746C33.1603 52.5344 33.3461 52.671 33.6289 52.6381C33.4269 52.6132 33.2906 52.4686 33.2209 52.1746C32.9098 50.8677 32.5412 49.5729 32.2786 48.2561C31.9938 46.8276 31.805 45.3803 31.5717 43.9409C31.5252 43.6488 31.61 43.4644 31.9342 43.4046ZM33.6158 41.8057C33.5138 41.4757 33.4956 41.1179 33.3774 40.7959C33.339 40.6912 33.0128 40.5656 32.9482 40.6145C32.9462 40.6165 32.9442 40.6175 32.9421 40.6195C33.0593 40.6504 33.2057 40.7281 33.231 40.7959C33.3491 41.1179 33.3673 41.4757 33.4693 41.8057C33.5037 41.9183 33.6905 42.0818 33.7763 42.0658C33.8016 42.0609 33.8258 42.0559 33.8511 42.0509C33.7592 42.01 33.642 41.8924 33.6158 41.8057ZM30.4951 41.1388C30.5738 41.1229 30.6526 41.1109 30.7324 41.1019C31.7656 40.6783 32.8007 40.2536 33.9238 39.7931V39.7333C32.7109 40.2307 31.603 40.6843 30.4951 41.1388ZM33.8117 1.36876C33.7885 1.33985 33.6986 1.33686 33.6481 1.3568C33.6552 1.35979 33.6612 1.36377 33.6653 1.36876C33.7814 1.5113 33.8874 1.53323 33.9793 1.50133C33.9258 1.4824 33.8703 1.44053 33.8117 1.36876ZM34.6701 20.9762C34.4914 20.9084 34.3328 20.8496 34.1773 20.7828C33.7622 20.6014 33.334 20.4249 32.8937 20.4459C33.2825 20.4648 33.6622 20.6223 34.0308 20.7828C34.2278 20.8675 34.4308 20.9393 34.6732 21.034C34.6722 21.014 34.6711 20.9951 34.6701 20.9762ZM34.7499 62.1687C34.2864 62.0032 33.8178 61.8377 33.3906 61.6015C33.2512 61.5247 33.1381 61.1988 33.1916 61.0472C33.237 60.9147 33.5178 60.807 33.7077 60.7901C33.6612 60.7861 33.6158 60.7851 33.5703 60.7891C33.3805 60.804 33.0916 60.9127 33.0452 61.0472C32.9916 61.1988 33.1047 61.5247 33.2441 61.6015C33.6713 61.8377 34.1399 62.0032 34.6035 62.1687C34.7025 62.2036 34.8146 62.2036 34.9277 62.2006C34.8661 62.1976 34.8055 62.1886 34.7499 62.1687ZM33.1179 67.4598C33.1441 67.5066 33.1674 67.5505 33.1876 67.5914C33.8703 68.009 34.4793 68.3808 35.0883 68.7526C35.1095 68.7357 35.1317 68.7197 35.1539 68.7028C34.5085 68.3091 33.8582 67.9123 33.1179 67.4598ZM35.165 59.2081C34.7479 59.1643 34.3369 59.0735 33.9218 59.0187C33.841 59.0078 33.7551 59.0038 33.6713 59.0088C33.7067 59.0107 33.741 59.0137 33.7753 59.0187C34.1904 59.0735 34.6015 59.1643 35.0186 59.2081C35.1004 59.2161 35.1751 59.2191 35.2438 59.2141C35.2185 59.2131 35.1923 59.2111 35.165 59.2081ZM34.9024 53.1445C34.957 53.1076 35.0125 53.0717 35.067 53.0358C35.1286 52.7477 35.2892 52.6211 35.5144 52.6012C35.1832 52.5743 34.9529 52.7119 34.9024 53.1445ZM35.4993 57.3122C35.5518 57.2992 35.6003 57.2902 35.6457 57.2863C35.567 57.2743 35.469 57.2843 35.3529 57.3122C34.5116 57.5155 33.6703 57.7169 32.7816 57.9312C32.7816 58.1465 32.7785 58.3897 32.7826 58.633C32.7876 58.9659 32.928 59.1064 33.1966 59.0706C33.0229 59.0426 32.9331 58.8991 32.929 58.633C32.925 58.3897 32.928 58.1465 32.928 57.9312C33.8167 57.7169 34.658 57.5155 35.4993 57.3122ZM35.6972 61.0682C35.6972 61.0682 35.6972 61.0622 35.6983 61.0592C35.7003 61.0273 35.7033 60.9954 35.7073 60.9645C35.7104 60.9346 35.7154 60.9047 35.7215 60.8758C35.7235 60.8618 35.7265 60.8479 35.7296 60.8349C35.7336 60.811 35.7386 60.7891 35.7447 60.7661C35.7487 60.7512 35.7528 60.7362 35.7568 60.7213C35.7619 60.6994 35.7689 60.6774 35.776 60.6565V60.3285C35.7477 60.3126 35.7195 60.2966 35.6912 60.2797C35.673 60.3116 35.6518 60.3445 35.6296 60.3764V61.9833C35.6791 61.9773 35.7275 61.9713 35.776 61.9643V61.6593C35.7679 61.6653 35.7609 61.6713 35.7528 61.6772C35.7427 61.6364 35.7346 61.5955 35.7265 61.5546C35.7195 61.5138 35.7134 61.4739 35.7084 61.433C35.7073 61.426 35.7063 61.4191 35.7063 61.4121C35.7053 61.4081 35.7053 61.4051 35.7053 61.4011C35.7023 61.3792 35.7003 61.3573 35.6993 61.3353C35.6983 61.3333 35.6983 61.3323 35.6993 61.3303C35.6983 61.3194 35.6972 61.3074 35.6972 61.2974C35.6922 61.2287 35.6922 61.1609 35.6972 61.0951C35.6972 61.0851 35.6972 61.0772 35.6972 61.0682ZM35.1438 60.2318C35.1307 60.6645 34.9297 60.9097 34.5843 60.9386C35.0196 60.9715 35.2751 60.7213 35.2902 60.2318C35.2983 59.9687 35.6084 59.7145 35.8831 59.6736C35.5851 59.6208 35.1539 59.9198 35.1438 60.2318ZM35.974 0.000126815C35.4579 -0.00485727 34.9176 0.137688 34.4278 0.319109C33.7561 0.568313 33.1472 0.996945 32.4655 1.20329C31.807 1.40165 31.3485 1.76649 30.9778 2.2958C30.7799 2.57889 30.492 2.83807 30.4032 3.15207C30.1325 4.10502 29.9527 5.0839 29.7083 6.04483C29.5669 6.60205 29.3599 7.14332 29.2094 7.69855C29.1852 7.78627 29.271 7.95274 29.3559 8.00856C29.5175 8.11522 29.7154 8.16706 29.8921 8.23982C29.8921 9.04725 29.9073 9.80981 29.88 10.5714C29.878 10.6352 29.8588 10.7089 29.8265 10.7787C29.8164 10.8026 29.8053 10.8256 29.7922 10.8475C29.78 10.8704 29.7669 10.8914 29.7518 10.9123C29.7518 10.9143 29.7497 10.9153 29.7487 10.9173C29.7427 10.9262 29.7356 10.9342 29.7295 10.9422C29.7235 10.9502 29.7174 10.9571 29.7114 10.9631C29.7023 10.9731 29.6932 10.9831 29.6841 10.991C29.6649 11.01 29.6447 11.0249 29.6245 11.0379C29.2114 11.2911 28.7752 11.5104 28.3308 11.7058C26.223 12.6298 24.3547 13.9297 22.5822 15.3551C21.4652 16.2532 20.421 17.2251 19.4504 18.2678C19.3747 18.3495 19.2989 18.4313 19.2252 18.514C19.1575 18.5888 19.0899 18.6635 19.0232 18.7393C18.4263 19.4072 17.8608 20.103 17.3255 20.8256C17.2669 20.9054 17.2084 20.9841 17.1508 21.0639C17.1417 21.0758 17.1326 21.0888 17.1235 21.1008C17.0569 21.1935 16.9902 21.2852 16.9246 21.3779C16.8923 21.4227 16.8599 21.4676 16.8286 21.5135C16.7711 21.5932 16.7155 21.6739 16.66 21.7547C16.5862 21.8593 16.5145 21.965 16.4428 22.0717C14.6957 24.6514 13.3272 27.4256 12.4314 30.423C12.398 30.5337 12.3657 30.6443 12.3344 30.7559C11.8638 32.3828 11.5032 34.0325 11.277 35.7042C11.27 35.758 11.2629 35.8118 11.2558 35.8666C11.1407 36.7538 11.0639 37.6469 11.0296 38.5461C11.0296 38.56 11.0296 38.574 11.0296 38.5879C11.0104 39.0684 11.0023 39.5489 11.0023 40.0273C11.0023 40.134 11.0023 40.2407 11.0043 40.3473C11.0043 40.449 11.0064 40.5517 11.0094 40.6534C11.0468 43.0527 11.3204 45.4291 11.8709 47.7876C12.7131 51.3981 14.1129 54.7683 16.157 57.8754C17.2387 59.5171 18.4324 61.0752 19.8726 62.4328C20.0291 62.5804 20.2291 62.683 20.4947 62.8654V62.7688C20.2998 62.6422 20.1453 62.5524 20.019 62.4328C18.5789 61.0752 17.3851 59.5171 16.3035 57.8754C14.63 55.3315 13.3878 52.6112 12.5304 49.7264C12.3395 49.0884 12.1688 48.4415 12.0163 47.7876C11.3063 44.7413 11.0579 41.6611 11.177 38.5461C11.2831 35.7789 11.7891 33.0716 12.5788 30.423C13.6201 26.9371 15.3016 23.7543 17.473 20.8256C18.9869 18.7822 20.7441 16.951 22.7297 15.3551C24.5021 13.9297 26.3705 12.6298 28.4782 11.7058C28.9226 11.5104 29.3589 11.2911 29.772 11.0379C29.8729 10.9761 29.9638 10.8355 30.0052 10.7C30.0184 10.6551 30.0265 10.6113 30.0275 10.5714C30.0305 10.4867 30.0335 10.4029 30.0345 10.3182C30.0406 10.0859 30.0426 9.85168 30.0436 9.61643V9.60845C30.0446 9.16188 30.0396 8.70833 30.0396 8.23982C29.9952 8.22188 29.9497 8.20494 29.9032 8.18799C29.7659 8.13715 29.6245 8.08831 29.5033 8.00856C29.4185 7.95274 29.3326 7.78627 29.3569 7.69855C29.5074 7.14332 29.7144 6.60205 29.8558 6.04483C30.1002 5.0839 30.28 4.10502 30.5506 3.15207C30.6395 2.83807 30.9273 2.57889 31.1253 2.2958C31.4959 1.76649 31.9544 1.40165 32.6129 1.20329C33.2936 0.996945 33.9036 0.568313 34.5752 0.319109C35.0378 0.146659 35.5478 0.010095 36.0386 0.00112363C36.0174 0.000126815 35.9952 0.000126815 35.974 0.000126815ZM36.388 24.7401C36.0315 25.2984 35.9305 25.9533 35.9002 26.5912C35.8285 28.1403 35.4225 29.5867 34.7802 30.9922C34.1298 32.4156 33.6713 33.9049 33.4118 35.449C33.3199 35.9942 33.2653 36.5465 33.1795 37.1964C33.234 37.1794 33.2845 37.1655 33.332 37.1515C33.4138 36.5205 33.4683 35.9813 33.5582 35.449C33.8178 33.9049 34.2763 32.4156 34.9267 30.9922C35.569 29.5867 35.975 28.1403 36.0467 26.5912C36.075 25.9702 36.1729 25.3333 36.5072 24.785C36.5082 24.781 36.5092 24.778 36.5102 24.774C36.4698 24.7631 36.4284 24.7511 36.388 24.7401ZM33.7258 17.6298C32.7977 16.3101 32.3574 14.8308 31.9029 13.3475C31.6494 12.5212 31.9837 11.7486 32.4998 11.0688C32.619 10.9123 32.7381 10.7558 32.8573 10.6003C32.8098 10.5504 32.7624 10.5006 32.7149 10.4518C32.6897 10.4757 32.6634 10.4996 32.6381 10.5245C32.6624 10.5495 32.6866 10.5744 32.7109 10.6003C32.5917 10.7558 32.4725 10.9123 32.3533 11.0688C31.8373 11.7486 31.503 12.5212 31.7565 13.3475C32.2109 14.8308 32.6513 16.3101 33.5794 17.6298C34.3803 18.7682 35.4983 19.2287 36.6375 19.2168C35.5488 19.1879 34.4924 18.7194 33.7258 17.6298ZM36.5729 22.1125C35.6912 21.7048 35.3983 20.9413 35.1842 20.085C35.1084 19.785 34.9095 19.5138 34.7348 19.2267C34.658 19.1819 34.5823 19.134 34.5055 19.0822C34.6934 19.4251 34.9499 19.7351 35.0378 20.085C35.2519 20.9413 35.5458 21.7048 36.4264 22.1125C36.5718 22.1793 36.688 22.2152 36.8041 22.1923C36.7334 22.1803 36.6587 22.1524 36.5729 22.1125ZM35.5639 54.225C36.0245 53.9529 36.485 53.6798 36.9455 53.4076C36.8779 53.4126 36.8112 53.4226 36.7466 53.4385C36.3032 53.7007 35.8609 53.9629 35.4175 54.225C35.4326 54.2868 35.4478 54.3496 35.4619 54.4114C35.6205 54.4114 35.7871 54.4383 35.9427 54.4284C35.8316 54.4244 35.7174 54.4114 35.6084 54.4114C35.5932 54.3496 35.5791 54.2868 35.5639 54.225ZM36.592 25.091C36.585 25.103 36.5769 25.114 36.5688 25.1249C36.5506 25.1997 36.5304 25.2824 36.5062 25.3771C36.6173 25.2425 36.688 25.1728 36.7385 25.091C36.8607 24.8917 37.0172 24.79 37.1839 24.7671C36.9637 24.7382 36.7506 24.8348 36.592 25.091ZM34.5328 5.29124C34.2248 5.41584 33.9783 5.52648 33.8561 5.88135C33.7743 6.12059 33.5774 6.32195 33.3946 6.56218C33.4219 6.59109 33.4481 6.62099 33.4754 6.6509C33.6743 6.36979 33.9107 6.1495 34.0026 5.88135C34.1248 5.52648 34.3712 5.41584 34.6792 5.29124C35.4942 4.96229 36.3325 4.87158 37.1818 4.86659C36.282 4.8626 35.3953 4.94335 34.5328 5.29124ZM37.3495 73.0599C37.1556 73.1386 37.0152 73.1975 36.889 73.2493V73.3091C37.0273 73.2523 37.1667 73.1945 37.3626 73.1147C37.3586 73.0968 37.3545 73.0778 37.3495 73.0599ZM37.8373 76.4969C37.6838 76.4551 37.5363 76.4172 37.3949 76.3813C36.994 76.2796 36.6365 76.1899 36.3042 76.0444C35.9709 75.8978 35.6387 75.7493 35.3074 75.5978C34.4348 75.1991 33.5703 74.7834 32.7129 74.3548C32.0857 74.0408 31.4848 73.67 30.9061 73.2762C30.7364 73.1606 30.6072 72.8855 30.587 72.6711C30.5809 72.6103 30.5759 72.5495 30.5688 72.4897C30.5092 71.8936 30.4213 71.3045 30.3032 70.7234C30.0921 69.6817 29.7821 68.6639 29.3508 67.6731C29.2811 67.5126 29.4225 67.2744 29.4013 67.079C29.2821 66.0004 29.1317 64.9259 29.0135 63.8473C28.9529 63.2921 28.9569 62.7309 28.8994 62.1746C28.8246 61.4639 28.7247 60.7552 28.6227 59.9667C28.5701 59.9069 28.5136 59.8411 28.45 59.7693C28.4762 59.9757 28.5025 60.176 28.5287 60.3724C28.558 60.4442 28.5812 60.5199 28.5762 60.5907C28.5742 60.6206 28.5722 60.6505 28.5691 60.6804C28.6378 61.1958 28.7014 61.6842 28.7529 62.1746C28.8105 62.7309 28.8065 63.2921 28.8671 63.8473C28.9852 64.9259 29.1357 66.0004 29.2549 67.079C29.2761 67.2744 29.1347 67.5126 29.2044 67.6731C29.2428 67.7598 29.2791 67.8475 29.3155 67.9353C29.3569 68.0349 29.3963 68.1346 29.4346 68.2353C29.4589 68.2981 29.4821 68.3609 29.5053 68.4237C29.5296 68.4855 29.5518 68.5473 29.574 68.6091C29.6063 68.7008 29.6386 68.7935 29.6689 68.8862C29.6972 68.97 29.7235 69.0527 29.7497 69.1364C29.8063 69.3168 29.8598 69.4983 29.9093 69.6817C29.9275 69.7455 29.9436 69.8093 29.9608 69.8731C29.9709 69.9119 29.981 69.9518 29.9911 69.9917C30.0093 70.0615 30.0265 70.1322 30.0426 70.203C30.0436 70.204 30.0436 70.205 30.0436 70.206C30.0446 70.21 30.0456 70.214 30.0467 70.218C30.0517 70.2389 30.0557 70.2588 30.0608 70.2798C30.078 70.3495 30.0931 70.4213 30.1083 70.4921C30.1174 70.534 30.1264 70.5768 30.1355 70.6197C30.1477 70.6765 30.1588 70.7333 30.1709 70.7901C30.2254 71.0673 30.2739 71.3464 30.3153 71.6275C30.3254 71.6953 30.3355 71.763 30.3436 71.8308C30.3537 71.8996 30.3628 71.9694 30.3719 72.0402C30.383 72.1309 30.3941 72.2226 30.4042 72.3143C30.4062 72.3292 30.4082 72.3452 30.4092 72.3611C30.4203 72.4648 30.4304 72.5675 30.4405 72.6711C30.4426 72.6911 30.4456 72.712 30.4496 72.7329C30.4527 72.7529 30.4577 72.7748 30.4628 72.7957C30.4678 72.8177 30.4749 72.8396 30.4819 72.8615C30.489 72.8825 30.4971 72.9044 30.5052 72.9263C30.5132 72.9453 30.5213 72.9642 30.5304 72.9831C30.5385 72.9991 30.5466 73.015 30.5547 73.031C30.5698 73.0589 30.587 73.0868 30.6041 73.1127C30.6153 73.1297 30.6274 73.1456 30.6395 73.1606C30.6758 73.2074 30.7162 73.2463 30.7597 73.2762C30.7607 73.2772 30.7617 73.2772 30.7627 73.2782C31.3404 73.671 31.9403 74.0418 32.5664 74.3548C33.0744 74.609 33.5855 74.8582 34.0985 75.1014C34.3126 75.2031 34.5257 75.3037 34.7408 75.4034C34.9428 75.4981 35.1468 75.5908 35.3508 75.6835C35.6195 75.8061 35.8881 75.9258 36.1588 76.0444C36.2194 76.0713 36.282 76.0962 36.3446 76.1191C36.3759 76.1311 36.4072 76.1421 36.4395 76.153C36.5234 76.1819 36.6092 76.2088 36.6981 76.2348C36.7425 76.2477 36.787 76.2607 36.8334 76.2726C36.8334 76.2736 36.8344 76.2736 36.8354 76.2736C36.9031 76.2916 36.9728 76.3105 37.0435 76.3285C37.1495 76.3564 37.2586 76.3833 37.3717 76.4122C37.4363 76.4291 37.502 76.4461 37.5687 76.463C37.6555 76.487 37.7454 76.5109 37.8373 76.5368C37.8393 76.5378 37.8403 76.5388 37.8423 76.5388C37.8403 76.5248 37.8393 76.5109 37.8373 76.4969ZM38.52 53.8582C38.4321 53.8054 38.3049 53.7914 38.1766 53.8014C38.2514 53.8084 38.32 53.8263 38.3736 53.8582C38.824 54.1283 38.9846 55.0564 38.6957 55.5059C38.2493 56.2017 37.4969 56.4419 36.7769 56.7051C36.4537 56.8237 36.4032 56.9394 36.4547 57.2813C36.5537 57.9282 36.5587 58.5911 36.5648 59.248C36.5678 59.562 36.4002 59.6746 36.184 59.6936C36.4648 59.7135 36.7142 59.6308 36.7102 59.248C36.7052 58.5911 36.6991 57.9282 36.6011 57.2813C36.5496 56.9394 36.6001 56.8237 36.9223 56.7051C37.6434 56.4419 38.3958 56.2017 38.8422 55.5059C39.131 55.0564 38.9704 54.1283 38.52 53.8582ZM38.9553 18.831C38.1463 19.3284 37.3263 19.6763 36.488 19.6982C37.4061 19.7162 38.3019 19.3334 39.1845 18.7782C39.1078 18.7951 39.032 18.8131 38.9553 18.831ZM38.8089 52.1536C37.6525 52.4228 36.5264 52.8245 35.4023 53.2113C35.166 53.292 34.9963 53.5592 34.7418 53.7894C34.9378 53.8632 35.1155 53.8861 35.2832 53.8761C35.1589 53.8692 35.0277 53.8422 34.8883 53.7894C35.1428 53.5592 35.3125 53.292 35.5478 53.2113C36.6728 52.8245 37.7989 52.4228 38.9553 52.1536C39.3199 52.0699 39.6855 52.027 40.0491 52.0221C39.637 52.0161 39.2219 52.0579 38.8089 52.1536ZM40.7449 1.62195C40.4146 1.42657 40.2207 1.26609 39.9975 1.18933C39.6451 1.06872 39.2775 0.961059 38.9088 0.924177C38.0251 0.836457 37.1344 0.816521 36.2517 0.72581C36.0426 0.704877 35.8376 0.689925 35.6417 0.694909C35.7922 0.696903 35.9467 0.709861 36.1053 0.72581C36.9879 0.816521 37.8787 0.836457 38.7624 0.924177C39.131 0.961059 39.4986 1.06872 39.8511 1.18933C40.0743 1.26609 40.2682 1.42657 40.5985 1.62195C40.8974 2.01071 40.9883 2.5759 40.5651 3.26072C40.6601 3.17998 40.7499 3.10422 40.8358 3.03245C41.1115 2.45031 41.0095 1.96685 40.7449 1.62195ZM41.7316 7.99261C41.6347 7.74141 41.6579 7.54205 41.7457 7.35963C41.7639 7.21809 41.8154 7.07255 41.9104 6.92103C41.6346 7.24799 41.4074 7.53408 41.5852 7.99261C41.5882 8.00059 41.5912 8.00757 41.5922 8.01554C41.7215 8.38037 41.5135 8.79505 41.1812 8.99142C41.1822 9.01435 41.1822 9.03827 41.1822 9.0612C41.5973 8.90969 41.8871 8.42723 41.7377 8.01056C41.7356 8.00457 41.7336 7.99859 41.7316 7.99261ZM42.4456 1.97682C42.1386 2.43934 41.8811 2.84205 41.6084 3.2348C41.3074 3.66742 40.9317 4.0482 40.8146 4.59645C40.7863 4.72803 40.5268 4.8955 40.3692 4.90048C40.0531 4.91145 39.737 4.91743 39.4209 4.91843C39.7855 4.91843 40.1511 4.91245 40.5156 4.90048C40.6732 4.8955 40.9327 4.72803 40.961 4.59645C41.0782 4.0482 41.4539 3.66742 41.7548 3.2348C42.0073 2.87096 42.2467 2.49915 42.5244 2.07849C42.4992 2.0456 42.4729 2.01171 42.4456 1.97682ZM42.7244 10.5993C42.686 10.5913 42.6476 10.5823 42.6102 10.5744C42.3305 10.7668 42.6688 11.1994 42.278 11.316C42.277 11.325 42.277 11.3329 42.276 11.3419C42.8698 11.2951 42.48 10.8246 42.7244 10.5993ZM42.9647 13.822C42.9082 13.7931 42.8365 13.7951 42.7526 13.8011C42.7769 13.8051 42.7981 13.812 42.8183 13.822C42.992 13.9097 43.1455 13.9376 43.2839 13.9217C43.1859 13.9117 43.0799 13.8798 42.9647 13.822ZM43.2 17.885C43.0607 18.1831 42.992 18.4094 42.8617 18.5928C42.0891 19.6853 40.8954 20.2644 39.8117 20.9672C39.1139 21.4207 38.3463 21.7696 37.6101 22.1634C37.2677 22.3468 37.2303 22.5521 37.4687 22.8791C37.6292 23.1024 37.7363 23.4004 37.7626 23.6746C37.8423 24.5109 38.6776 25.1409 39.4694 25.101C38.724 25.0621 37.9837 24.46 37.909 23.6746C37.8827 23.4004 37.7757 23.1024 37.6141 22.8791C37.3768 22.5521 37.4141 22.3468 37.7565 22.1634C38.4927 21.7696 39.2603 21.4207 39.9582 20.9672C41.0408 20.2644 42.2356 19.6853 43.0082 18.5928C43.1384 18.4094 43.2071 18.1831 43.3465 17.885C43.4344 17.8671 43.5151 17.8561 43.5909 17.8511C43.4768 17.8442 43.3465 17.8561 43.2 17.885ZM44.2857 4.72704C44.2544 4.51671 44.21 4.30738 44.1676 4.09804C44.1171 4.04721 44.0605 4.00733 43.9979 3.98042C44.0464 4.22962 44.1029 4.47684 44.1393 4.72704C44.1797 4.99817 44.2029 5.2723 44.2393 5.60125C44.2898 5.52948 44.3302 5.45172 44.3615 5.36998C44.3372 5.13872 44.316 4.93238 44.2857 4.72704ZM44.5039 6.63096C44.4948 7.09348 44.5029 7.56199 44.5008 8.03249C44.4978 8.98445 44.4524 9.94438 44.1494 10.8754C44.1948 10.8854 44.2403 10.8953 44.2867 10.9053C44.5978 9.96731 44.6432 8.9994 44.6473 8.04046C44.6493 7.68061 44.6453 7.32275 44.6473 6.96788C44.6049 6.85524 44.5574 6.7426 44.5039 6.63096ZM44.413 21.5384C43.2485 23.6646 41.2428 24.8478 39.2552 26.048C39.3118 26.0669 39.3613 26.0729 39.3906 26.055C41.3822 24.8518 43.3929 23.6686 44.5594 21.5384C44.7766 21.1416 44.8897 20.9443 45.0401 20.9004C44.8008 20.8466 44.6937 21.025 44.413 21.5384ZM45.2674 56.733C45.3552 56.739 45.4461 56.7579 45.5421 56.7928C45.5683 56.8018 45.6037 56.7948 45.6411 56.7769C45.5098 56.735 45.3855 56.724 45.2674 56.733ZM45.5643 6.10564C45.4956 5.991 45.4108 5.88135 45.3118 5.77469C45.2058 5.66006 45.0704 5.47963 45.0937 5.35603C45.23 4.62038 44.824 4.03325 44.5524 3.42719C44.4251 3.14409 44.0757 2.94871 43.804 2.74237C43.6676 2.63771 43.4808 2.59783 43.2617 2.50613C43.4081 2.33866 43.5081 2.22403 43.6242 2.09145C43.5222 1.99576 43.4404 1.85122 43.3293 1.8263C42.7335 1.69372 42.1315 1.58208 41.5276 1.48638C41.5094 1.48339 41.4852 1.48838 41.4589 1.49934C42.0366 1.59204 42.6123 1.6997 43.1839 1.8263C43.294 1.85122 43.3758 1.99576 43.4778 2.09145C43.3626 2.22403 43.2617 2.33866 43.1152 2.50613C43.3344 2.59783 43.5212 2.63771 43.6586 2.74237C43.9292 2.94871 44.2787 3.14409 44.4059 3.42719C44.6776 4.03325 45.0836 4.62038 44.9472 5.35603C44.925 5.47963 45.0593 5.66006 45.1654 5.77469C45.5098 6.14551 45.6774 6.54723 45.6421 7.07155C45.6188 7.41645 45.5986 7.76035 45.5795 8.10525C45.5229 9.15092 45.4825 10.1976 45.4381 11.2442C45.3754 12.7205 44.7644 13.8788 43.4869 14.6364C43.3637 15.3601 43.2425 16.0798 43.1203 16.7985C43.1809 16.8154 43.2404 16.8324 43.3 16.8483C43.3061 16.8364 43.3132 16.8254 43.3192 16.8135C43.3021 16.8085 43.2839 16.8035 43.2667 16.7985C43.3889 16.0798 43.5101 15.3601 43.6333 14.6364C44.9109 13.8788 45.5219 12.7205 45.5845 11.2442C45.6289 10.2016 45.6683 9.15889 45.7249 8.11722C45.7441 7.76833 45.7643 7.42044 45.7885 7.07155C45.7895 7.05162 45.7905 7.03168 45.7925 7.01174C45.8047 6.66485 45.7259 6.37278 45.5643 6.10564ZM45.4391 59.6108C44.4695 59.6736 43.5222 59.8092 42.6022 60.1511C41.3933 60.5997 40.1733 61.0283 38.9412 61.4101C37.9494 61.7181 36.9314 61.9414 35.9275 62.2085C35.8699 62.2235 35.8174 62.2335 35.7679 62.2384C35.8528 62.2504 35.9548 62.2404 36.0739 62.2085C37.0778 61.9414 38.0958 61.7181 39.0876 61.4101C40.3197 61.0283 41.5397 60.5997 42.7486 60.1511C43.6687 59.8092 44.616 59.6736 45.5855 59.6108C45.7986 59.5979 46.0087 59.5341 46.2551 59.4743C46.2571 59.4633 46.2591 59.4513 46.2612 59.4394C45.9481 59.5072 45.6956 59.5949 45.4391 59.6108ZM40.2702 77.2386C40.2702 77.2386 40.2672 77.2386 40.2662 77.2376C40.1652 77.2166 40.0642 77.1937 39.9632 77.1708C39.9016 77.1568 39.8461 77.1399 39.7956 77.1189C39.7945 77.1189 39.7935 77.1189 39.7935 77.118C39.5744 77.0282 39.4532 76.8717 39.4077 76.6185C39.3108 76.0643 39.2563 75.5001 39.1058 74.9598C38.9482 74.3936 38.7058 73.8494 38.4877 73.3001C38.3847 73.043 38.3049 72.8426 38.5776 72.6004C38.7301 72.4658 38.7937 72.1658 38.7806 71.9475C38.7745 71.8398 38.4948 71.7561 38.3473 71.6494C38.2211 71.5577 38.0787 71.467 37.9959 71.3414C37.8393 71.1081 37.7858 70.7513 37.5767 70.6167C36.3618 69.8342 36.1376 68.5174 35.775 67.3202C35.3478 65.9127 35.1105 64.4484 34.7944 63.008C34.7095 62.6212 34.5843 62.2006 35.2599 62.2006C35.2115 62.1986 35.163 62.2006 35.1135 62.2006H35.0973C34.4399 62.2075 34.5641 62.6242 34.6479 63.008C34.964 64.4484 35.2014 65.9127 35.6286 67.3202C35.9911 68.5174 36.2153 69.8342 37.4303 70.6167C37.6393 70.7513 37.6929 71.1081 37.8494 71.3414C37.9322 71.467 38.0746 71.5577 38.2009 71.6494C38.3483 71.7561 38.6281 71.8398 38.6341 71.9475C38.6483 72.1658 38.5836 72.4658 38.4311 72.6004C38.1585 72.8426 38.2382 73.043 38.3413 73.3001C38.5594 73.8494 38.8018 74.3936 38.9593 74.9598C39.1098 75.5001 39.1654 76.0643 39.2623 76.6185C39.2956 76.8099 39.3734 76.9465 39.5037 77.0402C39.5865 77.1 39.6895 77.1419 39.8168 77.1708C40.4944 77.3243 41.1731 77.4618 41.8548 77.5785C41.8659 77.5805 41.877 77.5825 41.8881 77.5845C43.4424 77.8486 45.0058 78.0041 46.5833 77.9971C44.4574 77.9932 42.3578 77.6981 40.2702 77.2386ZM47.4074 31.9093C46.8005 32.1744 46.1975 32.4495 45.5865 32.7027C44.1938 33.2809 42.788 33.8291 41.4024 34.4242C39.7713 35.124 38.1605 35.8676 36.5335 36.5784C34.3833 37.5184 32.2251 38.4424 30.0739 39.3814C29.9154 39.4512 29.676 39.5798 29.6659 39.6974C29.6195 40.1938 29.6457 40.6972 29.6457 41.2086C29.6952 41.1827 29.7437 41.1567 29.7922 41.1318C29.7901 40.6464 29.7679 40.1689 29.8124 39.6974C29.8225 39.5798 30.0618 39.4512 30.2204 39.3814C32.3715 38.4424 34.5298 37.5184 36.6799 36.5784C38.3069 35.8676 39.9178 35.124 41.5488 34.4242C42.9344 33.8291 44.3393 33.2809 45.733 32.7027C46.3096 32.4635 46.8782 32.2053 47.4509 31.9541C47.4357 31.9392 47.4216 31.9242 47.4074 31.9093ZM48.2679 30.7679C48.4557 30.8028 48.5466 30.9982 48.6385 31.4029C48.2679 31.5355 47.7872 31.5285 47.7336 32.1007C47.7256 32.1864 47.5811 32.2601 47.4418 32.3429C47.4478 32.3648 47.4559 32.3917 47.464 32.4236C47.6246 32.305 47.869 32.2133 47.8801 32.1007C47.9326 31.5285 48.4133 31.5355 48.785 31.4029C48.6719 30.9045 48.5598 30.724 48.2679 30.7679ZM47.5559 58.634C47.9871 58.3818 48.4285 58.1415 48.8395 57.8584C48.9193 57.8036 48.987 57.7687 49.0456 57.7518C48.9597 57.7199 48.8496 57.7508 48.6931 57.8584C48.2831 58.1415 47.8407 58.3818 47.4095 58.634C46.9355 58.9111 46.7793 59.3128 46.9408 59.8391C46.9701 59.9338 46.9873 60.0325 47.0105 60.1292C47.2893 61.2875 47.5599 62.4478 47.8498 63.6031C47.9326 63.935 48.0245 64.0527 48.1962 63.9928C48.1114 63.952 48.0518 63.8254 47.9962 63.6031C47.7064 62.4478 47.4357 61.2875 47.157 60.1292C47.1337 60.0325 47.1166 59.9338 47.0873 59.8391C46.925 59.3115 47.0812 58.9097 47.5559 58.634ZM49.6273 76.5079C49.595 76.5258 49.5616 76.5428 49.5233 76.5637C49.4798 76.6096 49.4313 76.6614 49.3768 76.7202C49.5263 76.6405 49.6162 76.5926 49.6869 76.5547C49.6667 76.5388 49.6475 76.5238 49.6273 76.5079ZM49.7747 64.3088C49.0799 64.3118 49.1021 63.93 49.195 63.4107C49.1344 63.4526 49.0799 63.4905 49.0294 63.5243C48.9567 63.9849 48.985 64.3118 49.6283 64.3088C49.3304 64.5102 49.1516 64.6308 48.9728 64.7514C48.9819 64.7714 48.991 64.7913 49.0001 64.8112C49.0445 64.8023 49.089 64.7933 49.1334 64.7833C49.1294 64.7724 49.1243 64.7624 49.1193 64.7514C49.298 64.6308 49.4768 64.5102 49.7747 64.3088ZM49.5758 64.7215C49.5303 64.7315 49.4859 64.7405 49.4414 64.7494C49.6434 65.2379 49.8414 65.7124 50.0383 66.1878C50.0848 66.1819 50.1302 66.1759 50.1777 66.1709C49.9787 65.6924 49.7798 65.214 49.5758 64.7215ZM49.9626 31.7298C49.9272 31.7079 49.8697 31.7099 49.8081 31.7258C49.8111 31.7268 49.8141 31.7278 49.8171 31.7298C50.2171 31.9761 50.5938 32.2591 51.018 32.5562C50.8766 32.6359 50.8079 32.6838 50.7321 32.7167C49.4566 33.2629 48.1821 33.8132 46.9025 34.3525C45.2502 35.0482 43.597 35.74 41.9396 36.4229C39.4734 37.4386 37.0051 38.4494 34.5318 39.4462C34.1288 39.6087 33.9743 39.7961 34.1399 40.2327C34.2197 40.443 34.1541 40.7062 34.1531 40.9464C34.2015 40.9474 34.25 40.9494 34.2995 40.9504C34.2995 40.7092 34.3651 40.444 34.2854 40.2327C34.1207 39.7961 34.2753 39.6087 34.6782 39.4462C37.1515 38.4494 39.6198 37.4386 42.0851 36.4229C43.7434 35.74 45.3967 35.0482 47.0489 34.3525C48.3285 33.8132 49.602 33.2629 50.8786 32.7167C50.9533 32.6838 51.023 32.6359 51.1644 32.5562C50.7402 32.2591 50.3635 31.9761 49.9626 31.7298ZM51.323 76.9624C51.3118 76.9236 51.3058 76.8986 51.3048 76.8957C51.2654 76.9236 51.225 76.9535 51.1836 76.9844C51.1967 77.0342 51.2149 77.098 51.2331 77.1628C51.2422 77.1528 51.2502 77.1439 51.2593 77.1339C51.2593 77.1339 51.2603 77.1319 51.2624 77.1299C51.2937 77.092 51.3189 77.0541 51.3381 77.0163C51.332 76.9963 51.327 76.9784 51.323 76.9624ZM52.7328 47.5194C51.7057 48.288 50.7645 49.1692 49.7475 49.9527C48.3719 51.0133 46.957 52.0241 45.5623 53.0607C45.3391 53.2272 45.1321 53.4146 44.919 53.595C44.9513 53.609 44.9836 53.6239 45.0149 53.6379C45.2462 53.4445 45.4674 53.2402 45.7087 53.0607C47.1034 52.0241 48.5184 51.0133 49.8939 49.9527C50.9109 49.1692 51.8522 48.288 52.8793 47.5194C53.1822 47.2922 53.5317 47.1845 53.8912 47.1696C53.4802 47.1566 53.0772 47.2623 52.7328 47.5194ZM54.4457 38.4255C54.4699 38.3318 54.5224 38.2391 54.5214 38.1454C54.5164 37.6589 54.4921 37.1715 54.4861 36.685C54.482 36.377 54.3719 36.2793 54.1407 36.3122C54.272 36.3381 54.3366 36.4518 54.3396 36.685C54.3457 37.1715 54.3699 37.6589 54.375 38.1454C54.376 38.2391 54.3235 38.3318 54.2992 38.4255C54.1467 38.9966 53.9266 39.5608 53.867 40.141C53.8155 40.6354 53.9488 41.1498 54.0003 41.6542C54.0427 41.5834 54.0831 41.5116 54.1205 41.4398C54.0609 41.0042 53.969 40.5656 54.0134 40.141C54.073 39.5608 54.2932 38.9966 54.4457 38.4255ZM54.2528 42.8234C54.5416 42.6908 54.8608 42.5413 55.1688 42.5204C55.1597 42.5194 55.1506 42.5184 55.1415 42.5184C54.7981 42.5015 54.4325 42.6739 54.1063 42.8234C54.0447 42.8513 54.1366 43.1753 54.1306 43.3607C54.1255 43.4893 54.1144 43.6528 54.0356 43.7365C53.7438 44.0475 53.4691 44.4114 53.1055 44.6087C52.2996 45.0443 51.8017 46.1129 52.1006 47.026C52.144 47.0101 52.1895 46.9961 52.2339 46.9821C51.9643 46.079 52.4591 45.0374 53.2509 44.6087C53.6145 44.4114 53.8902 44.0475 54.1821 43.7365C54.2609 43.6528 54.272 43.4893 54.277 43.3607C54.2831 43.1753 54.1912 42.8513 54.2528 42.8234ZM55.0819 38.4773C55.0749 38.0427 54.9597 37.6101 54.8022 37.1755C54.8113 37.3599 54.8204 37.5453 54.8284 37.7297C54.8921 37.9789 54.9325 38.2281 54.9355 38.4773C54.9466 39.2807 54.8547 39.4771 55.2627 39.4422C55.0254 39.4083 55.092 39.1651 55.0819 38.4773ZM56.6756 39.7781H56.5302C56.7918 40.0224 56.9624 40.1799 57.1321 40.3384C57.123 40.3513 57.1129 40.3653 57.1028 40.3782C57.1402 40.3942 57.1765 40.4101 57.2139 40.4271C57.2351 40.3972 57.2573 40.3683 57.2785 40.3384C57.1079 40.1799 56.9382 40.0224 56.6756 39.7781ZM58.5894 42.3509C57.3735 42.0758 56.1898 41.8097 54.8971 41.5196C55.1153 40.9753 55.3465 40.3962 55.595 39.7761C55.5536 39.7582 55.5122 39.7403 55.4708 39.7213C55.2142 40.3623 54.9749 40.9594 54.7507 41.5196C56.1131 41.8256 57.3543 42.1047 58.6409 42.3948C58.6238 42.3798 58.6056 42.3649 58.5894 42.3509ZM59.1813 39.518C58.5197 39.3206 57.8572 39.1272 57.1765 39.1412C57.8057 39.1541 58.4208 39.3336 59.0348 39.518C59.1005 39.5369 59.1469 39.6147 59.3267 39.7781H59.4731C59.2934 39.6147 59.2459 39.5369 59.1813 39.518ZM59.8397 43.888C59.7781 43.6468 59.6074 43.4315 59.4852 43.1613C59.4145 43.1105 59.3439 43.0597 59.2762 43.0058C59.3944 43.3527 59.6206 43.6019 59.6933 43.888C59.7468 44.1013 59.665 44.4213 59.5176 44.5798C59.5065 44.5918 59.4893 44.5998 59.4661 44.6037C59.558 44.6167 59.6347 44.6117 59.664 44.5798C59.8115 44.4213 59.8933 44.1013 59.8397 43.888ZM59.8862 50.9465C59.5347 49.9676 58.7712 49.2828 58.0764 48.585C57.3311 47.8364 56.4867 47.1725 55.4596 46.7688C54.9718 46.5774 54.4982 46.4778 54.0316 46.4867C54.4507 46.4987 54.8769 46.5974 55.3132 46.7688C56.3413 47.1725 57.1846 47.8364 57.931 48.585C58.6248 49.2828 59.3883 49.9676 59.7397 50.9465C59.7731 51.0392 60.0528 51.1309 60.1882 51.098C60.0569 51.0771 59.9094 51.0123 59.8862 50.9465ZM58.2541 41.9392C58.2976 41.9761 58.339 42.011 58.3773 42.0449C60.2589 42.8105 61.5061 44.1721 62.5676 45.772C62.5817 45.7162 62.5938 45.6624 62.6049 45.6095C61.5172 44.0056 60.2215 42.659 58.2541 41.9392ZM63.1856 45.3882C63.1059 45.0005 63.0614 44.5948 63.0786 44.201C63.118 43.3059 62.9624 42.4636 62.616 41.6322C61.8232 39.7313 61.0941 37.8054 60.2892 35.9105C59.5479 34.1681 58.7854 32.4316 57.9512 30.731C57.225 29.2498 56.2333 27.928 55.1142 26.7039C53.8438 25.3143 52.3692 24.163 50.7523 23.2041C49.2566 22.3159 47.7124 21.5055 46.1945 20.6542C45.5532 20.2933 45.1452 19.8009 45.02 19.0274C44.923 18.4333 44.6089 17.8731 44.3857 17.2929C44.3382 17.2849 44.2878 17.278 44.2342 17.27C44.2211 17.268 44.2049 17.284 44.2312 17.271C44.4544 17.8591 44.7755 18.4253 44.8735 19.0274C44.9987 19.8009 45.4068 20.2933 46.0481 20.6542C47.566 21.5055 49.1102 22.3159 50.6059 23.2041C52.2228 24.163 53.6973 25.3143 54.9678 26.7039C56.0868 27.928 57.0786 29.2498 57.8047 30.731C58.6389 32.4316 59.4024 34.1681 60.1427 35.9105C60.9476 37.8054 61.6768 39.7313 62.4696 41.6322C62.816 42.4636 62.9725 43.3059 62.9322 44.201C62.915 44.5948 62.9594 45.0005 63.0392 45.3882C63.326 46.7808 63.3624 48.1714 62.8675 49.5131C62.4656 50.6026 61.7808 51.5117 60.5942 51.8855C58.4662 52.5554 56.3181 53.1664 54.2003 53.8672C53.5135 54.0934 52.8884 54.5101 52.2551 54.875C52.141 54.9397 52.0501 55.1889 52.0794 55.3255C52.2279 56.0352 52.1885 56.103 51.4381 56.1648C51.3795 56.1698 51.323 56.1997 51.1129 56.2675C51.5754 56.438 51.9067 56.5606 52.239 56.6832C52.2319 56.731 52.2248 56.7779 52.2178 56.8247C52.0137 56.8586 51.8097 56.8965 51.6047 56.9254C51.3068 56.9673 51.0058 56.9932 50.7099 57.043C50.4383 57.0899 50.313 57.2384 50.3504 57.5365C50.4544 58.3748 50.5746 59.2141 50.618 60.0574C50.7443 62.4597 50.9069 64.8631 50.923 67.2664C50.9432 70.2379 50.8271 73.2094 50.7786 76.1809C50.7635 77.0741 50.7786 77.0801 49.9101 77.3203C49.698 77.3791 49.4778 77.406 49.1768 77.4549C49.1698 77.4648 49.1627 77.4738 49.1556 77.4838C49.5455 77.415 49.807 77.3891 50.0565 77.3203C50.925 77.0801 50.9099 77.0741 50.925 76.1809C50.9735 73.2094 51.0897 70.2379 51.0695 67.2664C51.0533 64.8631 50.8907 62.4597 50.7645 60.0574C50.721 59.2141 50.6008 58.3748 50.4968 57.5365C50.4595 57.2384 50.5847 57.0899 50.8564 57.043C51.1523 56.9932 51.4532 56.9673 51.7512 56.9254C51.9562 56.8965 52.1602 56.8586 52.3642 56.8247C52.3713 56.7779 52.3783 56.731 52.3854 56.6832C52.0531 56.5606 51.7219 56.438 51.2593 56.2675C51.4694 56.1997 51.526 56.1698 51.5845 56.1648C52.3349 56.103 52.3733 56.0352 52.2258 55.3255C52.1965 55.1889 52.2874 54.9397 52.4016 54.875C53.0348 54.5101 53.6599 54.0934 54.3467 53.8672C56.4645 53.1664 58.6117 52.5554 60.7406 51.8855C61.9273 51.5117 62.612 50.6026 63.014 49.5131C63.5088 48.1714 63.4715 46.7808 63.1856 45.3882ZM73.0174 37.1954C72.8295 34.9057 72.3548 32.6589 71.5903 30.4968C70.9621 28.7165 70.2542 26.9451 69.3755 25.2754C68.614 23.8291 67.6193 22.4903 66.6315 21.1735C64.3602 18.1482 61.495 15.7638 58.2117 13.8689C56.2302 12.7255 54.1437 11.7855 51.9077 11.2512C50.5918 10.9372 49.2344 10.7917 47.8922 10.5903C47.8165 10.5794 47.7397 10.5774 47.6629 10.5813C47.6912 10.5833 47.7185 10.5863 47.7458 10.5903C49.088 10.7917 50.4463 10.9372 51.7623 11.2512C53.9973 11.7855 56.0838 12.7255 58.0653 13.8689C61.3486 15.7638 64.2138 18.1482 66.4851 21.1735C67.4728 22.4903 68.4676 23.8291 69.2291 25.2754C70.1077 26.9451 70.8157 28.7165 71.4439 30.4968C72.2084 32.6589 72.6831 34.9057 72.8709 37.1954C73.0477 39.3485 73.0264 41.4987 72.7942 43.6538C72.5164 46.2295 71.8862 48.7236 70.9945 51.1399C70.0623 53.6668 68.7827 56.0293 67.1587 58.2113C65.4428 60.5179 63.4452 62.5255 61.1244 64.2351C59.6256 65.3395 58.0491 66.3154 56.3575 67.1019C55.4314 67.5335 54.4941 67.9502 53.5377 68.3111C52.9661 68.5264 52.3571 68.645 51.7592 68.7975C51.7603 68.8095 51.7603 68.8224 51.7613 68.8344C52.4056 68.6639 53.0661 68.5433 53.6842 68.3111C54.6406 67.9502 55.5768 67.5335 56.5039 67.1019C58.1956 66.3154 59.7721 65.3395 61.2708 64.2351C63.5916 62.5255 65.5893 60.5179 67.3052 58.2113C68.9291 56.0293 70.2087 53.6668 71.1409 51.1399C72.0327 48.7236 72.6629 46.2295 72.9406 43.6538C73.1729 41.4987 73.1941 39.3485 73.0174 37.1954Z" fill="white"/>
<path d="M74.2182 34.5149C73.69 31.5853 72.8598 28.7484 71.558 26.044C71.0349 24.9575 70.4592 23.9068 69.829 22.894C69.7916 22.8332 69.7543 22.7734 69.7159 22.7136C68.6565 21.034 67.4415 19.461 66.0559 18.0027C64.6299 16.5024 63.1008 15.1109 61.3981 13.9416C60.8961 13.5967 60.379 13.2708 59.8458 12.9677C58.2481 12.0606 56.6039 11.1994 54.8961 10.5245C52.2784 9.48784 49.5202 8.96252 46.6884 8.89075C46.3591 8.88277 46.2561 8.76315 46.2501 8.44617C46.248 8.35346 46.247 8.26076 46.245 8.16805C46.2319 7.56298 46.2107 6.95692 46.1289 6.36082C46.0955 6.11461 45.8158 5.90528 45.6673 5.66803C45.5724 5.51751 45.432 5.33709 45.4502 5.18557C45.5825 4.04123 45.0351 3.22085 44.2302 2.49317C44.0282 2.31075 43.9161 2.03463 43.7313 1.82929C43.5697 1.65185 43.3839 1.42558 43.1728 1.37773C42.7688 1.28503 42.3386 1.30197 41.9195 1.27805C41.3307 1.24316 40.7944 1.17338 40.3157 0.713848C40.0198 0.428759 39.5138 0.279236 39.0815 0.224411C38.0736 0.0968181 37.0546 0.0130854 36.0386 0.00112363C36.0174 0.000126815 35.9952 0.000126815 35.974 0.000126815C35.4579 -0.00485727 34.9176 0.137688 34.4278 0.319109C33.7562 0.568313 33.1472 0.996945 32.4655 1.20329C31.807 1.40165 31.3485 1.76649 30.9778 2.2958C30.7799 2.57889 30.492 2.83807 30.4032 3.15207C30.1325 4.10502 29.9527 5.0839 29.7083 6.04483C29.5669 6.60205 29.3599 7.14332 29.2094 7.69855C29.1852 7.78627 29.271 7.95274 29.3559 8.00856C29.5175 8.11522 29.7154 8.16706 29.8921 8.23982C29.8921 9.04725 29.9073 9.80981 29.88 10.5714C29.878 10.6352 29.8588 10.7089 29.8265 10.7787C29.8164 10.8026 29.8053 10.8256 29.7922 10.8475C29.78 10.8704 29.7669 10.8914 29.7518 10.9123C29.7518 10.9143 29.7497 10.9153 29.7487 10.9173C29.7427 10.9262 29.7356 10.9342 29.7295 10.9422C29.7235 10.9502 29.7174 10.9571 29.7114 10.9631C29.7023 10.9731 29.6932 10.9831 29.6841 10.991C29.6649 11.01 29.6447 11.0249 29.6245 11.0379C29.2114 11.2911 28.7752 11.5104 28.3308 11.7058C26.223 12.6298 24.3547 13.9297 22.5822 15.3551C21.4652 16.2532 20.421 17.2251 19.4504 18.2678C19.3747 18.3495 19.2989 18.4313 19.2252 18.514C19.1575 18.5888 19.0899 18.6635 19.0232 18.7393C18.4264 19.4072 17.8608 20.103 17.3255 20.8256C17.2669 20.9054 17.2084 20.9841 17.1508 21.0639C17.1417 21.0758 17.1326 21.0888 17.1235 21.1008C17.0569 21.1935 16.9902 21.2852 16.9246 21.3779C16.8923 21.4227 16.8599 21.4676 16.8286 21.5135C16.7711 21.5932 16.7155 21.6739 16.66 21.7547C16.5862 21.8593 16.5145 21.965 16.4428 22.0717C14.6957 24.6514 13.3272 27.4256 12.4314 30.423C12.398 30.5337 12.3657 30.6443 12.3344 30.7559C11.8638 32.3828 11.5032 34.0325 11.277 35.7042C11.27 35.758 11.2629 35.8118 11.2558 35.8666C11.1407 36.7538 11.0639 37.6469 11.0296 38.5461C11.0296 38.56 11.0296 38.574 11.0296 38.5879C11.0104 39.0684 11.0023 39.5489 11.0023 40.0273C11.0023 40.134 11.0023 40.2407 11.0043 40.3473C11.0043 40.449 11.0064 40.5517 11.0094 40.6534C11.0468 43.0527 11.3204 45.4291 11.8709 47.7876C12.7131 51.3981 14.1129 54.7683 16.157 57.8754C17.2387 59.5171 18.4324 61.0752 19.8726 62.4328C20.0291 62.5804 20.2291 62.683 20.4947 62.8654V62.6691C20.4967 61.9803 20.5008 61.3912 20.4866 60.802C20.4836 60.6884 20.3876 60.5668 20.3119 60.4661C19.2262 59.0137 18.0587 57.6152 17.067 56.103C15.5965 53.8602 14.6421 51.3711 13.8938 48.8113C13.107 46.1189 12.7172 43.3597 12.6788 40.5616C12.6445 38.0517 12.9414 35.5726 13.51 33.1174C13.9645 31.1517 14.5846 29.2418 15.4167 27.4116C16.4438 25.1528 17.7224 23.0356 19.2969 21.0868C20.6765 19.3793 22.1833 17.8033 23.9345 16.4815C25.2515 15.4867 26.6543 14.5975 28.0551 13.7173C28.7085 13.3066 29.4468 13.0275 30.1497 12.6876C30.1547 12.7086 30.1598 12.7285 30.1658 12.7494C30.8122 15.3342 31.9383 17.6468 33.1472 19.9305C32.9048 20.0122 32.618 20.098 32.3402 20.2056C31.1212 20.6761 29.9144 21.1765 28.6863 21.6231C26.7714 22.3199 25.3666 23.5499 24.6173 25.428C24.2941 26.2394 24.1052 27.1066 23.8871 27.9559C23.5063 29.4342 23.1276 30.9134 22.7903 32.4007C22.457 33.871 22.1904 35.3553 21.8652 36.8266C21.7369 37.4067 21.538 37.9719 21.3582 38.577C21.3501 38.6009 21.343 38.6248 21.336 38.6488C21.0411 38.4763 20.8058 38.3387 20.5765 38.2062C20.5462 38.1892 20.5149 38.1713 20.4846 38.1533C20.4402 38.1962 20.3957 38.2391 20.3513 38.2829C20.4826 38.4673 20.5927 38.6717 20.7492 38.8322C21.0178 39.1063 21.2612 39.3884 21.14 39.7951C20.7926 40.9554 20.4129 42.1057 20.0725 43.268C19.6676 44.6516 19.2474 46.0322 18.9152 47.4337C18.5758 48.8631 19.1495 49.833 20.5109 50.2667C20.9068 50.3923 21.0189 50.5926 20.9956 50.9963C20.937 52.056 20.8866 53.1196 20.9138 54.1802C20.9795 56.75 21.1037 59.3198 21.1784 61.8896C21.1956 62.5106 21.2986 63.0897 21.5299 63.6101C21.539 63.632 21.5491 63.6529 21.5582 63.6729C21.7733 64.1384 22.0954 64.555 22.5529 64.9109C23.9093 65.9645 25.2788 67.0022 26.6553 68.03C26.8563 68.1795 27.129 68.2363 27.5026 68.3918H27.5036C27.5026 68.3729 27.5006 68.3529 27.4996 68.333C27.4713 67.8705 27.4542 67.5166 27.4239 67.1637C27.3693 66.5307 27.3148 65.8968 27.2441 65.2648C27.2168 65.0216 27.1734 64.7704 27.0805 64.5461C26.9785 64.2979 26.8118 64.0756 26.6553 63.8114C26.8421 63.7616 26.9815 63.7247 27.1552 63.6788C26.933 63.3808 26.7805 63.011 26.5018 62.8385C25.8908 62.4587 25.5403 61.9773 25.708 61.2805C25.9322 60.3525 26.2079 59.4344 26.5291 58.5343C26.621 58.2771 26.9209 58.0628 27.1704 57.8943C27.543 57.6441 27.8662 57.4188 27.8753 56.8975C27.8814 56.5237 27.9854 56.1399 28.1086 55.7821C28.7529 53.905 29.1852 51.9762 29.3316 50.0095C29.4821 47.9879 29.4912 45.9574 29.5427 43.9299C29.5457 43.7864 29.5498 43.6438 29.5538 43.5003C29.5579 43.3607 29.4973 43.2212 29.4841 43.1594C29.1771 45.8348 28.8893 48.5761 28.5419 51.3103C28.2025 53.9758 27.1077 56.3881 25.8898 58.7576C25.8302 58.8732 25.7706 58.9898 25.71 59.1054C25.7585 58.6001 25.8059 58.0947 25.8534 57.5893C25.8514 57.5893 25.8484 57.5883 25.8463 57.5883C25.7989 57.5813 25.7524 57.5753 25.705 57.5684C25.6545 57.7677 25.5908 57.9651 25.5565 58.1674C25.4929 58.5413 25.4424 58.917 25.3949 59.2938C25.2687 60.2996 24.7889 61.3124 25.4868 62.3142C25.4979 62.3312 25.51 62.3491 25.5232 62.366C24.7657 62.1836 24.494 61.7839 24.6395 61.0841C24.7597 60.501 24.9697 59.9308 25.0414 59.3437C25.308 57.1487 26.222 55.1889 27.2219 53.2541C27.2673 53.1684 27.2411 53.0448 27.2431 52.9371C27.2431 52.9312 27.2431 52.9262 27.2441 52.9202C27.129 52.9371 27.0078 52.9381 26.8997 52.976C26.7957 53.0129 26.6967 53.0647 26.5967 53.1156C26.5604 53.1345 26.524 53.1534 26.4877 53.1714C26.4584 53.1265 26.4281 53.0827 26.3988 53.0388C26.4796 52.9471 26.5422 52.8135 26.6432 52.7717C27.132 52.5743 26.9734 52.339 26.7674 52.0061C26.319 51.2804 25.8332 50.5956 25.1576 50.0563C25.1454 50.0464 25.1656 49.9975 25.1788 49.9168C25.405 49.8769 25.8059 50.0234 25.712 49.4642C25.7595 49.4702 25.807 49.4762 25.8544 49.4822C25.8575 49.4852 25.8595 49.4881 25.8625 49.4911C26.2937 49.9626 26.725 50.4351 27.0835 50.8269C27.0997 50.79 27.1148 50.7531 27.129 50.7162C27.7602 49.1971 28.0631 47.5992 27.8995 45.9395C27.8894 45.9365 27.8804 45.9345 27.8703 45.9315C27.8258 45.9205 27.7804 45.9086 27.7359 45.8966C27.642 46.1717 27.5471 46.4459 27.4602 46.6991C27.2108 46.7619 26.9552 46.8256 26.6987 46.8894C26.6563 46.9004 26.6139 46.9104 26.5715 46.9213C26.5432 46.8755 26.5159 46.8286 26.4887 46.7828C26.6139 46.6512 26.7452 46.5236 26.8633 46.3851C27.3481 45.8169 28.0076 45.3414 27.9157 44.4642C27.8278 43.6249 27.7743 42.7816 27.6491 41.9472C27.3764 40.129 27.0431 38.3188 26.7795 36.4986C26.5038 34.5957 26.2362 32.6898 26.6462 30.7639C26.8391 29.8568 27.4925 28.3706 28.0207 27.8572C27.9632 28.0007 27.9197 28.1084 27.8804 28.2111C27.8713 28.231 27.8642 28.2509 27.8561 28.2709C27.1229 30.1559 26.8371 32.0977 27.3289 34.0744C27.7602 35.8088 28.3055 37.5164 28.8105 39.2329C28.8721 39.4412 28.9953 39.6306 29.1418 39.9366C29.164 39.8639 29.1822 39.8061 29.1983 39.7572C29.2306 39.6595 29.2498 39.6007 29.2609 39.5399C29.4003 38.7743 29.4962 37.9998 29.6821 37.2452C29.9871 36.0072 30.2991 34.7671 30.7011 33.558C31.0505 32.5054 31.4505 31.4547 31.9655 30.4738C32.7917 28.8989 33.736 27.3857 34.6207 25.8396C34.7368 25.6363 35.0367 25.4459 34.7368 25.1498C34.5419 24.9565 34.4177 24.6644 34.1924 24.5378C34.0985 24.486 33.9692 24.4521 33.84 24.4431C33.7016 24.4331 33.5633 24.4501 33.4683 24.5029C33.132 24.6873 32.8432 24.9545 32.4937 25.2425H32.4927C32.4432 25.2834 32.3927 25.3253 32.3402 25.3661C32.3624 25.092 32.3281 24.8787 32.4018 24.7122C32.6523 24.154 32.4857 23.6805 32.1756 23.214C32.0928 23.0904 32.0352 22.9499 31.9797 22.8123C31.7908 22.3448 31.6514 22.1275 31.3899 22.0966C31.2202 22.0747 31.001 22.1325 30.6839 22.2521C29.9649 22.5232 29.2337 22.7834 28.557 23.1393C27.4723 23.7094 26.5159 24.4581 26.0918 25.6522C25.6373 26.9282 25.1949 28.2151 24.8627 29.5259C24.1284 32.4216 23.47 35.3363 22.7681 38.2401C22.7125 38.4733 22.5853 38.7036 22.4378 38.895C22.4116 38.9279 22.356 38.9458 22.2904 38.9528H22.2883C22.2055 38.9608 22.1096 38.9528 22.0369 38.9388C21.9894 38.9299 21.9298 38.7474 21.95 38.6627C22.2096 37.621 22.5045 36.5883 22.7479 35.5427C23.4104 32.6997 24.0163 29.8439 24.7132 27.0089C25.306 24.6006 26.6765 22.8163 29.1842 22.0637C29.9669 21.8284 30.7869 21.6899 31.4454 21.1496C31.7272 20.9193 32.0069 20.6442 32.3372 20.5256C32.524 20.4588 32.7088 20.4369 32.8906 20.4459H32.8947C33.2835 20.4648 33.6632 20.6223 34.0319 20.7828C34.2288 20.8675 34.4318 20.9393 34.6742 21.034C34.6732 21.014 34.6722 20.9951 34.6712 20.9762C34.6075 19.6055 34.7045 19.5457 33.8693 19.0882C33.8279 19.0643 33.7844 19.0413 33.739 19.0164C33.6723 19.3125 33.6077 19.6026 33.542 19.8936C33.541 19.8976 33.54 19.9026 33.539 19.9066C33.4926 19.9096 33.4471 19.9126 33.4007 19.9156C33.3431 19.6554 33.2461 19.3962 33.236 19.134C33.2057 18.3954 32.9583 17.7564 32.4432 17.2182C32.3332 17.1025 32.1766 16.9999 32.1302 16.8623C31.6272 15.3651 31.1414 13.8639 30.6567 12.3617C30.6284 12.2729 30.6597 12.1663 30.6557 12.0686C30.6486 11.8633 30.6567 11.6549 30.6233 11.4526C30.5718 11.1376 30.4961 10.8256 30.4375 10.5126C30.4062 10.3461 30.3799 10.1796 30.3638 10.0122C30.3153 9.50279 30.3597 8.98544 30.3325 8.47308C30.3234 8.28767 30.2224 8.10824 30.1689 7.92483C30.1062 7.70752 29.9558 7.4653 30.0053 7.2749C30.287 6.20133 30.7364 5.15866 30.9031 4.07113C31.1404 2.5151 32.32 1.97183 33.4915 1.36078C33.5309 1.34085 33.6107 1.33786 33.6491 1.3568C33.6562 1.35979 33.6622 1.36377 33.6663 1.36876C33.7824 1.5113 33.8885 1.53323 33.9804 1.50133C34.0824 1.46545 34.1672 1.36278 34.2328 1.28203C34.6227 0.798578 35.1054 0.686934 35.6356 0.694909C35.6377 0.693912 35.6407 0.693912 35.6427 0.694909C35.7932 0.696903 35.9477 0.709861 36.1063 0.72581C36.989 0.816521 37.8797 0.836457 38.7634 0.924177C39.132 0.961059 39.4997 1.06872 39.8521 1.18933C40.0753 1.26609 40.2692 1.42657 40.5995 1.62195C40.8984 2.01071 40.9893 2.5759 40.5661 3.26072C40.6611 3.17998 40.751 3.10422 40.8368 3.03245C41.1438 2.77228 41.4004 2.55597 41.6781 2.32172C41.5306 2.25991 41.3822 2.24396 41.3327 2.16621C41.2327 2.01171 41.1691 1.8263 41.1317 1.64488C41.1236 1.607 41.3054 1.47342 41.3832 1.48638C41.4084 1.49037 41.4347 1.49436 41.4599 1.49934C42.0376 1.59204 42.6133 1.6997 43.1849 1.8263C43.295 1.85122 43.3768 1.99576 43.4788 2.09145C43.3637 2.22403 43.2627 2.33866 43.1162 2.50613C43.3354 2.59783 43.5222 2.63771 43.6596 2.74237C43.9302 2.94871 44.2797 3.14409 44.4069 3.42719C44.6786 4.03325 45.0846 4.62038 44.9483 5.35603C44.926 5.47963 45.0604 5.66006 45.1664 5.77469C45.5108 6.14551 45.6784 6.54723 45.6431 7.07155C45.6199 7.41645 45.5997 7.76035 45.5805 8.10525C45.5239 9.15092 45.4835 10.1976 45.4391 11.2442C45.3765 12.7205 44.7654 13.8788 43.4879 14.6364C43.3647 15.3601 43.2435 16.0798 43.1213 16.7985C43.1819 16.8154 43.2415 16.8324 43.301 16.8483C43.3071 16.8364 43.3142 16.8254 43.3202 16.8135C43.4626 16.5563 43.6081 16.2991 43.7454 16.0379C43.9141 15.718 44.0231 15.3511 44.2484 15.077C45.122 14.0134 45.7471 12.8521 45.9764 11.4835C46.0572 10.999 46.3147 10.5823 46.9419 10.6132H46.953C46.9944 10.6152 47.0368 10.6152 47.0792 10.6132H47.0883C47.2782 10.6043 47.4701 10.5704 47.6559 10.5813H47.664C47.6922 10.5833 47.7195 10.5863 47.7468 10.5903C49.089 10.7917 50.4473 10.9372 51.7633 11.2512C53.9983 11.7855 56.0848 12.7255 58.0663 13.8689C61.3496 15.7638 64.2148 18.1482 66.4861 21.1735C67.4738 22.4903 68.4686 23.8291 69.2301 25.2754C70.1088 26.9451 70.8167 28.7165 71.4449 30.4968C72.2094 32.6589 72.6841 34.9057 72.8719 37.1954C73.0487 39.3485 73.0275 41.4987 72.7952 43.6538C72.5174 46.2295 71.8872 48.7236 70.9955 51.1399C70.0633 53.6668 68.7837 56.0293 67.1597 58.2113C65.4439 60.5179 63.4462 62.5255 61.1254 64.2351C59.6266 65.3395 58.0501 66.3154 56.3585 67.1019C55.4324 67.5335 54.4952 67.9502 53.5388 68.3111C52.9671 68.5264 52.3581 68.645 51.7603 68.7975C51.7118 68.8095 51.6643 68.8214 51.6158 68.8344C51.426 65.0096 51.2401 61.2616 51.0503 57.4487H51.1967C51.4694 57.4477 51.7502 57.4457 52.0299 57.4487H52.0865C52.7237 57.4438 52.8671 57.2274 52.6712 56.5895C52.3693 55.6096 52.4309 55.3614 53.3903 54.9816C54.886 54.3895 56.41 53.8622 57.936 53.3468C58.6824 53.0946 59.462 52.9431 60.2205 52.7258C61.1213 52.4686 61.9343 52.0569 62.5474 51.3293C63.4119 50.3035 63.727 49.0874 63.829 47.7886C63.9199 46.6313 63.4937 45.4889 63.7512 44.3256C63.7946 44.1293 63.6896 43.904 63.6745 43.6907C63.6654 43.5621 63.7098 43.4295 63.7058 43.2999C63.6987 43.0427 63.7441 42.7576 63.6462 42.5363C63.2947 41.7419 62.8352 40.9923 62.5191 40.1858C61.2365 36.9093 59.9609 33.6318 58.3511 30.4908C57.12 28.0875 55.4657 26.0241 53.3337 24.3524C51.1563 22.6438 48.7254 21.3241 46.2612 20.076C45.529 19.7062 45.2088 19.2297 45.232 18.4452C45.2613 17.4743 45.2482 17.4225 44.3867 17.2929C44.3393 17.2849 44.2888 17.278 44.2352 17.27C44.2221 17.268 44.2059 17.284 44.2322 17.271C44.4554 17.8591 44.7766 18.4253 44.8745 19.0274C44.9998 19.8009 45.4078 20.2933 46.0491 20.6542C47.567 21.5055 49.1112 22.3159 50.6069 23.2041C52.2238 24.163 53.6983 25.3143 54.9688 26.7039C56.0878 27.928 57.0796 29.2498 57.8057 30.731C58.6399 32.4316 59.4035 34.1681 60.1437 35.9105C60.9487 37.8054 61.6778 39.7313 62.4706 41.6322C62.817 42.4636 62.9736 43.3059 62.9332 44.201C62.916 44.5948 62.9604 45.0005 63.0402 45.3882C63.327 46.7808 63.3634 48.1714 62.8685 49.5131C62.4666 50.6026 61.7818 51.5117 60.5952 51.8855C58.4672 52.5554 56.3191 53.1664 54.2013 53.8672C53.5145 54.0934 52.8894 54.5101 52.2561 54.875C52.142 54.9397 52.0511 55.1889 52.0804 55.3255C52.2289 56.0352 52.1895 56.103 51.4391 56.1648C51.3805 56.1698 51.324 56.1997 51.1139 56.2675C51.5765 56.438 51.9077 56.5606 52.24 56.6832C52.2329 56.731 52.2258 56.7779 52.2188 56.8247C52.0148 56.8586 51.8108 56.8965 51.6057 56.9254C51.3078 56.9673 51.0069 56.9932 50.7109 57.043C50.4393 57.0899 50.314 57.2384 50.3514 57.5365C50.4554 58.3748 50.5756 59.2141 50.619 60.0574C50.7453 62.4597 50.9079 64.8631 50.924 67.2664C50.9442 70.2379 50.8281 73.2094 50.7796 76.1809C50.7645 77.0741 50.7796 77.0801 49.9111 77.3203C49.699 77.3791 49.4788 77.406 49.1779 77.4549C49.1253 77.4638 49.0688 77.4738 49.0102 77.4838C49.3102 77.0841 49.5051 76.8239 49.7 76.5637C49.696 76.5607 49.6919 76.5577 49.6879 76.5547C49.6677 76.5388 49.6485 76.5238 49.6283 76.5079C49.596 76.5258 49.5626 76.5428 49.5243 76.5637C49.4556 76.6006 49.3687 76.6465 49.2314 76.7202C49.4364 76.5019 49.5445 76.3863 49.6899 76.2318C49.5222 76.1849 49.4101 76.154 49.189 76.0932C49.5758 75.9327 49.8616 75.8131 50.1474 75.6945C50.1423 75.6387 50.1363 75.5838 50.1312 75.528C49.8373 75.4931 49.5435 75.4582 49.193 75.4174C49.493 75.2938 49.7616 75.1841 50.0434 75.0675C49.8909 75.0306 49.7555 74.9977 49.4697 74.9269C49.7838 74.7774 49.9515 74.6977 50.1191 74.6179C50.1171 74.593 50.1151 74.5671 50.1131 74.5412H49.3445C49.3344 74.5053 49.3243 74.4684 49.3142 74.4315C49.5919 74.287 49.8697 74.1424 50.1726 73.9849C50.1676 73.8773 50.1464 73.7288 50.1565 73.5822C50.1868 73.1097 50.2777 72.6213 49.6354 72.4459C49.5525 72.4229 49.4899 72.3322 49.3233 72.1957H50.1716C50.1262 71.7202 49.9353 71.4181 49.3425 71.4152C49.6051 71.3015 49.7424 71.2417 49.9444 71.154C49.7646 71.0384 49.6586 70.9706 49.5334 70.8908C49.6626 70.821 49.7646 70.7672 49.8434 70.7254C49.6434 70.5908 49.4748 70.4761 49.2374 70.3167C49.5354 70.1312 49.6253 70.0336 49.7283 70.0176C50.112 69.9588 50.1989 69.7156 50.2201 69.3806C50.2393 69.0766 50.2757 68.8284 49.9242 68.636C49.5435 68.4267 48.9476 68.331 49.1455 67.6282C49.1768 67.5186 48.9153 67.3252 48.783 67.1747C48.3043 66.6284 47.7821 66.1131 47.3519 65.5309C46.3248 64.1424 45.9036 62.5674 46.043 60.8549C46.0784 60.4123 46.1753 59.9757 46.2561 59.4743C46.2581 59.4633 46.2602 59.4513 46.2622 59.4394C45.9491 59.5072 45.6966 59.5949 45.4401 59.6108C44.4706 59.6736 43.5232 59.8092 42.6032 60.1511C41.3943 60.5997 40.1743 61.0283 38.9422 61.4101C37.9504 61.7181 36.9324 61.9414 35.9285 62.2085C35.871 62.2235 35.8184 62.2335 35.769 62.2384C35.4478 62.2733 35.2902 62.0989 35.2852 61.7351C35.2801 61.3872 35.2812 61.0373 35.3226 60.6924C35.3397 60.5488 35.468 60.4173 35.5458 60.2797C35.574 60.2966 35.6023 60.3126 35.6306 60.3285V61.9833C35.6801 61.9773 35.7286 61.9713 35.777 61.9643C36.489 61.8537 37.0415 61.5417 37.4879 60.9436C37.7989 60.5259 38.2635 60.192 38.718 59.9109C39.4067 59.4852 40.142 59.1294 40.8661 58.7595C41.9195 58.2223 42.9627 57.6621 44.0444 57.1876C44.4312 57.0181 44.8028 56.7001 45.2664 56.733C45.2664 56.733 45.2664 56.732 45.2684 56.733C45.3563 56.739 45.4472 56.7579 45.5431 56.7928C45.5694 56.8018 45.6047 56.7948 45.6421 56.7769C45.7087 56.748 45.7855 56.6892 45.838 56.6433C45.9703 56.5267 46.0551 56.3373 46.2026 56.2645C47.1166 55.812 48.0205 55.3295 48.9678 54.9577C50.918 54.1931 52.9035 53.5163 54.8547 52.7557C55.9788 52.3171 57.0755 51.8048 58.1643 51.2854C58.8076 50.9794 58.85 50.6604 58.3733 50.1251C58.0299 49.7393 57.634 49.3994 57.2998 49.0067C56.5938 48.1773 55.6677 47.6829 54.6689 47.3211C54.4154 47.2294 54.1528 47.1755 53.8922 47.1696C53.4812 47.1566 53.0782 47.2623 52.7338 47.5194C51.7067 48.288 50.7655 49.1692 49.7485 49.9527C48.3729 51.0133 46.958 52.0241 45.5633 53.0607C45.3401 53.2272 45.1331 53.4146 44.92 53.595C44.9038 53.609 44.8866 53.6239 44.8695 53.6379C44.0555 53.2751 43.195 52.8624 42.3123 52.5045C41.5791 52.2075 40.8176 52.032 40.0501 52.0221C39.638 52.0161 39.2229 52.0579 38.8099 52.1536C37.6535 52.4228 36.5274 52.8245 35.4034 53.2113C35.167 53.292 34.9974 53.5592 34.7429 53.7894C34.9388 53.8632 35.1165 53.8861 35.2842 53.8761C35.8467 53.8432 36.281 53.4425 36.8001 53.4076C36.7829 53.4176 36.7647 53.4286 36.7476 53.4385C36.3042 53.7007 35.8619 53.9629 35.4185 54.225C35.4337 54.2868 35.4488 54.3496 35.4629 54.4114C35.6215 54.4114 35.7881 54.4383 35.9437 54.4284C35.9972 54.4244 36.0497 54.4164 36.1002 54.4025C36.6627 54.237 37.2071 54.0137 37.7696 53.8472C37.8898 53.8123 38.0433 53.7894 38.1766 53.8014H38.1776C38.2524 53.8084 38.3211 53.8263 38.3746 53.8582C38.825 54.1283 38.9856 55.0564 38.6968 55.5059C38.2504 56.2017 37.498 56.4419 36.7779 56.7051C36.4547 56.8237 36.4042 56.9394 36.4557 57.2813C36.5547 57.9282 36.5597 58.5911 36.5658 59.248C36.5688 59.562 36.4012 59.6746 36.185 59.6936C36.0911 59.7015 35.9871 59.6916 35.8851 59.6736H35.8841C35.5862 59.6208 35.1549 59.9198 35.1448 60.2318C35.1317 60.6645 34.9307 60.9097 34.5853 60.9386H34.5843C34.4873 60.9466 34.3793 60.9376 34.2611 60.9117C34.0783 60.8718 33.8915 60.806 33.7097 60.7901H33.7087C33.6622 60.7861 33.6168 60.7851 33.5713 60.7891C33.3815 60.804 33.0926 60.9127 33.0462 61.0472C32.9926 61.1988 33.1058 61.5247 33.2451 61.6015C33.6723 61.8377 34.1409 62.0032 34.6045 62.1687C34.7035 62.2036 34.8156 62.2036 34.9287 62.2006C34.9852 62.2006 35.0428 62.1986 35.0984 62.2006C34.4409 62.2075 34.5651 62.6242 34.6489 63.008C34.965 64.4484 35.2024 65.9127 35.6296 67.3202C35.9921 68.5174 36.2164 69.8342 37.4313 70.6167C37.6404 70.7513 37.6939 71.1081 37.8504 71.3414C37.9332 71.467 38.0756 71.5577 38.2019 71.6494C38.3493 71.7561 38.6291 71.8398 38.6351 71.9475C38.6493 72.1658 38.5847 72.4658 38.4321 72.6004C38.1595 72.8426 38.2393 73.043 38.3423 73.3001C38.5604 73.8494 38.8028 74.3936 38.9603 74.9598C39.1108 75.5001 39.1664 76.0643 39.2633 76.6185C39.2967 76.8099 39.3744 76.9465 39.5047 77.0402C39.5875 77.1 39.6905 77.1419 39.8178 77.1708C40.4954 77.3243 41.1741 77.4618 41.8558 77.5785C41.8669 77.5805 41.878 77.5825 41.8892 77.5845C43.4434 77.8486 45.0068 78.0041 46.5843 77.9971H46.5884C46.6106 77.9971 46.6318 77.9971 46.654 77.9961C47.2903 77.9922 47.9296 77.9613 48.5709 77.8995C48.9779 77.8616 49.3849 77.7778 49.7778 77.6652C49.8091 77.6562 49.8404 77.6463 49.8707 77.6363C50.1181 77.5526 50.3544 77.421 50.5847 77.2924C50.7978 77.1738 50.9897 77.0153 51.1594 76.8957C51.1604 76.8986 51.1694 76.9335 51.1846 76.9844C51.1977 77.0342 51.2159 77.098 51.2341 77.1628C51.2432 77.1528 51.2513 77.1439 51.2603 77.1339C51.2603 77.1339 51.2614 77.1319 51.2634 77.1299C51.2947 77.092 51.3199 77.0541 51.3391 77.0163C51.3957 76.9146 51.4159 76.8109 51.4219 76.7083C51.4522 76.1451 51.4896 75.5809 51.4936 75.0177C51.5047 73.7218 51.5088 72.4259 51.4906 71.1311C51.4876 70.9147 51.5058 70.7543 51.6118 70.6466C51.6845 70.5728 51.7966 70.524 51.9713 70.4971C52.1481 70.4702 52.3218 70.4293 52.4945 70.3814C52.4965 70.3805 52.4985 70.3805 52.5016 70.3795C52.7934 70.2967 53.0823 70.194 53.3731 70.1063C56.8544 69.0577 59.971 67.3192 62.8332 65.1312C64.6854 63.7167 66.3558 62.0969 67.7677 60.2528C68.8282 58.8682 69.8805 57.4507 70.7107 55.9276C71.9529 53.6499 72.9376 51.2475 73.5809 48.7196C74.1243 46.5904 74.507 44.4363 74.6636 42.2503C74.7161 41.5136 74.7403 40.778 74.7363 40.0433C74.7292 38.1912 74.5504 36.3461 74.2192 34.5149H74.2182ZM26.7906 53.5731C26.5422 53.7765 26.2948 53.9788 25.9958 54.222C26.019 53.7834 26.1291 53.6857 26.7906 53.5731ZM22.6196 44.1053C23.07 44.1432 23.5195 44.1811 23.9689 44.219C23.9658 44.2668 23.9618 44.3137 23.9588 44.3615C23.5083 44.3306 23.0579 44.2997 22.6075 44.2688C22.6115 44.215 22.6156 44.1602 22.6196 44.1053ZM22.7105 39.7632C24.1022 40.4909 25.51 41.1986 26.3018 42.5802C25.1222 41.6552 23.9164 40.7092 22.7105 39.7632ZM22.0005 39.5658C22.05 39.7453 22.1671 39.9356 22.1389 40.1021C21.7581 42.3539 21.3501 44.6017 20.9653 46.8526C20.8845 47.3211 20.8169 47.8025 20.832 48.275C20.8532 48.8921 21.0007 48.9818 21.6329 48.8761C21.9955 48.8153 22.3489 48.6897 22.7125 48.6379C23.2377 48.5641 23.774 48.5601 24.2941 48.4674C24.587 48.4146 24.8637 48.2541 25.1374 48.1215C25.307 48.0388 25.4585 47.9192 25.6181 47.8165C25.6565 47.8584 25.6949 47.8992 25.7332 47.9411C25.6605 48.0747 25.5888 48.2082 25.503 48.3667H25.9463C24.9687 49.0276 24.2708 50.2138 22.8418 49.8879C23.2569 49.6516 23.7174 49.3905 24.1769 49.1303C24.1375 49.0645 24.0981 48.9987 24.0577 48.9329C23.572 49.2399 23.0852 49.545 22.6014 49.857C22.5085 49.9178 22.4419 50.0513 22.3459 50.0723C21.7581 50.1979 21.7349 50.5827 21.75 51.085C21.8177 53.3219 21.845 55.5598 21.8803 57.7976C21.8924 58.5393 21.8823 59.2819 21.7894 60.0444C21.7601 59.9986 21.7046 59.9527 21.7036 59.9059C21.6309 57.3869 21.5541 54.868 21.4986 52.348C21.4875 51.8187 21.5521 51.2884 21.5925 50.7591C21.6157 50.4451 21.5208 50.2966 21.1693 50.2278C20.0301 50.0075 19.4777 49.3526 19.5201 48.1963C19.5474 47.4756 19.6484 46.7399 19.8392 46.0441C20.3584 44.1592 20.9411 42.2911 21.5067 40.4191C21.5915 40.138 21.7238 39.8708 21.8339 39.5967C21.8894 39.5868 21.945 39.5758 22.0005 39.5658ZM35.9144 60.3475C35.9346 60.3126 35.9558 60.2787 35.979 60.2458C35.9962 60.2199 36.0144 60.196 36.0336 60.171C36.0548 60.1431 36.077 60.1162 36.1002 60.0903C36.1063 60.0833 36.1113 60.0773 36.1174 60.0714C36.1204 60.0674 36.1244 60.0634 36.1285 60.0594C36.1436 60.0425 36.1598 60.0255 36.177 60.0086C36.185 59.9996 36.1941 59.9916 36.2022 59.9846C36.2133 59.9727 36.2244 59.9627 36.2366 59.9527C36.2386 59.9498 36.2396 59.9488 36.2416 59.9478H36.2426C36.2628 59.9298 36.283 59.9119 36.3042 59.8939C36.3133 59.886 36.3214 59.879 36.3305 59.873C36.3456 59.861 36.3608 59.8481 36.3779 59.8371C36.4032 59.8172 36.4294 59.7982 36.4557 59.7803C36.488 59.7584 36.5224 59.7364 36.5577 59.7165C36.6011 59.6906 36.6516 59.6706 36.6829 59.6348C36.8688 59.4294 37.0162 59.0925 37.2374 59.0357C38.0262 58.8373 38.8381 58.7346 39.6421 58.5951C39.6633 58.632 39.6845 58.6688 39.7067 58.7057C38.3948 59.6916 37.0829 60.6774 35.776 61.6593C35.7679 61.6653 35.7609 61.6713 35.7528 61.6772C35.7427 61.6364 35.7346 61.5955 35.7265 61.5546C35.7195 61.5138 35.7134 61.4739 35.7084 61.433C35.7073 61.426 35.7063 61.4191 35.7063 61.4121C35.7053 61.4081 35.7053 61.4051 35.7053 61.4011C35.7013 61.3792 35.7003 61.3563 35.6993 61.3353C35.6983 61.3333 35.6983 61.3323 35.6993 61.3303C35.6983 61.3194 35.6972 61.3074 35.6972 61.2974C35.6922 61.2287 35.6922 61.1609 35.6972 61.0951C35.6972 61.0851 35.6972 61.0772 35.6972 61.0682C35.6972 61.0652 35.6972 61.0622 35.6983 61.0592C35.7003 61.0273 35.7033 60.9954 35.7073 60.9645C35.7104 60.9346 35.7154 60.9047 35.7215 60.8758C35.7235 60.8618 35.7265 60.8479 35.7296 60.8349C35.7336 60.811 35.7387 60.7891 35.7447 60.7661C35.7488 60.7512 35.7528 60.7362 35.7568 60.7213C35.7619 60.6994 35.769 60.6774 35.776 60.6565C35.778 60.6495 35.7801 60.6435 35.7821 60.6376C35.7922 60.6077 35.8033 60.5777 35.8154 60.5498C35.8164 60.5468 35.8174 60.5439 35.8184 60.5419C35.8184 60.5399 35.8205 60.5369 35.8215 60.5349C35.8235 60.5299 35.8255 60.5249 35.8285 60.5199C35.8376 60.497 35.8477 60.4741 35.8588 60.4512C35.8598 60.4482 35.8619 60.4452 35.8629 60.4432C35.878 60.4103 35.8962 60.3784 35.9144 60.3475Z" fill="white"/>
<path d="M62.6309 45.0025C62.3572 43.912 62.135 42.7995 61.7431 41.7499C61.0544 39.9008 60.2666 38.0866 59.497 36.2674C58.8497 34.7383 58.2488 33.1822 57.4792 31.7149C56.7874 30.3951 55.9936 29.1013 55.0594 27.941C54.2676 26.9561 53.2546 26.1268 52.2609 25.3233C51.3297 24.5707 50.3228 23.8969 49.2997 23.2689C48.1181 22.5432 46.8729 21.9212 45.6731 21.2224C45.3721 21.047 45.1822 20.9323 45.0398 20.9004C44.8005 20.8466 44.6934 21.025 44.4127 21.5384C43.2482 23.6646 41.2425 24.8478 39.2549 26.048C39.2509 26.051 39.2479 26.053 39.2438 26.055C39.1691 26.0998 38.961 25.9912 38.8489 25.9085C38.3945 25.5755 37.9743 25.1937 37.5017 24.8897C37.3977 24.8229 37.2906 24.7811 37.1846 24.7671H37.1835C36.9634 24.7382 36.7503 24.8349 36.5917 25.0911C36.5847 25.103 36.5766 25.114 36.5685 25.125C36.52 25.1937 36.4544 25.2615 36.3594 25.3771C36.4251 25.118 36.4655 24.9505 36.5069 24.785C36.5079 24.781 36.5089 24.7781 36.5099 24.7741C36.4695 24.7631 36.4281 24.7511 36.3877 24.7402C36.0312 25.2984 35.9302 25.9533 35.8999 26.5913C35.8282 28.1403 35.4222 29.5867 34.7799 30.9922C34.1295 32.4157 33.671 33.9049 33.4114 35.449C33.3195 35.9943 33.265 36.5465 33.1792 37.1964C33.2337 37.1795 33.2842 37.1655 33.3317 37.1516C33.5185 37.0997 33.6558 37.0678 33.7821 37.012C35.3313 36.3362 36.8755 35.6513 38.4248 34.9745C39.0691 34.6924 39.7235 34.4312 40.3669 34.1471C42.819 33.0676 45.2671 31.9801 47.7192 30.9025C47.9676 30.7929 48.1403 30.743 48.2676 30.7679C48.4554 30.8028 48.5463 30.9982 48.6382 31.4029C48.2676 31.5355 47.7869 31.5285 47.7333 32.1007C47.7252 32.1864 47.5808 32.2602 47.4415 32.3429C47.398 32.3688 47.3556 32.3957 47.3172 32.4237C47.289 32.309 47.2647 32.2681 47.2768 32.2512C47.3395 32.1585 47.4101 32.0718 47.4778 31.9831C47.4687 31.9731 47.4596 31.9641 47.4505 31.9542C47.4354 31.9392 47.4213 31.9242 47.4071 31.9093C46.8001 32.1744 46.1972 32.4496 45.5862 32.7028C44.1935 33.2809 42.7877 33.8292 41.402 34.4243C39.771 35.124 38.1602 35.8677 36.5331 36.5784C34.383 37.5184 32.2248 38.4424 30.0736 39.3814C29.915 39.4512 29.6757 39.5798 29.6656 39.6974C29.6191 40.1938 29.6454 40.6972 29.6454 41.2086C29.6949 41.1827 29.7434 41.1568 29.7918 41.1319C30.5887 40.7102 31.3017 40.3145 32.0319 39.9566C33.7134 39.1322 35.403 38.3238 37.0947 37.5204C38.3046 36.9462 39.5226 36.388 40.7375 35.8248C42.1959 35.147 43.6552 34.4701 45.1156 33.7953C46.5567 33.1294 47.9979 32.4645 49.4421 31.8056C49.5542 31.7548 49.7249 31.686 49.8077 31.7259C49.8108 31.7269 49.8138 31.7279 49.8168 31.7299C50.2168 31.9761 50.5935 32.2592 51.0176 32.5562C50.8762 32.636 50.8076 32.6838 50.7318 32.7167C49.4563 33.263 48.1817 33.8132 46.9021 34.3525C45.2499 35.0483 43.5966 35.7401 41.9393 36.4229C39.4731 37.4386 37.0048 38.4494 34.5315 39.4462C34.1285 39.6087 33.974 39.7961 34.1396 40.2327C34.2194 40.443 34.1537 40.7062 34.1527 40.9464V40.9504C34.076 40.9484 34.0002 40.9464 33.9235 40.9445V39.7333C32.7105 40.2307 31.6026 40.6843 30.4947 41.1388C30.5735 41.1229 30.6523 41.1109 30.7321 41.1019C31.439 41.0102 32.1823 41.087 32.8014 40.6145C32.8237 40.5976 32.8782 40.6015 32.9418 40.6195C33.059 40.6504 33.2054 40.7281 33.2307 40.7959C33.3488 41.1179 33.367 41.4758 33.469 41.8057C33.5033 41.9183 33.6902 42.0818 33.776 42.0659C33.8013 42.0609 33.8255 42.0559 33.8508 42.0509C34.4315 41.9373 35.0102 41.8027 35.5798 41.6422C38.8136 40.7331 42.0484 39.829 45.2741 38.895C48.1292 38.0676 50.9752 37.2074 53.8212 36.3511C53.9535 36.3112 54.0596 36.2953 54.1404 36.3122C54.2716 36.3382 54.3363 36.4518 54.3393 36.685C54.3454 37.1715 54.3696 37.6589 54.3747 38.1454C54.3757 38.2391 54.3232 38.3318 54.2989 38.4255C54.1464 38.9967 53.9262 39.5609 53.8667 40.141C53.8152 40.6354 53.9485 41.1498 54 41.6542C54.0424 41.5834 54.0828 41.5116 54.1202 41.4399C54.8372 40.0802 54.7241 38.6298 54.6554 37.1755C54.7221 37.3609 54.7827 37.5443 54.8281 37.7297C54.8917 37.9789 54.9321 38.2281 54.9352 38.4773C54.9463 39.2808 54.8544 39.4771 55.2624 39.4422C55.4391 39.4273 55.7098 39.3685 56.1229 39.2957C56.14 39.2927 56.1552 39.2857 56.1713 39.2808C56.5117 39.1731 56.846 39.1342 57.1762 39.1412C57.8054 39.1542 58.4205 39.3336 59.0345 39.518C59.1001 39.5369 59.1466 39.6147 59.3264 39.7782H56.5299C56.7914 40.0224 56.9621 40.1799 57.1318 40.3384C57.1227 40.3513 57.1126 40.3653 57.1025 40.3783C57.0914 40.3942 57.0793 40.4102 57.0671 40.4271C56.6036 40.2218 56.138 40.0174 55.5947 39.7762C55.5532 39.7582 55.5118 39.7403 55.4704 39.7214C55.2139 40.3623 54.9746 40.9594 54.7504 41.5196C56.1128 41.8256 57.354 42.1047 58.6406 42.3948C58.6234 42.3799 58.6053 42.3649 58.5891 42.351C58.4366 42.2204 58.3003 42.1038 58.1074 41.9393C58.1993 41.9732 58.2892 42.0071 58.377 42.0449C60.2585 42.8105 61.5058 44.1721 62.5672 45.772C62.5814 45.7162 62.5935 45.6624 62.6046 45.6096C62.6541 45.3873 62.6773 45.1869 62.6309 45.0025ZM51.2115 35.4889C48.6584 36.3162 46.1225 37.1954 43.5613 37.9998C41.7232 38.577 39.8568 39.0674 38.0016 39.5938C37.1987 39.821 36.3938 40.0413 35.5889 40.2646C35.5737 40.2108 35.5586 40.157 35.5434 40.1041C40.8365 37.9719 46.1306 35.8397 51.4428 33.7006C51.5741 33.9139 51.666 34.0465 51.7418 34.188C52.1811 35.0054 52.076 35.2088 51.2115 35.4889Z" fill="white"/>
<path d="M44.9076 8.0554C44.8651 7.68957 44.7833 7.32673 44.647 6.96787C44.6046 6.85523 44.5571 6.74259 44.5036 6.63095C44.4945 7.09347 44.5026 7.56198 44.5006 8.03247C44.4975 8.98444 44.4521 9.94437 44.1491 10.8754C44.1471 10.8854 44.143 10.8953 44.14 10.9053C43.6037 10.7897 43.1392 10.689 42.7241 10.5993C42.6857 10.5913 42.6473 10.5823 42.61 10.5744C42.3302 10.7667 42.6685 11.1994 42.2777 11.316C42.2363 11.329 42.1878 11.3369 42.1292 11.3419C42.1434 11.1246 42.1535 10.9342 42.1696 10.7438C42.2333 9.99621 42.4908 9.25158 42.102 8.50596C42.0161 8.34248 41.9242 8.17701 41.8545 8.00656C41.7687 7.79922 41.7152 7.5859 41.7455 7.35962C41.7636 7.21807 41.8151 7.07254 41.9101 6.92102C41.6344 7.24798 41.4071 7.53407 41.5849 7.9926C41.5879 8.00058 41.5909 8.00755 41.5919 8.01553C41.7212 8.38036 41.5132 8.79504 41.1809 8.99141C41.1355 9.01932 41.087 9.04325 41.0365 9.06119C41.0365 8.72028 41.0223 8.38136 41.0213 8.04444C41.0193 7.79822 41.0244 7.55301 41.0456 7.30978C41.1264 6.37078 41.293 5.43975 41.3728 4.50175C41.4546 3.55876 41.9333 2.89189 42.7251 2.33765C42.6675 2.26289 42.5988 2.17418 42.5241 2.07848C42.4989 2.04559 42.4726 2.0117 42.4453 1.97681C42.1383 2.43933 41.8808 2.84204 41.6081 3.23479C41.3071 3.66741 40.9314 4.04819 40.8143 4.59644C40.786 4.72802 40.5265 4.89549 40.3689 4.90047C40.0528 4.91144 39.7367 4.91742 39.4206 4.91842C38.9661 4.91941 38.5126 4.91044 38.0592 4.89051C37.7653 4.87755 37.4734 4.86658 37.1816 4.86658C36.2817 4.86259 35.395 4.94334 34.5325 5.29123C34.2245 5.41583 33.978 5.52647 33.8558 5.88134C33.774 6.12058 33.5771 6.32194 33.3943 6.56217C33.3721 6.59108 33.3499 6.62098 33.3287 6.65089C33.1448 6.44753 32.9873 6.27309 32.8277 6.09566C32.8085 6.07572 32.7904 6.05579 32.7722 6.03485C32.3874 6.29303 32.0248 6.53725 31.5986 6.82234C31.5744 6.83829 31.5491 6.85523 31.5239 6.87218C31.4219 6.80041 31.2654 6.69076 31.0715 6.55519C31.028 6.52529 30.9836 6.49339 30.9361 6.46049C30.8856 6.96787 30.7372 7.47824 30.8159 7.95074C30.8947 8.41326 30.7442 9.00637 31.3199 9.33133C31.3845 9.36721 31.3593 9.73504 31.2593 9.84967C31.1421 9.98424 31.0684 10.1248 31.024 10.2693C30.8856 10.7119 31.0159 11.1904 30.9684 11.6429C30.9634 11.6938 31.0664 11.7556 31.1199 11.8124C31.1442 11.7895 31.1684 11.7676 31.1916 11.7446C31.6623 11.302 32.1147 10.8764 32.5682 10.4518C32.5914 10.4757 32.6146 10.4996 32.6379 10.5245C32.6621 10.5494 32.6863 10.5744 32.7106 10.6003C32.5914 10.7558 32.4722 10.9123 32.3531 11.0688C31.837 11.7486 31.5027 12.5211 31.7562 13.3475C32.2107 14.8308 32.651 16.3101 33.5791 17.6298C34.38 18.7682 35.498 19.2287 36.6372 19.2168C36.8513 19.2158 37.0664 19.1968 37.2805 19.1619C37.8713 19.0672 38.4521 18.9078 39.0368 18.7782C39.0095 18.7951 38.9813 18.8131 38.954 18.831C38.145 19.3284 37.325 19.6763 36.4867 19.6982H36.4857C35.9111 19.7132 35.3273 19.5746 34.7335 19.2267C34.6567 19.1819 34.581 19.134 34.5042 19.0822C34.6921 19.4251 34.9486 19.7351 35.0365 20.085C35.2506 20.9413 35.5445 21.7048 36.4251 22.1125C36.5705 22.1793 36.6867 22.2152 36.8028 22.1923C36.8836 22.1773 36.9634 22.1335 37.0513 22.0537C37.2947 21.8324 37.5805 21.653 37.8592 21.4716C39.0913 20.6671 40.3497 19.9006 41.5526 19.0563C42.2858 18.5429 42.7584 17.8152 42.7857 16.8802C42.7958 16.5343 42.7524 16.1854 42.7827 15.8415C42.814 15.4837 43.0008 15.1139 42.9412 14.7789C42.8847 14.456 42.6019 14.1719 42.3837 13.815C42.5312 13.815 42.6554 13.7871 42.7513 13.8011C42.7756 13.805 42.7968 13.812 42.817 13.822C42.9907 13.9097 43.1442 13.9376 43.2826 13.9217C43.5866 13.8888 43.8168 13.6535 44.0198 13.4093C44.3864 12.9707 44.646 12.4723 44.5601 11.8563C44.5288 11.634 44.5702 11.3937 44.6167 11.1695C44.8348 10.1228 45.0277 9.07814 44.9065 8.0554H44.9076ZM42.0353 17.6229C41.9727 17.6209 41.9091 17.6199 41.8464 17.6179C41.8899 17.1464 41.9283 16.6729 41.9777 16.2014C42.0282 15.7299 42.0908 15.2594 42.0666 14.759C41.4869 15.7917 41.4041 17.0587 40.5648 17.9548C40.5244 17.9349 40.484 17.9159 40.4436 17.896C40.9183 16.6579 41.393 15.4199 41.8677 14.1808C41.9283 14.1908 41.9899 14.2008 42.0515 14.2117C42.7029 15.3491 42.0676 16.4855 42.0353 17.6229Z" fill="white"/>
<path d="M37.842 76.5389C37.1876 76.3514 36.6463 76.2577 36.1585 76.0444C34.9466 75.5131 33.7488 74.9459 32.5661 74.3548C31.939 74.0408 31.3381 73.67 30.7594 73.2763C30.5897 73.1606 30.4604 72.8855 30.4402 72.6712C30.2807 70.9427 29.9009 69.273 29.2041 67.6732C29.1344 67.5127 29.2758 67.2744 29.2546 67.079C29.1354 66.0005 28.9849 64.9259 28.8667 63.8474C28.8062 63.2921 28.8102 62.7309 28.7526 62.1747C28.7011 61.6843 28.6375 61.1958 28.5688 60.6805C28.5557 60.5788 28.5426 60.4761 28.5284 60.3725C28.5022 60.1761 28.4759 59.9757 28.4496 59.7694C28.5133 59.8412 28.5698 59.9069 28.6223 59.9668C28.7324 60.0933 28.8243 60.199 28.9162 60.3047C28.9486 60.2847 28.9799 60.2658 29.0132 60.2479C29.0233 60.2409 29.0344 60.2349 29.0445 60.2289C28.9031 59.9678 28.7536 59.7116 28.6264 59.4444C28.5688 59.3218 28.5183 59.1713 28.5385 59.0447C28.5506 58.9689 28.7142 58.8533 28.7971 58.8633C28.8243 58.8663 28.8526 58.8693 28.8799 58.8732H28.8809C29.8797 58.9869 30.8816 59.0905 31.8713 59.262C32.5025 59.3717 32.7116 59.9229 32.6974 60.4602C32.6803 61.139 32.8257 61.7012 33.3599 62.1428C33.3832 62.1627 33.3852 62.2245 33.4044 62.2285C34.2346 62.386 34.0649 63.1277 34.1891 63.639C34.5517 65.1343 34.8324 66.6484 35.1415 68.1566C35.1748 68.3221 35.1879 68.4915 35.2112 68.659C35.192 68.673 35.1728 68.6879 35.1536 68.7029C35.1314 68.7198 35.1092 68.7358 35.0879 68.7527C34.479 68.3809 33.87 68.0091 33.1873 67.5914C33.1166 67.5485 33.0438 67.5047 32.9711 67.4598C33.0863 67.6632 33.1357 67.8167 33.2377 67.9184C34.0144 68.6939 34.789 69.4734 35.5949 70.22C35.8666 70.4712 36.2322 70.6227 36.5423 70.8371C36.6271 70.8949 36.6917 71.0085 36.723 71.1092C36.822 71.4242 36.9149 71.7432 36.9785 72.0661C37.0018 72.1838 36.9493 72.3223 36.9058 72.4419C36.8786 72.5147 36.7644 72.5665 36.7574 72.6353C36.7352 72.8586 36.7442 73.0839 36.7422 73.3092C36.7897 73.2902 36.8382 73.2703 36.8887 73.2494C37.0149 73.1975 37.1553 73.1387 37.3492 73.06C37.3542 73.0779 37.3583 73.0968 37.3623 73.1148C37.6209 74.1415 37.6875 75.242 37.837 76.497C37.839 76.5109 37.84 76.5249 37.842 76.5389Z" fill="white"/>
<path d="M60.2 51.095C60.2 51.095 60.1919 51.097 60.1878 51.098C60.0525 51.1309 59.7728 51.0392 59.7394 50.9465C59.388 49.9676 58.6245 49.2828 57.9306 48.585C57.1843 47.8364 56.341 47.1725 55.3129 46.7688C54.8766 46.5973 54.4504 46.4987 54.0313 46.4867H54.0272C53.4819 46.4717 52.9466 46.6023 52.4144 46.9074C52.3588 46.9393 52.2962 46.9612 52.2336 46.9821C52.1892 46.9961 52.1437 47.01 52.1003 47.026C51.8013 46.1129 52.2992 45.0443 53.1052 44.6087C53.4688 44.4113 53.7435 44.0475 54.0353 43.7365C54.1141 43.6527 54.1252 43.4893 54.1303 43.3607C54.1363 43.1753 54.0444 42.8513 54.106 42.8234C54.4322 42.6739 54.7978 42.5014 55.1412 42.5184C55.1503 42.5184 55.1594 42.5194 55.1685 42.5204C55.6532 42.5493 56.1441 42.6878 56.6056 42.8503C57.3883 43.1244 58.1508 43.4584 58.7689 43.7056C58.8143 44.0515 58.7689 44.3336 58.885 44.4323C59.0173 44.5449 59.3304 44.6346 59.4657 44.6037C59.489 44.5997 59.5061 44.5917 59.5172 44.5798C59.6647 44.4213 59.7465 44.1013 59.693 43.888C59.6203 43.6019 59.394 43.3527 59.2759 43.0058C59.3435 43.0596 59.4142 43.1105 59.4849 43.1613C59.7303 43.3397 59.9818 43.5122 60.1828 43.7305C61.0867 44.7104 61.9734 45.7022 62.3491 47.031C62.7985 48.6179 61.7876 50.5826 60.2 51.095Z" fill="white"/>
<path d="M36.1898 51.6224C35.8171 49.9068 35.4374 48.1933 35.0677 46.4778C34.8556 45.4929 34.6718 44.5011 34.4466 43.5182C34.3739 43.2023 34.1063 43.0617 33.8366 43.0418C33.778 43.0368 33.7195 43.0388 33.6629 43.0448C33.0317 43.1145 32.4136 43.289 31.7875 43.4046C31.4633 43.4644 31.3784 43.6488 31.4259 43.9409C31.6582 45.3803 31.8471 46.8277 32.1319 48.2561C32.3944 49.5729 32.7631 50.8678 33.0741 52.1746C33.16 52.5345 33.3458 52.671 33.6286 52.6381C33.6993 52.6312 33.775 52.6122 33.8578 52.5843C34.2053 52.4657 34.5567 52.362 34.9051 52.2454C35.3172 52.1078 35.7262 51.9643 36.1918 51.8048C36.1918 51.752 36.2029 51.6842 36.1898 51.6224ZM34.3416 51.1957C33.6548 51.5287 33.5246 51.4529 33.3246 50.5887C33.6599 50.6515 33.981 50.6973 34.2941 50.7771C34.4012 50.804 34.486 50.9136 34.582 50.9854C34.5022 51.0562 34.4345 51.1509 34.3416 51.1957Z" fill="white"/>
<path d="M41.7737 23.6158C41.2536 24.0793 40.7001 24.5169 40.1154 24.8957C39.9174 25.0253 39.6963 25.0901 39.4731 25.101H39.469C38.6772 25.1409 37.842 24.5109 37.7622 23.6746C37.736 23.4005 37.6289 23.1024 37.4683 22.8791C37.23 22.5522 37.2674 22.3468 37.6097 22.1634C38.346 21.7697 39.1135 21.4208 39.8114 20.9672C40.8951 20.2645 42.0888 19.6853 42.8614 18.5928C42.9917 18.4094 43.0604 18.1831 43.1997 17.8851C43.3462 17.8562 43.4764 17.8442 43.5906 17.8512C44.038 17.8781 44.246 18.1891 44.2925 18.8261C44.447 20.9433 43.2139 22.3349 41.7737 23.6158Z" fill="white"/>
<path d="M50.1814 66.1699C50.1814 66.1699 50.1784 66.1699 50.1774 66.1709C50.1299 66.1759 50.0845 66.1819 50.038 66.1879C49.8411 65.7124 49.6431 65.2379 49.4411 64.7495C49.4371 64.7405 49.433 64.7305 49.429 64.7216C49.326 64.7435 49.229 64.7634 49.1331 64.7834C49.0887 64.7933 49.0442 64.8023 48.9998 64.8113C48.9907 64.7913 48.9816 64.7714 48.9725 64.7515C49.1513 64.6308 49.33 64.5102 49.628 64.3089C48.9846 64.3119 48.9564 63.9849 49.0291 63.5244C49.0351 63.4875 49.0412 63.4496 49.0483 63.4107C48.7897 63.5912 48.6281 63.6898 48.4837 63.8075C48.3666 63.9032 48.2726 63.966 48.1959 63.9929C48.0242 64.0527 47.9323 63.9351 47.8495 63.6031C47.5596 62.4478 47.289 61.2875 47.0102 60.1292C46.987 60.0325 46.9698 59.9338 46.9405 59.8391C46.7789 59.3115 46.9351 58.9098 47.4091 58.634C47.8404 58.3818 48.2827 58.1416 48.6928 57.8585C48.8493 57.7508 48.9594 57.7199 49.0452 57.7518C49.1422 57.7857 49.2078 57.8983 49.2755 58.0648C49.6189 58.9131 49.8512 59.7684 49.8865 60.6994C49.9431 62.2215 50.1148 63.7387 50.2228 65.2588C50.245 65.5599 50.1966 65.8659 50.1814 66.1699Z" fill="white"/>
<path d="M32.7389 55.9126C32.7126 56.2147 32.7277 56.7021 32.1793 56.9423C32.0339 57.0061 31.844 57.041 31.6431 57.047C31.2098 57.06 30.7291 56.9364 30.5624 56.6662C30.2241 56.119 29.801 55.5637 29.8888 54.854C29.9019 54.7454 30.008 54.5709 30.0898 54.56C30.514 54.5011 30.9422 54.4682 31.3704 54.4633C31.3876 54.4633 31.4047 54.4633 31.4209 54.4653C31.5956 54.4772 31.7703 54.557 31.9481 54.5889C32.3894 54.6666 32.6995 55.1172 32.7389 55.9126Z" fill="white"/>
<path d="M35.2202 22.1644C35.1132 22.3916 35.0809 22.5511 34.9849 22.6498C34.5668 23.0764 34.1376 23.4941 33.6902 23.8908C33.675 23.9048 33.6488 23.9138 33.6185 23.9188C33.5175 23.9367 33.3599 23.9118 33.3185 23.8579C32.8368 23.2459 32.3702 22.6219 31.9198 21.9879C31.737 21.7307 31.7693 21.4975 32.0995 21.342C32.2288 21.2812 32.3046 21.1007 32.4338 21.0539C32.5833 20.9991 32.7722 20.9452 32.9237 20.9672C32.954 20.9702 32.9832 20.9771 33.0095 20.9881C33.5943 21.2184 34.1639 21.4905 34.7274 21.7716C34.9102 21.8633 35.0546 22.0298 35.2202 22.1644Z" fill="white"/>
<path d="M35.8696 58.5691C35.806 58.9858 35.6101 59.1902 35.2465 59.2141H35.2435C35.1748 59.2191 35.1001 59.2161 35.0182 59.2081C34.6011 59.1642 34.1901 59.0735 33.775 59.0187C33.7407 59.0137 33.7063 59.0107 33.671 59.0087C33.5589 59.0017 33.4428 59.0097 33.3387 59.0396C33.2882 59.0546 33.2408 59.0655 33.1963 59.0705C32.9277 59.1064 32.7873 58.9659 32.7823 58.6329C32.7782 58.3897 32.7812 58.1465 32.7812 57.9312C33.67 57.7168 34.5113 57.5155 35.3525 57.3121C35.4687 57.2842 35.5666 57.2743 35.6454 57.2862H35.6474C35.8333 57.3151 35.912 57.4637 35.8777 57.7647C35.8464 58.0299 35.909 58.307 35.8696 58.5691Z" fill="white"/>
<path d="M27.3357 62.0989C27.3064 62.2285 27.1559 62.4149 27.0428 62.4687C27.0196 62.4807 26.9974 62.4867 26.9782 62.4847C26.7964 62.4677 26.4985 62.2963 26.4793 62.1587C26.3722 61.3971 26.2965 60.6216 26.754 59.8989C26.7762 59.9448 26.7984 59.9896 26.8216 60.0345C27.1509 60.6934 27.5044 61.3383 27.3357 62.0989Z" fill="white"/>
<path d="M28.4295 60.5907C28.4224 60.6914 28.4143 60.7931 28.4062 60.8937V60.8957C28.3628 61.427 28.3143 61.9514 28.2719 62.4318C28.2719 62.0181 28.28 61.5397 28.2689 61.0612C28.2628 60.7841 28.2305 60.5129 27.9578 60.4741C27.9477 60.4721 27.9366 60.4711 27.9255 60.4711C27.8821 60.4681 27.8336 60.4701 27.7791 60.4781C27.8094 60.0544 27.8366 59.6627 27.8629 59.2928C27.9053 59.3796 27.9477 59.4663 27.9901 59.554C28.1123 59.8022 28.2355 60.0544 28.3547 60.3096C28.3951 60.3973 28.4365 60.499 28.4295 60.5907Z" fill="white"/>
<path d="M44.3612 5.37003C44.3299 5.45177 44.2895 5.52952 44.239 5.60129C44.2026 5.27234 44.1794 4.99822 44.139 4.72709C44.1027 4.47688 44.0461 4.22967 43.9976 3.98047C44.0602 4.00738 44.1168 4.04726 44.1673 4.09809C44.44 4.36524 44.5359 4.92246 44.3612 5.37003Z" fill="white"/>
<path d="M35.6838 52.6262C35.4778 52.7627 35.2727 52.8983 35.0667 53.0359C35.0122 53.0718 34.9566 53.1076 34.9021 53.1445C34.9526 52.7119 35.1829 52.5743 35.5141 52.6013C35.5676 52.6052 35.6252 52.6142 35.6838 52.6262Z" fill="white"/>
<g clip-path="url(#clip0_7_50)">
<path d="M243.918 32H192.082C189.828 32 188 33.8015 188 36.024V62.976C188 65.1978 189.828 67 192.082 67H243.918C246.172 67 248 65.1978 248 62.976V36.024C248 33.8015 246.172 32 243.918 32ZM222.005 63.1461C222.005 63.9475 221.795 64.5766 221.374 65.0334C220.953 65.4909 220.322 65.7197 219.481 65.7197C218.64 65.7197 218.045 65.4909 217.61 65.0334C217.175 64.5766 216.958 63.9475 216.958 63.1461V45.0078L208.777 59.7148C208.487 60.2016 208.183 60.559 207.863 60.7871C207.544 61.0165 207.109 61.1302 206.558 61.1302C206.007 61.1302 205.557 61.0094 205.209 60.7656C204.861 60.5233 204.556 60.173 204.295 59.7148L196.115 45.1086V63.1461C196.115 63.9475 195.905 64.5766 195.484 65.0334C195.064 65.4909 194.433 65.7197 193.591 65.7197C192.75 65.7197 192.155 65.4909 191.72 65.0334C191.285 64.5766 191.068 63.9475 191.068 63.1461V37.368C191.068 36.5394 191.3 35.9032 191.764 35.4593C192.228 35.016 192.866 34.7944 193.678 34.7944C194.404 34.7944 194.976 34.931 195.397 35.2019C195.818 35.4743 196.202 35.9389 196.55 36.5959L206.602 54.928L216.653 36.5959C217.001 35.9389 217.378 35.4743 217.784 35.2019C218.19 34.931 218.756 34.7944 219.481 34.7944C220.293 34.7944 220.917 35.016 221.352 35.4593C221.787 35.9032 222.005 36.5394 222.005 37.368V63.1461ZM242.586 47.8336C243.341 47.8336 243.906 48.0202 244.283 48.3912C244.66 48.7637 244.849 49.307 244.849 50.0219C244.849 50.7367 244.66 51.28 244.283 51.651C243.906 52.0235 243.341 52.2086 242.586 52.2086H230.403V61.0015H243.544C244.269 61.0015 244.827 61.1881 245.219 61.5591C245.61 61.9316 245.806 62.4749 245.806 63.189C245.806 63.9032 245.61 64.4479 245.219 64.8196C244.827 65.1914 244.269 65.3765 243.544 65.3765H228.01C227.052 65.3765 226.32 65.127 225.812 64.6259C225.305 64.1262 225.051 63.4035 225.051 62.4606V38.0542C225.051 37.1106 225.305 36.3893 225.812 35.8882C226.32 35.3885 227.052 35.1376 228.01 35.1376H243.544C244.269 35.1376 244.827 35.3241 245.219 35.6952C245.61 36.0676 245.806 36.5959 245.806 37.2822C245.806 37.9684 245.61 38.5482 245.219 38.9335C244.827 39.3195 244.269 39.5133 243.544 39.5133H230.403V47.8336H242.586Z" fill="white"/>
</g>
<path d="M156.941 37.3782C155.222 35.9203 152.7 35.1907 149.376 35.1907H140.425C139.516 35.1907 138.791 35.4155 138.251 35.8637C137.711 36.3127 137.37 36.9858 137.229 37.883L133.35 61.9877C133.18 62.9973 133.3 63.7828 133.713 64.3435C134.124 64.9041 134.757 65.1848 135.609 65.1848C136.518 65.1848 137.236 64.96 137.761 64.5117C138.287 64.0635 138.621 63.3904 138.763 62.4925L140.255 52.9854H144.645C145.781 52.9854 146.662 53.1953 147.287 53.616C147.912 54.0367 148.409 54.7522 148.779 55.7618L151.507 62.829C151.819 63.6428 152.195 64.2381 152.636 64.6171C153.076 64.9953 153.666 65.1848 154.405 65.1848C155.144 65.1848 155.769 65.0441 156.195 64.7641C156.621 64.4841 156.87 64.0847 156.941 63.565C157.012 63.0468 156.905 62.4225 156.621 61.6929L154.575 56.4349C154.064 55.117 153.382 54.0862 152.53 53.3431C152.179 53.037 151.787 52.7938 151.353 52.6142C152.29 52.4495 153.172 52.2013 154 51.8704C155.719 51.1839 157.069 50.1389 158.049 48.7362C159.029 47.3342 159.519 45.554 159.519 43.3941C159.519 40.8425 158.66 38.8367 156.941 37.3782ZM152.636 47.6637C151.571 48.5475 150.071 48.9886 148.139 48.9886H141.314C141.094 48.9886 140.925 48.7942 140.96 48.58L142.371 39.7975C142.404 39.5918 142.584 39.4398 142.796 39.4398H148.566C150.528 39.4398 151.962 39.8046 152.871 40.5335C153.78 41.2632 154.235 42.3569 154.235 43.8148C154.235 45.4974 153.702 46.7807 152.637 47.6637H152.636Z" fill="white"/>
<path d="M89.3976 65.329C88.0982 65.329 87.1648 64.9281 86.5968 64.1271C86.028 63.326 85.8661 62.204 86.1097 60.7617L91.7112 25.8461C91.914 24.5643 92.381 23.6028 93.1116 22.9615C93.8423 22.321 94.8566 22 96.156 22C97.4553 22 98.378 22.4009 98.9266 23.2019C99.4746 24.0037 99.6265 25.125 99.3837 26.5673L97.2576 39.7395C97.2233 39.9545 97.3909 40.1489 97.6115 40.1489H118.988C119.165 40.1489 119.314 40.0223 119.342 39.8512L121.608 25.8461C121.811 24.5643 122.267 23.6028 122.978 22.9615C123.687 22.321 124.692 22 125.991 22C127.29 22 128.223 22.3903 128.792 23.1722C129.36 23.9535 129.522 25.0861 129.279 26.5673L123.677 61.4228C123.474 62.7053 123.017 63.6767 122.308 64.3378C121.597 64.9988 120.592 65.329 119.294 65.329C117.995 65.329 117.01 64.9281 116.463 64.1271C115.915 63.326 115.763 62.204 116.006 60.7617L118.193 46.9871C118.228 46.7729 118.059 46.5791 117.839 46.5791H96.4625C96.2863 46.5791 96.1359 46.7057 96.1087 46.8775L93.7821 61.4228C93.5787 62.7053 93.1217 63.6767 92.4125 64.3378C91.7019 64.9988 90.6969 65.329 89.3983 65.329H89.3976Z" fill="white"/>
<path d="M128.356 65.1848C127.418 65.1848 126.75 64.9041 126.353 64.3434C125.955 63.7828 125.841 62.9973 126.012 61.9877L129.933 37.5464C130.075 36.6492 130.401 35.9761 130.914 35.5272C131.425 35.079 132.135 34.8541 133.045 34.8541C133.954 34.8541 134.6 35.1277 134.984 35.6743C135.367 36.2215 135.474 37.014 135.303 38.0512L131.382 62.4501C131.24 63.348 130.927 64.0274 130.444 64.4905C129.961 64.9529 129.265 65.1848 128.356 65.1848Z" fill="white"/>
<path d="M161.794 64.8483C160.771 64.8483 160.032 64.5817 159.577 64.0494C159.123 63.517 158.966 62.7598 159.109 61.7777L162.945 37.7996C163.087 36.9306 163.42 36.2788 163.946 35.8433C164.472 35.4092 165.175 35.1914 166.056 35.1914H181.1C181.839 35.1914 182.407 35.3385 182.805 35.6333C183.203 35.9281 183.402 36.3558 183.402 36.9165C183.402 37.7303 183.168 38.3609 182.699 38.8099C182.23 39.2588 181.612 39.4829 180.845 39.4829H168.236C168.06 39.4829 167.91 39.6088 167.882 39.7806L166.675 47.2346C166.64 47.4495 166.809 47.6439 167.029 47.6439H178.202C178.941 47.6439 179.502 47.791 179.886 48.0858C180.269 48.3806 180.461 48.8084 180.461 49.369C180.461 50.1828 180.227 50.8135 179.757 51.2624C179.289 51.7114 178.671 51.9355 177.904 51.9355H166.233C166.057 51.9355 165.907 52.0613 165.879 52.2331L164.587 60.1495C164.552 60.3644 164.721 60.5589 164.941 60.5589H177.009C177.747 60.5589 178.315 60.7059 178.714 61.0007C179.111 61.2956 179.31 61.7233 179.31 62.284C179.31 63.0977 179.076 63.7284 178.607 64.1773C178.139 64.6263 177.52 64.8504 176.753 64.8504H161.794V64.8483Z" fill="white"/>
<defs>
<clipPath id="clip0_7_50">
<rect width="60" height="35" fill="white" transform="translate(188 32)"/>
</clipPath>
</defs>
</svg>
